<mxfile host="app.diagrams.net" modified="2022-03-17T02:41:02.315Z" agent="5.0 (Windows NT 10.0; Win64; x64) AppleWebKit/537.36 (KHTML, like Gecko) Chrome/99.0.4844.51 Safari/537.36" etag="StUzFxxcdBGPzd6Gii3a" version="17.1.2" type="github">
  <diagram id="Y2bB13DLOic2n1DQH73y" name="Page-1">
    <mxGraphModel dx="1765" dy="1785" grid="1" gridSize="10" guides="1" tooltips="1" connect="1" arrows="1" fold="1" page="1" pageScale="1" pageWidth="850" pageHeight="1100" math="0" shadow="0">
      <root>
        <mxCell id="0" />
        <mxCell id="1" parent="0" />
        <mxCell id="PZgfyG_mXTi6joqUZfRK-21" value="" style="rounded=0;whiteSpace=wrap;html=1;fillColor=#FFFFFF;" vertex="1" parent="1">
          <mxGeometry x="1475" y="2307" width="310" height="240" as="geometry" />
        </mxCell>
        <mxCell id="PZgfyG_mXTi6joqUZfRK-22" style="edgeStyle=orthogonalEdgeStyle;rounded=0;orthogonalLoop=1;jettySize=auto;html=1;exitX=1;exitY=0.5;exitDx=0;exitDy=0;entryX=0;entryY=0.5;entryDx=0;entryDy=0;" edge="1" parent="1" source="PZgfyG_mXTi6joqUZfRK-24" target="PZgfyG_mXTi6joqUZfRK-26">
          <mxGeometry relative="1" as="geometry" />
        </mxCell>
        <mxCell id="PZgfyG_mXTi6joqUZfRK-23" style="edgeStyle=orthogonalEdgeStyle;rounded=0;orthogonalLoop=1;jettySize=auto;html=1;exitX=0.5;exitY=1;exitDx=0;exitDy=0;entryX=0.567;entryY=0.017;entryDx=0;entryDy=0;entryPerimeter=0;" edge="1" parent="1" source="PZgfyG_mXTi6joqUZfRK-24" target="PZgfyG_mXTi6joqUZfRK-33">
          <mxGeometry relative="1" as="geometry" />
        </mxCell>
        <mxCell id="PZgfyG_mXTi6joqUZfRK-24" value="Validate&amp;nbsp;&lt;br&gt;1. order num &lt;br&gt;&amp;lt; = 0&lt;br&gt;&amp;lt; 7 bytes&lt;br&gt;&amp;gt; 9 digits&lt;br&gt;2. loc code is empty &#39; &#39;&lt;b&gt;(1 and 4)&lt;/b&gt;" style="rounded=0;whiteSpace=wrap;html=1;" vertex="1" parent="1">
          <mxGeometry x="365" y="110" width="225" height="120" as="geometry" />
        </mxCell>
        <mxCell id="PZgfyG_mXTi6joqUZfRK-25" value="YES" style="edgeStyle=orthogonalEdgeStyle;rounded=0;orthogonalLoop=1;jettySize=auto;html=1;exitX=1;exitY=0.5;exitDx=0;exitDy=0;entryX=0;entryY=0.367;entryDx=0;entryDy=0;entryPerimeter=0;" edge="1" parent="1" source="PZgfyG_mXTi6joqUZfRK-26" target="PZgfyG_mXTi6joqUZfRK-29">
          <mxGeometry relative="1" as="geometry" />
        </mxCell>
        <mxCell id="PZgfyG_mXTi6joqUZfRK-26" value="Is Invalid" style="rhombus;whiteSpace=wrap;html=1;" vertex="1" parent="1">
          <mxGeometry x="655" y="130" width="80" height="80" as="geometry" />
        </mxCell>
        <mxCell id="PZgfyG_mXTi6joqUZfRK-27" style="edgeStyle=orthogonalEdgeStyle;rounded=0;orthogonalLoop=1;jettySize=auto;html=1;exitX=1;exitY=0.5;exitDx=0;exitDy=0;entryX=0;entryY=0.5;entryDx=0;entryDy=0;" edge="1" parent="1" source="PZgfyG_mXTi6joqUZfRK-29" target="PZgfyG_mXTi6joqUZfRK-30">
          <mxGeometry relative="1" as="geometry" />
        </mxCell>
        <mxCell id="PZgfyG_mXTi6joqUZfRK-28" style="edgeStyle=orthogonalEdgeStyle;rounded=0;orthogonalLoop=1;jettySize=auto;html=1;exitX=0.5;exitY=1;exitDx=0;exitDy=0;entryX=0;entryY=0.5;entryDx=0;entryDy=0;" edge="1" parent="1" source="PZgfyG_mXTi6joqUZfRK-29" target="PZgfyG_mXTi6joqUZfRK-48">
          <mxGeometry relative="1" as="geometry" />
        </mxCell>
        <mxCell id="PZgfyG_mXTi6joqUZfRK-29" value="Error record to CRTC_PIF_DATA" style="rounded=0;whiteSpace=wrap;html=1;" vertex="1" parent="1">
          <mxGeometry x="830" y="150" width="120" height="60" as="geometry" />
        </mxCell>
        <mxCell id="PZgfyG_mXTi6joqUZfRK-30" value="Check sample record in CRTS_PIF_DATA" style="ellipse;whiteSpace=wrap;html=1;" vertex="1" parent="1">
          <mxGeometry x="990" y="50" width="120" height="80" as="geometry" />
        </mxCell>
        <mxCell id="PZgfyG_mXTi6joqUZfRK-31" style="edgeStyle=orthogonalEdgeStyle;rounded=0;orthogonalLoop=1;jettySize=auto;html=1;exitX=1;exitY=0.5;exitDx=0;exitDy=0;entryX=0;entryY=0.5;entryDx=0;entryDy=0;entryPerimeter=0;" edge="1" parent="1" source="PZgfyG_mXTi6joqUZfRK-33" target="PZgfyG_mXTi6joqUZfRK-276">
          <mxGeometry relative="1" as="geometry">
            <mxPoint x="638.4000000000001" y="302" as="targetPoint" />
          </mxGeometry>
        </mxCell>
        <mxCell id="PZgfyG_mXTi6joqUZfRK-32" style="edgeStyle=orthogonalEdgeStyle;rounded=0;orthogonalLoop=1;jettySize=auto;html=1;exitX=0.5;exitY=1;exitDx=0;exitDy=0;entryX=0.5;entryY=0;entryDx=0;entryDy=0;" edge="1" parent="1" source="PZgfyG_mXTi6joqUZfRK-33" target="PZgfyG_mXTi6joqUZfRK-35">
          <mxGeometry relative="1" as="geometry" />
        </mxCell>
        <mxCell id="PZgfyG_mXTi6joqUZfRK-33" value="Write to ACE_Remarks via SND_RMK(2)" style="rounded=0;whiteSpace=wrap;html=1;fillColor=#97D077;" vertex="1" parent="1">
          <mxGeometry x="410" y="290" width="120" height="60" as="geometry" />
        </mxCell>
        <mxCell id="PZgfyG_mXTi6joqUZfRK-34" style="edgeStyle=orthogonalEdgeStyle;rounded=0;orthogonalLoop=1;jettySize=auto;html=1;exitX=0.5;exitY=1;exitDx=0;exitDy=0;entryX=0.5;entryY=0;entryDx=0;entryDy=0;" edge="1" parent="1" source="PZgfyG_mXTi6joqUZfRK-35" target="PZgfyG_mXTi6joqUZfRK-40">
          <mxGeometry relative="1" as="geometry" />
        </mxCell>
        <mxCell id="PZgfyG_mXTi6joqUZfRK-35" value="B2B orders(3)" style="rounded=0;whiteSpace=wrap;html=1;fillColor=#f8cecc;strokeColor=#b85450;" vertex="1" parent="1">
          <mxGeometry x="410" y="390" width="120" height="60" as="geometry" />
        </mxCell>
        <mxCell id="PZgfyG_mXTi6joqUZfRK-36" value="Writes data to DB" style="rounded=0;whiteSpace=wrap;html=1;fillColor=#97D077;" vertex="1" parent="1">
          <mxGeometry x="40" y="-180" width="120" height="30" as="geometry" />
        </mxCell>
        <mxCell id="PZgfyG_mXTi6joqUZfRK-37" value="We can ignore this&lt;br&gt;for DEVR/New stack" style="rounded=0;whiteSpace=wrap;html=1;fillColor=#f8cecc;strokeColor=#b85450;" vertex="1" parent="1">
          <mxGeometry x="30" y="-130" width="130" height="30" as="geometry" />
        </mxCell>
        <mxCell id="PZgfyG_mXTi6joqUZfRK-38" style="edgeStyle=orthogonalEdgeStyle;rounded=0;orthogonalLoop=1;jettySize=auto;html=1;exitX=1;exitY=0.5;exitDx=0;exitDy=0;entryX=0;entryY=0.5;entryDx=0;entryDy=0;entryPerimeter=0;" edge="1" parent="1" source="PZgfyG_mXTi6joqUZfRK-40" target="PZgfyG_mXTi6joqUZfRK-279">
          <mxGeometry relative="1" as="geometry">
            <mxPoint x="630" y="510" as="targetPoint" />
          </mxGeometry>
        </mxCell>
        <mxCell id="PZgfyG_mXTi6joqUZfRK-39" style="edgeStyle=orthogonalEdgeStyle;rounded=0;orthogonalLoop=1;jettySize=auto;html=1;exitX=0.5;exitY=1;exitDx=0;exitDy=0;entryX=0.5;entryY=0;entryDx=0;entryDy=0;" edge="1" parent="1" source="PZgfyG_mXTi6joqUZfRK-40" target="PZgfyG_mXTi6joqUZfRK-43">
          <mxGeometry relative="1" as="geometry" />
        </mxCell>
        <mxCell id="PZgfyG_mXTi6joqUZfRK-40" value="Get order details(1,5)" style="rounded=0;whiteSpace=wrap;html=1;fillColor=#FFFFFF;" vertex="1" parent="1">
          <mxGeometry x="410" y="490" width="120" height="60" as="geometry" />
        </mxCell>
        <mxCell id="PZgfyG_mXTi6joqUZfRK-41" value="" style="edgeStyle=orthogonalEdgeStyle;rounded=0;orthogonalLoop=1;jettySize=auto;html=1;exitX=1;exitY=0.5;exitDx=0;exitDy=0;entryX=0;entryY=0.5;entryDx=0;entryDy=0;" edge="1" parent="1" source="PZgfyG_mXTi6joqUZfRK-43" target="PZgfyG_mXTi6joqUZfRK-45">
          <mxGeometry relative="1" as="geometry" />
        </mxCell>
        <mxCell id="PZgfyG_mXTi6joqUZfRK-42" style="edgeStyle=orthogonalEdgeStyle;rounded=0;orthogonalLoop=1;jettySize=auto;html=1;exitX=0.5;exitY=1;exitDx=0;exitDy=0;" edge="1" parent="1" source="PZgfyG_mXTi6joqUZfRK-43" target="PZgfyG_mXTi6joqUZfRK-47">
          <mxGeometry relative="1" as="geometry" />
        </mxCell>
        <mxCell id="PZgfyG_mXTi6joqUZfRK-43" value="Process&lt;br&gt;Paypal orders(Credit_type)" style="rounded=0;whiteSpace=wrap;html=1;fillColor=#f8cecc;strokeColor=#b85450;" vertex="1" parent="1">
          <mxGeometry x="410" y="590" width="120" height="60" as="geometry" />
        </mxCell>
        <mxCell id="PZgfyG_mXTi6joqUZfRK-44" value="YES" style="edgeStyle=orthogonalEdgeStyle;rounded=0;orthogonalLoop=1;jettySize=auto;html=1;exitX=1;exitY=0.5;exitDx=0;exitDy=0;" edge="1" parent="1" source="PZgfyG_mXTi6joqUZfRK-45">
          <mxGeometry relative="1" as="geometry">
            <mxPoint x="950" y="620" as="targetPoint" />
          </mxGeometry>
        </mxCell>
        <mxCell id="PZgfyG_mXTi6joqUZfRK-45" value="Check PAYPAL_CRTC_PROC_OFF" style="rhombus;whiteSpace=wrap;html=1;fillColor=#FFFFFF;" vertex="1" parent="1">
          <mxGeometry x="620" y="585" width="210" height="70" as="geometry" />
        </mxCell>
        <mxCell id="PZgfyG_mXTi6joqUZfRK-46" style="edgeStyle=orthogonalEdgeStyle;rounded=0;orthogonalLoop=1;jettySize=auto;html=1;exitX=1;exitY=0.5;exitDx=0;exitDy=0;entryX=0;entryY=0.5;entryDx=0;entryDy=0;" edge="1" parent="1" source="PZgfyG_mXTi6joqUZfRK-47" target="PZgfyG_mXTi6joqUZfRK-288">
          <mxGeometry relative="1" as="geometry" />
        </mxCell>
        <mxCell id="PZgfyG_mXTi6joqUZfRK-47" value="PROCESS&lt;br&gt;ISTH and ROBX ORDERS(7)" style="rounded=0;whiteSpace=wrap;html=1;fillColor=#FFFFFF;" vertex="1" parent="1">
          <mxGeometry x="410" y="750" width="120" height="60" as="geometry" />
        </mxCell>
        <mxCell id="PZgfyG_mXTi6joqUZfRK-48" value="EXIT" style="triangle;whiteSpace=wrap;html=1;fillColor=#990000;" vertex="1" parent="1">
          <mxGeometry x="940" y="240" width="60" height="80" as="geometry" />
        </mxCell>
        <mxCell id="PZgfyG_mXTi6joqUZfRK-49" value="EXIT" style="triangle;whiteSpace=wrap;html=1;fillColor=#990000;" vertex="1" parent="1">
          <mxGeometry x="950" y="590" width="60" height="80" as="geometry" />
        </mxCell>
        <mxCell id="PZgfyG_mXTi6joqUZfRK-50" style="edgeStyle=orthogonalEdgeStyle;rounded=0;orthogonalLoop=1;jettySize=auto;html=1;exitX=1;exitY=0.5;exitDx=0;exitDy=0;" edge="1" parent="1" source="PZgfyG_mXTi6joqUZfRK-51" target="PZgfyG_mXTi6joqUZfRK-281">
          <mxGeometry relative="1" as="geometry">
            <mxPoint x="1000" y="779" as="targetPoint" />
          </mxGeometry>
        </mxCell>
        <mxCell id="PZgfyG_mXTi6joqUZfRK-51" value="Fetch order-details using RBOX order num" style="rounded=0;whiteSpace=wrap;html=1;fillColor=#FFFFFF;" vertex="1" parent="1">
          <mxGeometry x="870" y="759" width="120" height="40" as="geometry" />
        </mxCell>
        <mxCell id="PZgfyG_mXTi6joqUZfRK-52" style="edgeStyle=orthogonalEdgeStyle;rounded=0;orthogonalLoop=1;jettySize=auto;html=1;exitX=1;exitY=0.5;exitDx=0;exitDy=0;entryX=0.931;entryY=0.003;entryDx=0;entryDy=0;entryPerimeter=0;" edge="1" parent="1" source="PZgfyG_mXTi6joqUZfRK-53" target="PZgfyG_mXTi6joqUZfRK-56">
          <mxGeometry relative="1" as="geometry" />
        </mxCell>
        <mxCell id="PZgfyG_mXTi6joqUZfRK-53" value="Update Remarks in ace_remarks" style="rounded=0;whiteSpace=wrap;html=1;fillColor=#FFFFFF;" vertex="1" parent="1">
          <mxGeometry x="1200" y="759" width="120" height="40" as="geometry" />
        </mxCell>
        <mxCell id="PZgfyG_mXTi6joqUZfRK-54" style="edgeStyle=orthogonalEdgeStyle;rounded=0;orthogonalLoop=1;jettySize=auto;html=1;exitX=1;exitY=0.5;exitDx=0;exitDy=0;entryX=0;entryY=0.5;entryDx=0;entryDy=0;" edge="1" parent="1" source="PZgfyG_mXTi6joqUZfRK-56" target="PZgfyG_mXTi6joqUZfRK-58">
          <mxGeometry relative="1" as="geometry" />
        </mxCell>
        <mxCell id="PZgfyG_mXTi6joqUZfRK-55" style="edgeStyle=none;rounded=0;orthogonalLoop=1;jettySize=auto;html=1;exitX=0.5;exitY=1;exitDx=0;exitDy=0;" edge="1" parent="1" source="PZgfyG_mXTi6joqUZfRK-56" target="PZgfyG_mXTi6joqUZfRK-91">
          <mxGeometry relative="1" as="geometry" />
        </mxCell>
        <mxCell id="PZgfyG_mXTi6joqUZfRK-56" value="Process Unexpected Orders(8)" style="rounded=0;whiteSpace=wrap;html=1;fillColor=#FFFFFF;" vertex="1" parent="1">
          <mxGeometry x="410" y="910" width="120" height="60" as="geometry" />
        </mxCell>
        <mxCell id="PZgfyG_mXTi6joqUZfRK-57" style="edgeStyle=orthogonalEdgeStyle;rounded=0;orthogonalLoop=1;jettySize=auto;html=1;exitX=1;exitY=0.5;exitDx=0;exitDy=0;entryX=0;entryY=0.5;entryDx=0;entryDy=0;" edge="1" parent="1" source="PZgfyG_mXTi6joqUZfRK-58" target="PZgfyG_mXTi6joqUZfRK-294">
          <mxGeometry relative="1" as="geometry" />
        </mxCell>
        <mxCell id="PZgfyG_mXTi6joqUZfRK-58" value="Find if any refund order exists with provided order number.&lt;br&gt;" style="rounded=0;whiteSpace=wrap;html=1;fillColor=#FFFFFF;" vertex="1" parent="1">
          <mxGeometry x="610" y="910" width="120" height="60" as="geometry" />
        </mxCell>
        <mxCell id="PZgfyG_mXTi6joqUZfRK-59" style="edgeStyle=orthogonalEdgeStyle;rounded=0;orthogonalLoop=1;jettySize=auto;html=1;exitX=1;exitY=0.5;exitDx=0;exitDy=0;entryX=0;entryY=0.5;entryDx=0;entryDy=0;" edge="1" parent="1" source="PZgfyG_mXTi6joqUZfRK-60" target="PZgfyG_mXTi6joqUZfRK-64">
          <mxGeometry relative="1" as="geometry">
            <mxPoint x="1070" y="990" as="targetPoint" />
          </mxGeometry>
        </mxCell>
        <mxCell id="PZgfyG_mXTi6joqUZfRK-60" value="Get device details&amp;nbsp;&lt;br&gt;using refund order" style="rounded=0;whiteSpace=wrap;html=1;fillColor=#FFFFFF;" vertex="1" parent="1">
          <mxGeometry x="897" y="910" width="120" height="60" as="geometry" />
        </mxCell>
        <mxCell id="PZgfyG_mXTi6joqUZfRK-61" value="NO" style="edgeStyle=orthogonalEdgeStyle;rounded=0;orthogonalLoop=1;jettySize=auto;html=1;exitX=1;exitY=0.5;exitDx=0;exitDy=0;entryX=0;entryY=0.5;entryDx=0;entryDy=0;" edge="1" parent="1" source="PZgfyG_mXTi6joqUZfRK-64" target="PZgfyG_mXTi6joqUZfRK-66">
          <mxGeometry relative="1" as="geometry">
            <mxPoint x="1310" y="940" as="targetPoint" />
          </mxGeometry>
        </mxCell>
        <mxCell id="PZgfyG_mXTi6joqUZfRK-62" style="edgeStyle=orthogonalEdgeStyle;rounded=0;orthogonalLoop=1;jettySize=auto;html=1;exitX=0.5;exitY=1;exitDx=0;exitDy=0;entryX=0.75;entryY=0;entryDx=0;entryDy=0;" edge="1" parent="1" source="PZgfyG_mXTi6joqUZfRK-64" target="PZgfyG_mXTi6joqUZfRK-91">
          <mxGeometry relative="1" as="geometry">
            <Array as="points">
              <mxPoint x="1120" y="1020" />
              <mxPoint x="513" y="1020" />
            </Array>
          </mxGeometry>
        </mxCell>
        <mxCell id="PZgfyG_mXTi6joqUZfRK-63" value="YES" style="edgeLabel;html=1;align=center;verticalAlign=middle;resizable=0;points=[];" vertex="1" connectable="0" parent="PZgfyG_mXTi6joqUZfRK-62">
          <mxGeometry x="-0.2194" relative="1" as="geometry">
            <mxPoint as="offset" />
          </mxGeometry>
        </mxCell>
        <mxCell id="PZgfyG_mXTi6joqUZfRK-64" value="Device ID matches and PKGR status" style="rhombus;whiteSpace=wrap;html=1;fillColor=#FFFFFF;" vertex="1" parent="1">
          <mxGeometry x="1080" y="900" width="80" height="80" as="geometry" />
        </mxCell>
        <mxCell id="PZgfyG_mXTi6joqUZfRK-65" style="edgeStyle=orthogonalEdgeStyle;rounded=0;orthogonalLoop=1;jettySize=auto;html=1;exitX=1;exitY=0.5;exitDx=0;exitDy=0;entryX=0;entryY=0.5;entryDx=0;entryDy=0;" edge="1" parent="1" source="PZgfyG_mXTi6joqUZfRK-66" target="PZgfyG_mXTi6joqUZfRK-68">
          <mxGeometry relative="1" as="geometry" />
        </mxCell>
        <mxCell id="PZgfyG_mXTi6joqUZfRK-66" value="Try to find &quot;nearly&quot; match" style="rounded=0;whiteSpace=wrap;html=1;fillColor=#FFFFFF;" vertex="1" parent="1">
          <mxGeometry x="1210" y="910" width="120" height="60" as="geometry" />
        </mxCell>
        <mxCell id="PZgfyG_mXTi6joqUZfRK-67" style="edgeStyle=none;rounded=0;orthogonalLoop=1;jettySize=auto;html=1;exitX=1;exitY=0.5;exitDx=0;exitDy=0;entryX=0;entryY=0.5;entryDx=0;entryDy=0;" edge="1" parent="1" source="PZgfyG_mXTi6joqUZfRK-68" target="PZgfyG_mXTi6joqUZfRK-72">
          <mxGeometry relative="1" as="geometry" />
        </mxCell>
        <mxCell id="PZgfyG_mXTi6joqUZfRK-68" value="Get Q/A, drc details(make, model), sku(make/model/pricing), memory" style="rounded=0;whiteSpace=wrap;html=1;fillColor=#FFFFFF;" vertex="1" parent="1">
          <mxGeometry x="1430" y="910" width="150" height="60" as="geometry" />
        </mxCell>
        <mxCell id="PZgfyG_mXTi6joqUZfRK-69" style="edgeStyle=none;rounded=0;orthogonalLoop=1;jettySize=auto;html=1;exitX=1;exitY=0.5;exitDx=0;exitDy=0;entryX=0;entryY=0.5;entryDx=0;entryDy=0;" edge="1" parent="1" source="PZgfyG_mXTi6joqUZfRK-72" target="PZgfyG_mXTi6joqUZfRK-86">
          <mxGeometry relative="1" as="geometry" />
        </mxCell>
        <mxCell id="PZgfyG_mXTi6joqUZfRK-70" value="Yes" style="edgeLabel;html=1;align=center;verticalAlign=middle;resizable=0;points=[];" vertex="1" connectable="0" parent="PZgfyG_mXTi6joqUZfRK-69">
          <mxGeometry x="-0.0879" y="2" relative="1" as="geometry">
            <mxPoint as="offset" />
          </mxGeometry>
        </mxCell>
        <mxCell id="PZgfyG_mXTi6joqUZfRK-71" value="NO" style="edgeStyle=orthogonalEdgeStyle;rounded=0;orthogonalLoop=1;jettySize=auto;html=1;exitX=0.5;exitY=1;exitDx=0;exitDy=0;entryX=0.5;entryY=0;entryDx=0;entryDy=0;" edge="1" parent="1" source="PZgfyG_mXTi6joqUZfRK-72" target="PZgfyG_mXTi6joqUZfRK-77">
          <mxGeometry relative="1" as="geometry" />
        </mxCell>
        <mxCell id="PZgfyG_mXTi6joqUZfRK-72" value="Q&amp;amp;A match, item matches" style="rhombus;whiteSpace=wrap;html=1;fillColor=#f8cecc;strokeColor=#b85450;" vertex="1" parent="1">
          <mxGeometry x="1740" y="799" width="80" height="80" as="geometry" />
        </mxCell>
        <mxCell id="PZgfyG_mXTi6joqUZfRK-73" style="edgeStyle=none;rounded=0;orthogonalLoop=1;jettySize=auto;html=1;exitX=1;exitY=0.5;exitDx=0;exitDy=0;entryX=0;entryY=0.5;entryDx=0;entryDy=0;" edge="1" parent="1" source="PZgfyG_mXTi6joqUZfRK-77" target="PZgfyG_mXTi6joqUZfRK-86">
          <mxGeometry relative="1" as="geometry" />
        </mxCell>
        <mxCell id="PZgfyG_mXTi6joqUZfRK-74" value="Yes" style="edgeLabel;html=1;align=center;verticalAlign=middle;resizable=0;points=[];" vertex="1" connectable="0" parent="PZgfyG_mXTi6joqUZfRK-73">
          <mxGeometry x="-0.4633" relative="1" as="geometry">
            <mxPoint as="offset" />
          </mxGeometry>
        </mxCell>
        <mxCell id="PZgfyG_mXTi6joqUZfRK-75" style="edgeStyle=none;rounded=0;orthogonalLoop=1;jettySize=auto;html=1;exitX=1;exitY=0;exitDx=0;exitDy=0;entryX=0;entryY=0.5;entryDx=0;entryDy=0;entryPerimeter=0;" edge="1" parent="1" source="PZgfyG_mXTi6joqUZfRK-77" target="PZgfyG_mXTi6joqUZfRK-289">
          <mxGeometry relative="1" as="geometry">
            <mxPoint x="1470" y="1126.2295081967213" as="targetPoint" />
          </mxGeometry>
        </mxCell>
        <mxCell id="PZgfyG_mXTi6joqUZfRK-76" value="NO" style="edgeStyle=orthogonalEdgeStyle;rounded=0;orthogonalLoop=1;jettySize=auto;html=1;exitX=0.5;exitY=1;exitDx=0;exitDy=0;entryX=0.5;entryY=0;entryDx=0;entryDy=0;" edge="1" parent="1" source="PZgfyG_mXTi6joqUZfRK-77" target="PZgfyG_mXTi6joqUZfRK-81">
          <mxGeometry relative="1" as="geometry" />
        </mxCell>
        <mxCell id="PZgfyG_mXTi6joqUZfRK-77" value="Q&amp;amp;A don&#39;t match, item matches, no $ value promo" style="rhombus;whiteSpace=wrap;html=1;fillColor=#FFFFFF;" vertex="1" parent="1">
          <mxGeometry x="1715" y="940" width="130" height="90" as="geometry" />
        </mxCell>
        <mxCell id="PZgfyG_mXTi6joqUZfRK-78" style="edgeStyle=none;rounded=0;orthogonalLoop=1;jettySize=auto;html=1;exitX=1;exitY=0.5;exitDx=0;exitDy=0;entryX=0;entryY=0.5;entryDx=0;entryDy=0;" edge="1" parent="1" source="PZgfyG_mXTi6joqUZfRK-81" target="PZgfyG_mXTi6joqUZfRK-86">
          <mxGeometry relative="1" as="geometry" />
        </mxCell>
        <mxCell id="PZgfyG_mXTi6joqUZfRK-79" value="Yes" style="edgeLabel;html=1;align=center;verticalAlign=middle;resizable=0;points=[];" vertex="1" connectable="0" parent="PZgfyG_mXTi6joqUZfRK-78">
          <mxGeometry x="-0.2906" y="2" relative="1" as="geometry">
            <mxPoint x="1" as="offset" />
          </mxGeometry>
        </mxCell>
        <mxCell id="PZgfyG_mXTi6joqUZfRK-80" value="NO" style="edgeStyle=orthogonalEdgeStyle;rounded=0;orthogonalLoop=1;jettySize=auto;html=1;exitX=0.5;exitY=1;exitDx=0;exitDy=0;entryX=0.5;entryY=0;entryDx=0;entryDy=0;" edge="1" parent="1" source="PZgfyG_mXTi6joqUZfRK-81" target="PZgfyG_mXTi6joqUZfRK-84">
          <mxGeometry relative="1" as="geometry" />
        </mxCell>
        <mxCell id="PZgfyG_mXTi6joqUZfRK-81" value="Q&amp;amp;A match, item don&#39;t match make, model match" style="rhombus;whiteSpace=wrap;html=1;fillColor=#f8cecc;strokeColor=#b85450;" vertex="1" parent="1">
          <mxGeometry x="1740" y="1070" width="80" height="80" as="geometry" />
        </mxCell>
        <mxCell id="PZgfyG_mXTi6joqUZfRK-82" value="Yes" style="edgeStyle=none;rounded=0;orthogonalLoop=1;jettySize=auto;html=1;exitX=1;exitY=0.5;exitDx=0;exitDy=0;entryX=0;entryY=0.5;entryDx=0;entryDy=0;" edge="1" parent="1" source="PZgfyG_mXTi6joqUZfRK-84" target="PZgfyG_mXTi6joqUZfRK-86">
          <mxGeometry relative="1" as="geometry">
            <mxPoint x="1610" y="1260" as="targetPoint" />
          </mxGeometry>
        </mxCell>
        <mxCell id="PZgfyG_mXTi6joqUZfRK-83" value="NO" style="edgeStyle=orthogonalEdgeStyle;rounded=0;orthogonalLoop=1;jettySize=auto;html=1;exitX=0.5;exitY=1;exitDx=0;exitDy=0;entryX=0.5;entryY=0;entryDx=0;entryDy=0;" edge="1" parent="1" source="PZgfyG_mXTi6joqUZfRK-84" target="PZgfyG_mXTi6joqUZfRK-301">
          <mxGeometry relative="1" as="geometry" />
        </mxCell>
        <mxCell id="PZgfyG_mXTi6joqUZfRK-84" value="Q&amp;amp;A don&#39;t match, item don&#39;t match match make, model match" style="rhombus;whiteSpace=wrap;html=1;fillColor=#FFFFFF;" vertex="1" parent="1">
          <mxGeometry x="1740" y="1220" width="80" height="80" as="geometry" />
        </mxCell>
        <mxCell id="PZgfyG_mXTi6joqUZfRK-85" style="edgeStyle=orthogonalEdgeStyle;rounded=0;orthogonalLoop=1;jettySize=auto;html=1;exitX=0.5;exitY=1;exitDx=0;exitDy=0;entryX=1;entryY=0;entryDx=0;entryDy=0;" edge="1" parent="1" source="PZgfyG_mXTi6joqUZfRK-86" target="PZgfyG_mXTi6joqUZfRK-301">
          <mxGeometry relative="1" as="geometry">
            <Array as="points">
              <mxPoint x="2110" y="1340" />
              <mxPoint x="1800" y="1340" />
            </Array>
          </mxGeometry>
        </mxCell>
        <mxCell id="PZgfyG_mXTi6joqUZfRK-86" value="tah_match_found = &#39;Y&#39;" style="rounded=0;whiteSpace=wrap;html=1;fillColor=#FFFFFF;" vertex="1" parent="1">
          <mxGeometry x="2050" y="910" width="120" height="60" as="geometry" />
        </mxCell>
        <mxCell id="PZgfyG_mXTi6joqUZfRK-87" style="edgeStyle=orthogonalEdgeStyle;rounded=0;orthogonalLoop=1;jettySize=auto;html=1;exitX=1;exitY=0.5;exitDx=0;exitDy=0;entryX=0;entryY=0.5;entryDx=0;entryDy=0;" edge="1" parent="1" source="PZgfyG_mXTi6joqUZfRK-88" target="PZgfyG_mXTi6joqUZfRK-457">
          <mxGeometry relative="1" as="geometry" />
        </mxCell>
        <mxCell id="PZgfyG_mXTi6joqUZfRK-88" value="send message to ICO_TXN which results in writing to order_exceptions table with a request to create new IS order" style="rounded=0;whiteSpace=wrap;html=1;fillColor=#FFFFFF;" vertex="1" parent="1">
          <mxGeometry x="2065" y="1410" width="120" height="120" as="geometry" />
        </mxCell>
        <mxCell id="PZgfyG_mXTi6joqUZfRK-89" style="edgeStyle=none;rounded=0;orthogonalLoop=1;jettySize=auto;html=1;exitX=1;exitY=0.5;exitDx=0;exitDy=0;entryX=0;entryY=0.5;entryDx=0;entryDy=0;" edge="1" parent="1" source="PZgfyG_mXTi6joqUZfRK-91" target="PZgfyG_mXTi6joqUZfRK-93">
          <mxGeometry relative="1" as="geometry" />
        </mxCell>
        <mxCell id="PZgfyG_mXTi6joqUZfRK-90" style="edgeStyle=orthogonalEdgeStyle;rounded=0;orthogonalLoop=1;jettySize=auto;html=1;exitX=0.5;exitY=1;exitDx=0;exitDy=0;" edge="1" parent="1" source="PZgfyG_mXTi6joqUZfRK-91" target="PZgfyG_mXTi6joqUZfRK-100">
          <mxGeometry relative="1" as="geometry" />
        </mxCell>
        <mxCell id="PZgfyG_mXTi6joqUZfRK-91" value="Relink ABN/CAN orders &lt;b&gt;only for new customers&lt;/b&gt; to order that is not ABN/CAN (9,10)" style="rounded=0;whiteSpace=wrap;html=1;fillColor=#FFFFFF;" vertex="1" parent="1">
          <mxGeometry x="415" y="1805" width="130" height="90" as="geometry" />
        </mxCell>
        <mxCell id="PZgfyG_mXTi6joqUZfRK-92" style="edgeStyle=none;rounded=0;orthogonalLoop=1;jettySize=auto;html=1;exitX=1;exitY=0.5;exitDx=0;exitDy=0;entryX=0;entryY=0.5;entryDx=0;entryDy=0;" edge="1" parent="1" source="PZgfyG_mXTi6joqUZfRK-93" target="PZgfyG_mXTi6joqUZfRK-98">
          <mxGeometry relative="1" as="geometry" />
        </mxCell>
        <mxCell id="PZgfyG_mXTi6joqUZfRK-93" value="Get customer type" style="rounded=0;whiteSpace=wrap;html=1;fillColor=#FFFFFF;" vertex="1" parent="1">
          <mxGeometry x="590" y="1820" width="120" height="60" as="geometry" />
        </mxCell>
        <mxCell id="PZgfyG_mXTi6joqUZfRK-94" style="edgeStyle=none;rounded=0;orthogonalLoop=1;jettySize=auto;html=1;exitX=1;exitY=0.5;exitDx=0;exitDy=0;entryX=0;entryY=0.5;entryDx=0;entryDy=0;" edge="1" parent="1" source="PZgfyG_mXTi6joqUZfRK-98" target="PZgfyG_mXTi6joqUZfRK-102">
          <mxGeometry relative="1" as="geometry" />
        </mxCell>
        <mxCell id="PZgfyG_mXTi6joqUZfRK-95" value="Yes" style="edgeLabel;html=1;align=center;verticalAlign=middle;resizable=0;points=[];" vertex="1" connectable="0" parent="PZgfyG_mXTi6joqUZfRK-94">
          <mxGeometry x="-0.2" y="1" relative="1" as="geometry">
            <mxPoint as="offset" />
          </mxGeometry>
        </mxCell>
        <mxCell id="PZgfyG_mXTi6joqUZfRK-96" style="edgeStyle=orthogonalEdgeStyle;rounded=0;orthogonalLoop=1;jettySize=auto;html=1;exitX=0.5;exitY=1;exitDx=0;exitDy=0;entryX=0.75;entryY=0;entryDx=0;entryDy=0;" edge="1" parent="1" source="PZgfyG_mXTi6joqUZfRK-98" target="PZgfyG_mXTi6joqUZfRK-100">
          <mxGeometry relative="1" as="geometry" />
        </mxCell>
        <mxCell id="PZgfyG_mXTi6joqUZfRK-97" value="NO" style="edgeLabel;html=1;align=center;verticalAlign=middle;resizable=0;points=[];" vertex="1" connectable="0" parent="PZgfyG_mXTi6joqUZfRK-96">
          <mxGeometry x="-0.7447" relative="1" as="geometry">
            <mxPoint y="1" as="offset" />
          </mxGeometry>
        </mxCell>
        <mxCell id="PZgfyG_mXTi6joqUZfRK-98" value="Is NEW Custoemer" style="rhombus;whiteSpace=wrap;html=1;fillColor=#FFFFFF;" vertex="1" parent="1">
          <mxGeometry x="770" y="1810" width="80" height="80" as="geometry" />
        </mxCell>
        <mxCell id="PZgfyG_mXTi6joqUZfRK-99" style="edgeStyle=orthogonalEdgeStyle;rounded=0;orthogonalLoop=1;jettySize=auto;html=1;exitX=1;exitY=0.5;exitDx=0;exitDy=0;entryX=0;entryY=0.5;entryDx=0;entryDy=0;" edge="1" parent="1" source="PZgfyG_mXTi6joqUZfRK-100" target="PZgfyG_mXTi6joqUZfRK-145">
          <mxGeometry relative="1" as="geometry" />
        </mxCell>
        <mxCell id="PZgfyG_mXTi6joqUZfRK-100" value="Handle refund orders(11)" style="rounded=0;whiteSpace=wrap;html=1;fillColor=#FFFFFF;" vertex="1" parent="1">
          <mxGeometry x="420" y="2417" width="120" height="60" as="geometry" />
        </mxCell>
        <mxCell id="PZgfyG_mXTi6joqUZfRK-101" style="edgeStyle=none;rounded=0;orthogonalLoop=1;jettySize=auto;html=1;exitX=1;exitY=0.5;exitDx=0;exitDy=0;" edge="1" parent="1" source="PZgfyG_mXTi6joqUZfRK-102" target="PZgfyG_mXTi6joqUZfRK-108">
          <mxGeometry relative="1" as="geometry" />
        </mxCell>
        <mxCell id="PZgfyG_mXTi6joqUZfRK-102" value="Get dr_status" style="rounded=0;whiteSpace=wrap;html=1;fillColor=#FFFFFF;" vertex="1" parent="1">
          <mxGeometry x="900" y="1820" width="120" height="60" as="geometry" />
        </mxCell>
        <mxCell id="PZgfyG_mXTi6joqUZfRK-103" style="edgeStyle=orthogonalEdgeStyle;rounded=0;orthogonalLoop=1;jettySize=auto;html=1;exitX=0.5;exitY=1;exitDx=0;exitDy=0;entryX=0.75;entryY=0;entryDx=0;entryDy=0;" edge="1" parent="1" source="PZgfyG_mXTi6joqUZfRK-108" target="PZgfyG_mXTi6joqUZfRK-100">
          <mxGeometry relative="1" as="geometry">
            <mxPoint x="510" y="2140" as="targetPoint" />
          </mxGeometry>
        </mxCell>
        <mxCell id="PZgfyG_mXTi6joqUZfRK-104" value="NO" style="edgeLabel;html=1;align=center;verticalAlign=middle;resizable=0;points=[];" vertex="1" connectable="0" parent="PZgfyG_mXTi6joqUZfRK-103">
          <mxGeometry x="-0.8407" y="1" relative="1" as="geometry">
            <mxPoint y="1" as="offset" />
          </mxGeometry>
        </mxCell>
        <mxCell id="PZgfyG_mXTi6joqUZfRK-105" style="edgeStyle=none;rounded=0;orthogonalLoop=1;jettySize=auto;html=1;exitX=1;exitY=0.5;exitDx=0;exitDy=0;entryX=0;entryY=0.5;entryDx=0;entryDy=0;" edge="1" parent="1" source="PZgfyG_mXTi6joqUZfRK-108" target="PZgfyG_mXTi6joqUZfRK-110">
          <mxGeometry relative="1" as="geometry" />
        </mxCell>
        <mxCell id="PZgfyG_mXTi6joqUZfRK-106" value="Yes" style="edgeLabel;html=1;align=center;verticalAlign=middle;resizable=0;points=[];" vertex="1" connectable="0" parent="PZgfyG_mXTi6joqUZfRK-105">
          <mxGeometry x="-0.12" y="-1" relative="1" as="geometry">
            <mxPoint as="offset" />
          </mxGeometry>
        </mxCell>
        <mxCell id="PZgfyG_mXTi6joqUZfRK-107" style="edgeStyle=orthogonalEdgeStyle;rounded=0;orthogonalLoop=1;jettySize=auto;html=1;exitX=0.5;exitY=0;exitDx=0;exitDy=0;entryX=0;entryY=0.5;entryDx=0;entryDy=0;entryPerimeter=0;" edge="1" parent="1" source="PZgfyG_mXTi6joqUZfRK-108" target="PZgfyG_mXTi6joqUZfRK-267">
          <mxGeometry relative="1" as="geometry" />
        </mxCell>
        <mxCell id="PZgfyG_mXTi6joqUZfRK-108" value="Is ABN/CAN" style="rhombus;whiteSpace=wrap;html=1;fillColor=#FFFFFF;" vertex="1" parent="1">
          <mxGeometry x="1080" y="1810" width="80" height="80" as="geometry" />
        </mxCell>
        <mxCell id="PZgfyG_mXTi6joqUZfRK-109" style="edgeStyle=none;rounded=0;orthogonalLoop=1;jettySize=auto;html=1;exitX=1;exitY=0.5;exitDx=0;exitDy=0;entryX=0;entryY=0.5;entryDx=0;entryDy=0;" edge="1" parent="1" source="PZgfyG_mXTi6joqUZfRK-110" target="PZgfyG_mXTi6joqUZfRK-114">
          <mxGeometry relative="1" as="geometry" />
        </mxCell>
        <mxCell id="PZgfyG_mXTi6joqUZfRK-110" value="Looks for recycle device records with device id from PIF and target only NONPKGR records" style="rounded=0;whiteSpace=wrap;html=1;fillColor=#FFFFFF;" vertex="1" parent="1">
          <mxGeometry x="1210" y="1810" width="130" height="80" as="geometry" />
        </mxCell>
        <mxCell id="PZgfyG_mXTi6joqUZfRK-111" value="NO" style="edgeStyle=orthogonalEdgeStyle;rounded=0;orthogonalLoop=1;jettySize=auto;html=1;exitX=0.5;exitY=1;exitDx=0;exitDy=0;entryX=0.75;entryY=0;entryDx=0;entryDy=0;" edge="1" parent="1" source="PZgfyG_mXTi6joqUZfRK-114" target="PZgfyG_mXTi6joqUZfRK-100">
          <mxGeometry relative="1" as="geometry">
            <mxPoint x="970" y="1980" as="targetPoint" />
          </mxGeometry>
        </mxCell>
        <mxCell id="PZgfyG_mXTi6joqUZfRK-112" value="NO" style="edgeLabel;html=1;align=center;verticalAlign=middle;resizable=0;points=[];" vertex="1" connectable="0" parent="PZgfyG_mXTi6joqUZfRK-111">
          <mxGeometry x="-0.8948" y="-4" relative="1" as="geometry">
            <mxPoint y="1" as="offset" />
          </mxGeometry>
        </mxCell>
        <mxCell id="PZgfyG_mXTi6joqUZfRK-113" value="YES" style="edgeStyle=none;rounded=0;orthogonalLoop=1;jettySize=auto;html=1;exitX=1;exitY=0.5;exitDx=0;exitDy=0;entryX=0;entryY=0.5;entryDx=0;entryDy=0;" edge="1" parent="1" source="PZgfyG_mXTi6joqUZfRK-114" target="PZgfyG_mXTi6joqUZfRK-116">
          <mxGeometry relative="1" as="geometry" />
        </mxCell>
        <mxCell id="PZgfyG_mXTi6joqUZfRK-114" value="Records &lt;br&gt;exist" style="rhombus;whiteSpace=wrap;html=1;fillColor=#FFFFFF;" vertex="1" parent="1">
          <mxGeometry x="1380" y="1810" width="80" height="80" as="geometry" />
        </mxCell>
        <mxCell id="PZgfyG_mXTi6joqUZfRK-115" style="edgeStyle=none;rounded=0;orthogonalLoop=1;jettySize=auto;html=1;exitX=1;exitY=0.5;exitDx=0;exitDy=0;" edge="1" parent="1" source="PZgfyG_mXTi6joqUZfRK-116">
          <mxGeometry relative="1" as="geometry">
            <mxPoint x="1690" y="1850" as="targetPoint" />
          </mxGeometry>
        </mxCell>
        <mxCell id="PZgfyG_mXTi6joqUZfRK-116" value="Get ace_ord_details" style="rounded=0;whiteSpace=wrap;html=1;fillColor=#FFFFFF;" vertex="1" parent="1">
          <mxGeometry x="1510" y="1820" width="120" height="60" as="geometry" />
        </mxCell>
        <mxCell id="PZgfyG_mXTi6joqUZfRK-117" style="edgeStyle=none;rounded=0;orthogonalLoop=1;jettySize=auto;html=1;exitX=0.5;exitY=1;exitDx=0;exitDy=0;" edge="1" parent="1" source="PZgfyG_mXTi6joqUZfRK-121" target="PZgfyG_mXTi6joqUZfRK-125">
          <mxGeometry relative="1" as="geometry" />
        </mxCell>
        <mxCell id="PZgfyG_mXTi6joqUZfRK-118" value="NO" style="edgeLabel;html=1;align=center;verticalAlign=middle;resizable=0;points=[];" vertex="1" connectable="0" parent="PZgfyG_mXTi6joqUZfRK-117">
          <mxGeometry x="-0.28" y="-2" relative="1" as="geometry">
            <mxPoint as="offset" />
          </mxGeometry>
        </mxCell>
        <mxCell id="PZgfyG_mXTi6joqUZfRK-119" style="edgeStyle=none;rounded=0;orthogonalLoop=1;jettySize=auto;html=1;exitX=1;exitY=0.5;exitDx=0;exitDy=0;entryX=0;entryY=0.5;entryDx=0;entryDy=0;" edge="1" parent="1" source="PZgfyG_mXTi6joqUZfRK-121" target="PZgfyG_mXTi6joqUZfRK-127">
          <mxGeometry relative="1" as="geometry" />
        </mxCell>
        <mxCell id="PZgfyG_mXTi6joqUZfRK-120" value="YES" style="edgeLabel;html=1;align=center;verticalAlign=middle;resizable=0;points=[];" vertex="1" connectable="0" parent="PZgfyG_mXTi6joqUZfRK-119">
          <mxGeometry x="-0.44" y="1" relative="1" as="geometry">
            <mxPoint as="offset" />
          </mxGeometry>
        </mxCell>
        <mxCell id="PZgfyG_mXTi6joqUZfRK-121" value="Customer_id populated and &amp;gt;0" style="rhombus;whiteSpace=wrap;html=1;fillColor=#FFFFFF;" vertex="1" parent="1">
          <mxGeometry x="1690" y="1810" width="120" height="80" as="geometry" />
        </mxCell>
        <mxCell id="PZgfyG_mXTi6joqUZfRK-122" style="edgeStyle=none;rounded=0;orthogonalLoop=1;jettySize=auto;html=1;exitX=0;exitY=0.5;exitDx=0;exitDy=0;" edge="1" parent="1" source="PZgfyG_mXTi6joqUZfRK-121" target="PZgfyG_mXTi6joqUZfRK-121">
          <mxGeometry relative="1" as="geometry" />
        </mxCell>
        <mxCell id="PZgfyG_mXTi6joqUZfRK-123" style="edgeStyle=orthogonalEdgeStyle;rounded=0;orthogonalLoop=1;jettySize=auto;html=1;exitX=0.5;exitY=0;exitDx=0;exitDy=0;entryX=0.558;entryY=0.983;entryDx=0;entryDy=0;entryPerimeter=0;startArrow=none;" edge="1" parent="1" source="PZgfyG_mXTi6joqUZfRK-142" target="PZgfyG_mXTi6joqUZfRK-127">
          <mxGeometry relative="1" as="geometry" />
        </mxCell>
        <mxCell id="PZgfyG_mXTi6joqUZfRK-124" value="YES" style="edgeLabel;html=1;align=center;verticalAlign=middle;resizable=0;points=[];" vertex="1" connectable="0" parent="PZgfyG_mXTi6joqUZfRK-123">
          <mxGeometry x="-0.0591" y="2" relative="1" as="geometry">
            <mxPoint as="offset" />
          </mxGeometry>
        </mxCell>
        <mxCell id="PZgfyG_mXTi6joqUZfRK-125" value="get customer_id from device_recyle" style="rounded=0;whiteSpace=wrap;html=1;fillColor=#FFFFFF;" vertex="1" parent="1">
          <mxGeometry x="1690" y="1940" width="120" height="60" as="geometry" />
        </mxCell>
        <mxCell id="PZgfyG_mXTi6joqUZfRK-126" style="edgeStyle=none;rounded=0;orthogonalLoop=1;jettySize=auto;html=1;exitX=1;exitY=0.5;exitDx=0;exitDy=0;entryX=0;entryY=0.5;entryDx=0;entryDy=0;" edge="1" parent="1" source="PZgfyG_mXTi6joqUZfRK-127" target="PZgfyG_mXTi6joqUZfRK-130">
          <mxGeometry relative="1" as="geometry" />
        </mxCell>
        <mxCell id="PZgfyG_mXTi6joqUZfRK-127" value="Among IC orders, find newest trade-in less than 180 days old" style="rounded=0;whiteSpace=wrap;html=1;fillColor=#FFFFFF;" vertex="1" parent="1">
          <mxGeometry x="1860" y="1820" width="120" height="60" as="geometry" />
        </mxCell>
        <mxCell id="PZgfyG_mXTi6joqUZfRK-128" value="NO" style="edgeStyle=none;rounded=0;orthogonalLoop=1;jettySize=auto;html=1;exitX=1;exitY=0.5;exitDx=0;exitDy=0;entryX=0;entryY=0.5;entryDx=0;entryDy=0;" edge="1" parent="1" source="PZgfyG_mXTi6joqUZfRK-130" target="PZgfyG_mXTi6joqUZfRK-132">
          <mxGeometry relative="1" as="geometry" />
        </mxCell>
        <mxCell id="PZgfyG_mXTi6joqUZfRK-129" style="edgeStyle=orthogonalEdgeStyle;rounded=0;orthogonalLoop=1;jettySize=auto;html=1;exitX=0.5;exitY=0;exitDx=0;exitDy=0;entryX=0.5;entryY=1;entryDx=0;entryDy=0;" edge="1" parent="1" source="PZgfyG_mXTi6joqUZfRK-130" target="PZgfyG_mXTi6joqUZfRK-139">
          <mxGeometry relative="1" as="geometry" />
        </mxCell>
        <mxCell id="PZgfyG_mXTi6joqUZfRK-130" value="Record found" style="rhombus;whiteSpace=wrap;html=1;fillColor=#FFFFFF;" vertex="1" parent="1">
          <mxGeometry x="2060" y="1810" width="80" height="80" as="geometry" />
        </mxCell>
        <mxCell id="PZgfyG_mXTi6joqUZfRK-131" style="edgeStyle=none;rounded=0;orthogonalLoop=1;jettySize=auto;html=1;exitX=1;exitY=0.5;exitDx=0;exitDy=0;entryX=0;entryY=0.5;entryDx=0;entryDy=0;" edge="1" parent="1" source="PZgfyG_mXTi6joqUZfRK-132" target="PZgfyG_mXTi6joqUZfRK-137">
          <mxGeometry relative="1" as="geometry" />
        </mxCell>
        <mxCell id="PZgfyG_mXTi6joqUZfRK-132" value="&lt;span&gt;Among&amp;nbsp; Non IC orders, find newest trade-in less than 180 days old&lt;/span&gt;" style="rounded=0;whiteSpace=wrap;html=1;fillColor=#FFFFFF;" vertex="1" parent="1">
          <mxGeometry x="2190" y="1820" width="120" height="60" as="geometry" />
        </mxCell>
        <mxCell id="PZgfyG_mXTi6joqUZfRK-133" style="edgeStyle=orthogonalEdgeStyle;rounded=0;orthogonalLoop=1;jettySize=auto;html=1;exitX=0.5;exitY=0;exitDx=0;exitDy=0;entryX=0.5;entryY=1;entryDx=0;entryDy=0;" edge="1" parent="1" source="PZgfyG_mXTi6joqUZfRK-137" target="PZgfyG_mXTi6joqUZfRK-139">
          <mxGeometry relative="1" as="geometry" />
        </mxCell>
        <mxCell id="PZgfyG_mXTi6joqUZfRK-134" value="YES" style="edgeLabel;html=1;align=center;verticalAlign=middle;resizable=0;points=[];" vertex="1" connectable="0" parent="PZgfyG_mXTi6joqUZfRK-133">
          <mxGeometry x="0.7909" y="-1" relative="1" as="geometry">
            <mxPoint as="offset" />
          </mxGeometry>
        </mxCell>
        <mxCell id="PZgfyG_mXTi6joqUZfRK-135" style="edgeStyle=orthogonalEdgeStyle;rounded=0;orthogonalLoop=1;jettySize=auto;html=1;exitX=0.5;exitY=1;exitDx=0;exitDy=0;entryX=0.75;entryY=0;entryDx=0;entryDy=0;" edge="1" parent="1" source="PZgfyG_mXTi6joqUZfRK-137" target="PZgfyG_mXTi6joqUZfRK-100">
          <mxGeometry relative="1" as="geometry" />
        </mxCell>
        <mxCell id="PZgfyG_mXTi6joqUZfRK-136" value="NO" style="edgeLabel;html=1;align=center;verticalAlign=middle;resizable=0;points=[];" vertex="1" connectable="0" parent="PZgfyG_mXTi6joqUZfRK-135">
          <mxGeometry x="-0.9734" relative="1" as="geometry">
            <mxPoint y="1" as="offset" />
          </mxGeometry>
        </mxCell>
        <mxCell id="PZgfyG_mXTi6joqUZfRK-137" value="Record found" style="rhombus;whiteSpace=wrap;html=1;fillColor=#FFFFFF;" vertex="1" parent="1">
          <mxGeometry x="2370" y="1810" width="80" height="80" as="geometry" />
        </mxCell>
        <mxCell id="PZgfyG_mXTi6joqUZfRK-138" style="edgeStyle=orthogonalEdgeStyle;rounded=0;orthogonalLoop=1;jettySize=auto;html=1;exitX=1;exitY=0.5;exitDx=0;exitDy=0;entryX=0;entryY=0.5;entryDx=0;entryDy=0;" edge="1" parent="1" source="PZgfyG_mXTi6joqUZfRK-139" target="PZgfyG_mXTi6joqUZfRK-339">
          <mxGeometry relative="1" as="geometry" />
        </mxCell>
        <mxCell id="PZgfyG_mXTi6joqUZfRK-139" value="Override location/order/item seq from PIF to the ones we found which will be used in subsequent steps" style="rounded=0;whiteSpace=wrap;html=1;fillColor=#FFFFFF;" vertex="1" parent="1">
          <mxGeometry x="2135" y="1610" width="170" height="80" as="geometry" />
        </mxCell>
        <mxCell id="PZgfyG_mXTi6joqUZfRK-140" style="edgeStyle=orthogonalEdgeStyle;rounded=0;orthogonalLoop=1;jettySize=auto;html=1;exitX=0.5;exitY=1;exitDx=0;exitDy=0;entryX=0.75;entryY=0;entryDx=0;entryDy=0;" edge="1" parent="1" target="PZgfyG_mXTi6joqUZfRK-100">
          <mxGeometry relative="1" as="geometry">
            <mxPoint x="510" y="2412" as="targetPoint" />
            <mxPoint x="1930" y="2005" as="sourcePoint" />
            <Array as="points">
              <mxPoint x="1930" y="2155" />
              <mxPoint x="510" y="2155" />
            </Array>
          </mxGeometry>
        </mxCell>
        <mxCell id="PZgfyG_mXTi6joqUZfRK-141" value="NO" style="edgeLabel;html=1;align=center;verticalAlign=middle;resizable=0;points=[];" vertex="1" connectable="0" parent="PZgfyG_mXTi6joqUZfRK-140">
          <mxGeometry x="-0.9393" relative="1" as="geometry">
            <mxPoint y="1" as="offset" />
          </mxGeometry>
        </mxCell>
        <mxCell id="PZgfyG_mXTi6joqUZfRK-142" value="Customer_id populated and &amp;gt;0" style="rhombus;whiteSpace=wrap;html=1;fillColor=#FFFFFF;" vertex="1" parent="1">
          <mxGeometry x="1870" y="1930" width="120" height="80" as="geometry" />
        </mxCell>
        <mxCell id="PZgfyG_mXTi6joqUZfRK-143" value="" style="edgeStyle=orthogonalEdgeStyle;rounded=0;orthogonalLoop=1;jettySize=auto;html=1;exitX=1;exitY=0.5;exitDx=0;exitDy=0;entryX=0;entryY=0.5;entryDx=0;entryDy=0;endArrow=none;" edge="1" parent="1" source="PZgfyG_mXTi6joqUZfRK-125" target="PZgfyG_mXTi6joqUZfRK-142">
          <mxGeometry relative="1" as="geometry">
            <mxPoint x="1810" y="1970" as="sourcePoint" />
            <mxPoint x="1926.96" y="1878.98" as="targetPoint" />
          </mxGeometry>
        </mxCell>
        <mxCell id="PZgfyG_mXTi6joqUZfRK-144" style="edgeStyle=orthogonalEdgeStyle;rounded=0;orthogonalLoop=1;jettySize=auto;html=1;exitX=1;exitY=0.5;exitDx=0;exitDy=0;entryX=0;entryY=0.5;entryDx=0;entryDy=0;" edge="1" parent="1" source="PZgfyG_mXTi6joqUZfRK-145" target="PZgfyG_mXTi6joqUZfRK-148">
          <mxGeometry relative="1" as="geometry" />
        </mxCell>
        <mxCell id="PZgfyG_mXTi6joqUZfRK-145" value="Get if refund order exists" style="rounded=0;whiteSpace=wrap;html=1;fillColor=#FFFFFF;" vertex="1" parent="1">
          <mxGeometry x="620" y="2417" width="120" height="60" as="geometry" />
        </mxCell>
        <mxCell id="PZgfyG_mXTi6joqUZfRK-146" value="YES" style="edgeStyle=orthogonalEdgeStyle;rounded=0;orthogonalLoop=1;jettySize=auto;html=1;exitX=1;exitY=0.5;exitDx=0;exitDy=0;entryX=0;entryY=0.5;entryDx=0;entryDy=0;" edge="1" parent="1" source="PZgfyG_mXTi6joqUZfRK-148" target="PZgfyG_mXTi6joqUZfRK-151">
          <mxGeometry relative="1" as="geometry" />
        </mxCell>
        <mxCell id="PZgfyG_mXTi6joqUZfRK-147" value="NO" style="edgeStyle=orthogonalEdgeStyle;rounded=0;orthogonalLoop=1;jettySize=auto;html=1;exitX=0.5;exitY=1;exitDx=0;exitDy=0;entryX=0.75;entryY=0;entryDx=0;entryDy=0;" edge="1" parent="1" source="PZgfyG_mXTi6joqUZfRK-148" target="PZgfyG_mXTi6joqUZfRK-171">
          <mxGeometry relative="1" as="geometry">
            <mxPoint x="745" y="2537" as="targetPoint" />
            <Array as="points">
              <mxPoint x="845" y="2520" />
              <mxPoint x="510" y="2520" />
            </Array>
          </mxGeometry>
        </mxCell>
        <mxCell id="PZgfyG_mXTi6joqUZfRK-148" value="Is refund order" style="rhombus;whiteSpace=wrap;html=1;fillColor=#FFFFFF;" vertex="1" parent="1">
          <mxGeometry x="805" y="2407" width="80" height="80" as="geometry" />
        </mxCell>
        <mxCell id="PZgfyG_mXTi6joqUZfRK-149" style="edgeStyle=orthogonalEdgeStyle;rounded=0;orthogonalLoop=1;jettySize=auto;html=1;exitX=1;exitY=0.5;exitDx=0;exitDy=0;entryX=0;entryY=0.5;entryDx=0;entryDy=0;" edge="1" parent="1" source="PZgfyG_mXTi6joqUZfRK-151" target="PZgfyG_mXTi6joqUZfRK-155">
          <mxGeometry relative="1" as="geometry" />
        </mxCell>
        <mxCell id="PZgfyG_mXTi6joqUZfRK-150" style="edgeStyle=orthogonalEdgeStyle;rounded=0;orthogonalLoop=1;jettySize=auto;html=1;exitX=0.5;exitY=1;exitDx=0;exitDy=0;entryX=0.5;entryY=0;entryDx=0;entryDy=0;entryPerimeter=0;" edge="1" parent="1" source="PZgfyG_mXTi6joqUZfRK-151" target="PZgfyG_mXTi6joqUZfRK-268">
          <mxGeometry relative="1" as="geometry" />
        </mxCell>
        <mxCell id="PZgfyG_mXTi6joqUZfRK-151" value="Check if TIN, ISP with combo_ind &quot;T&quot;" style="rounded=0;whiteSpace=wrap;html=1;fillColor=#FFFFFF;" vertex="1" parent="1">
          <mxGeometry x="950" y="2417" width="120" height="60" as="geometry" />
        </mxCell>
        <mxCell id="PZgfyG_mXTi6joqUZfRK-152" style="edgeStyle=orthogonalEdgeStyle;rounded=0;orthogonalLoop=1;jettySize=auto;html=1;exitX=0.5;exitY=1;exitDx=0;exitDy=0;entryX=0.25;entryY=0;entryDx=0;entryDy=0;" edge="1" parent="1" source="PZgfyG_mXTi6joqUZfRK-155" target="PZgfyG_mXTi6joqUZfRK-158">
          <mxGeometry relative="1" as="geometry">
            <mxPoint x="1180" y="2527" as="targetPoint" />
          </mxGeometry>
        </mxCell>
        <mxCell id="PZgfyG_mXTi6joqUZfRK-153" value="NO" style="edgeLabel;html=1;align=center;verticalAlign=middle;resizable=0;points=[];" vertex="1" connectable="0" parent="PZgfyG_mXTi6joqUZfRK-152">
          <mxGeometry x="-0.08" relative="1" as="geometry">
            <mxPoint as="offset" />
          </mxGeometry>
        </mxCell>
        <mxCell id="PZgfyG_mXTi6joqUZfRK-154" value="YES" style="edgeStyle=orthogonalEdgeStyle;rounded=0;orthogonalLoop=1;jettySize=auto;html=1;exitX=1;exitY=0.5;exitDx=0;exitDy=0;" edge="1" parent="1" source="PZgfyG_mXTi6joqUZfRK-155" target="PZgfyG_mXTi6joqUZfRK-160">
          <mxGeometry relative="1" as="geometry" />
        </mxCell>
        <mxCell id="PZgfyG_mXTi6joqUZfRK-155" value="Records found" style="rhombus;whiteSpace=wrap;html=1;fillColor=#FFFFFF;" vertex="1" parent="1">
          <mxGeometry x="1140" y="2407" width="80" height="80" as="geometry" />
        </mxCell>
        <mxCell id="PZgfyG_mXTi6joqUZfRK-156" style="edgeStyle=orthogonalEdgeStyle;rounded=0;orthogonalLoop=1;jettySize=auto;html=1;exitX=0;exitY=0.5;exitDx=0;exitDy=0;entryX=1;entryY=0;entryDx=0;entryDy=0;" edge="1" parent="1" source="PZgfyG_mXTi6joqUZfRK-158" target="PZgfyG_mXTi6joqUZfRK-171">
          <mxGeometry relative="1" as="geometry" />
        </mxCell>
        <mxCell id="PZgfyG_mXTi6joqUZfRK-157" value="This join step 12-13 but technically it can directly join Step 14" style="edgeLabel;html=1;align=center;verticalAlign=middle;resizable=0;points=[];" vertex="1" connectable="0" parent="PZgfyG_mXTi6joqUZfRK-156">
          <mxGeometry x="-0.4312" y="2" relative="1" as="geometry">
            <mxPoint as="offset" />
          </mxGeometry>
        </mxCell>
        <mxCell id="PZgfyG_mXTi6joqUZfRK-158" value="Set/mark rf_ord_exist=1&lt;br&gt;This will be used in subsequent processing. Note, in this step(11) the above flag is set in all paths except of non RF orders and R with E order" style="rounded=0;whiteSpace=wrap;html=1;fillColor=#FFFFFF;" vertex="1" parent="1">
          <mxGeometry x="1270" y="2597" width="230" height="150" as="geometry" />
        </mxCell>
        <mxCell id="PZgfyG_mXTi6joqUZfRK-159" style="edgeStyle=orthogonalEdgeStyle;rounded=0;orthogonalLoop=1;jettySize=auto;html=1;exitX=1;exitY=0.5;exitDx=0;exitDy=0;entryX=0;entryY=0.5;entryDx=0;entryDy=0;" edge="1" parent="1" source="PZgfyG_mXTi6joqUZfRK-160" target="PZgfyG_mXTi6joqUZfRK-21">
          <mxGeometry relative="1" as="geometry" />
        </mxCell>
        <mxCell id="PZgfyG_mXTi6joqUZfRK-160" value="Check R/E activity on trade-in. Compare R and E status" style="rounded=0;whiteSpace=wrap;html=1;fillColor=#FFFFFF;" vertex="1" parent="1">
          <mxGeometry x="1280" y="2417" width="120" height="60" as="geometry" />
        </mxCell>
        <mxCell id="PZgfyG_mXTi6joqUZfRK-161" style="edgeStyle=orthogonalEdgeStyle;rounded=0;orthogonalLoop=1;jettySize=auto;html=1;exitX=1;exitY=0.5;exitDx=0;exitDy=0;entryX=0.886;entryY=0.13;entryDx=0;entryDy=0;entryPerimeter=0;" edge="1" parent="1" source="PZgfyG_mXTi6joqUZfRK-163" target="PZgfyG_mXTi6joqUZfRK-171">
          <mxGeometry relative="1" as="geometry">
            <Array as="points">
              <mxPoint x="1870" y="2367" />
              <mxPoint x="1870" y="2764" />
              <mxPoint x="521" y="2764" />
            </Array>
          </mxGeometry>
        </mxCell>
        <mxCell id="PZgfyG_mXTi6joqUZfRK-162" value="YES" style="edgeLabel;html=1;align=center;verticalAlign=middle;resizable=0;points=[];" vertex="1" connectable="0" parent="PZgfyG_mXTi6joqUZfRK-161">
          <mxGeometry x="-0.9362" y="-3" relative="1" as="geometry">
            <mxPoint as="offset" />
          </mxGeometry>
        </mxCell>
        <mxCell id="PZgfyG_mXTi6joqUZfRK-163" value="Is R with E" style="rhombus;whiteSpace=wrap;html=1;fillColor=#FFFFFF;" vertex="1" parent="1">
          <mxGeometry x="1505" y="2327" width="80" height="80" as="geometry" />
        </mxCell>
        <mxCell id="PZgfyG_mXTi6joqUZfRK-164" style="edgeStyle=orthogonalEdgeStyle;rounded=0;orthogonalLoop=1;jettySize=auto;html=1;entryX=0.5;entryY=0;entryDx=0;entryDy=0;exitX=0.5;exitY=1;exitDx=0;exitDy=0;" edge="1" parent="1" source="PZgfyG_mXTi6joqUZfRK-168" target="PZgfyG_mXTi6joqUZfRK-158">
          <mxGeometry relative="1" as="geometry" />
        </mxCell>
        <mxCell id="PZgfyG_mXTi6joqUZfRK-165" style="edgeStyle=orthogonalEdgeStyle;rounded=0;orthogonalLoop=1;jettySize=auto;html=1;exitX=1;exitY=0.5;exitDx=0;exitDy=0;entryX=0;entryY=0.5;entryDx=0;entryDy=0;" edge="1" parent="1" source="PZgfyG_mXTi6joqUZfRK-167" target="PZgfyG_mXTi6joqUZfRK-168">
          <mxGeometry relative="1" as="geometry" />
        </mxCell>
        <mxCell id="PZgfyG_mXTi6joqUZfRK-166" value="Yes" style="edgeLabel;html=1;align=center;verticalAlign=middle;resizable=0;points=[];" vertex="1" connectable="0" parent="PZgfyG_mXTi6joqUZfRK-165">
          <mxGeometry x="-0.6" y="4" relative="1" as="geometry">
            <mxPoint as="offset" />
          </mxGeometry>
        </mxCell>
        <mxCell id="PZgfyG_mXTi6joqUZfRK-167" value="Is R only" style="rhombus;whiteSpace=wrap;html=1;fillColor=#FFFFFF;" vertex="1" parent="1">
          <mxGeometry x="1505" y="2417" width="80" height="80" as="geometry" />
        </mxCell>
        <mxCell id="PZgfyG_mXTi6joqUZfRK-168" value="Update dr_stat = CAN" style="rounded=0;whiteSpace=wrap;html=1;fillColor=#97D077;" vertex="1" parent="1">
          <mxGeometry x="1630" y="2442" width="120" height="30" as="geometry" />
        </mxCell>
        <mxCell id="PZgfyG_mXTi6joqUZfRK-169" style="edgeStyle=none;rounded=0;orthogonalLoop=1;jettySize=auto;html=1;exitX=1;exitY=0.5;exitDx=0;exitDy=0;entryX=0;entryY=0.5;entryDx=0;entryDy=0;" edge="1" parent="1" source="PZgfyG_mXTi6joqUZfRK-171" target="PZgfyG_mXTi6joqUZfRK-173">
          <mxGeometry relative="1" as="geometry" />
        </mxCell>
        <mxCell id="PZgfyG_mXTi6joqUZfRK-170" style="edgeStyle=orthogonalEdgeStyle;rounded=0;orthogonalLoop=1;jettySize=auto;html=1;exitX=0.5;exitY=1;exitDx=0;exitDy=0;" edge="1" parent="1" source="PZgfyG_mXTi6joqUZfRK-171" target="PZgfyG_mXTi6joqUZfRK-185">
          <mxGeometry relative="1" as="geometry" />
        </mxCell>
        <mxCell id="PZgfyG_mXTi6joqUZfRK-171" value="Handle pre-orders(12 and 13)" style="rounded=0;whiteSpace=wrap;html=1;fillColor=#FFFFFF;" vertex="1" parent="1">
          <mxGeometry x="415" y="3120" width="120" height="60" as="geometry" />
        </mxCell>
        <mxCell id="PZgfyG_mXTi6joqUZfRK-172" style="edgeStyle=none;rounded=0;orthogonalLoop=1;jettySize=auto;html=1;exitX=1;exitY=0.5;exitDx=0;exitDy=0;entryX=0;entryY=0.5;entryDx=0;entryDy=0;" edge="1" parent="1" source="PZgfyG_mXTi6joqUZfRK-173" target="PZgfyG_mXTi6joqUZfRK-179">
          <mxGeometry relative="1" as="geometry" />
        </mxCell>
        <mxCell id="PZgfyG_mXTi6joqUZfRK-173" value="Get pre_order details(pre_order status and SED offer promo)" style="rounded=0;whiteSpace=wrap;html=1;fillColor=#FFFFFF;" vertex="1" parent="1">
          <mxGeometry x="610" y="3120" width="120" height="60" as="geometry" />
        </mxCell>
        <mxCell id="PZgfyG_mXTi6joqUZfRK-174" style="edgeStyle=none;rounded=0;orthogonalLoop=1;jettySize=auto;html=1;exitX=1;exitY=0.5;exitDx=0;exitDy=0;entryX=0;entryY=0.5;entryDx=0;entryDy=0;" edge="1" parent="1" source="PZgfyG_mXTi6joqUZfRK-179" target="PZgfyG_mXTi6joqUZfRK-180">
          <mxGeometry relative="1" as="geometry" />
        </mxCell>
        <mxCell id="PZgfyG_mXTi6joqUZfRK-175" value="YES" style="edgeLabel;html=1;align=center;verticalAlign=middle;resizable=0;points=[];" vertex="1" connectable="0" parent="PZgfyG_mXTi6joqUZfRK-174">
          <mxGeometry x="-0.25" y="1" relative="1" as="geometry">
            <mxPoint as="offset" />
          </mxGeometry>
        </mxCell>
        <mxCell id="PZgfyG_mXTi6joqUZfRK-176" style="edgeStyle=none;rounded=0;orthogonalLoop=1;jettySize=auto;html=1;exitX=0.5;exitY=1;exitDx=0;exitDy=0;" edge="1" parent="1" source="PZgfyG_mXTi6joqUZfRK-179" target="PZgfyG_mXTi6joqUZfRK-185">
          <mxGeometry relative="1" as="geometry">
            <mxPoint x="835" y="3230" as="targetPoint" />
          </mxGeometry>
        </mxCell>
        <mxCell id="PZgfyG_mXTi6joqUZfRK-177" value="NO" style="edgeLabel;html=1;align=center;verticalAlign=middle;resizable=0;points=[];" vertex="1" connectable="0" parent="PZgfyG_mXTi6joqUZfRK-176">
          <mxGeometry x="-0.25" relative="1" as="geometry">
            <mxPoint as="offset" />
          </mxGeometry>
        </mxCell>
        <mxCell id="PZgfyG_mXTi6joqUZfRK-178" style="edgeStyle=none;rounded=0;orthogonalLoop=1;jettySize=auto;html=1;exitX=0.5;exitY=0;exitDx=0;exitDy=0;entryX=0.5;entryY=1;entryDx=0;entryDy=0;" edge="1" parent="1" source="PZgfyG_mXTi6joqUZfRK-179" target="PZgfyG_mXTi6joqUZfRK-182">
          <mxGeometry relative="1" as="geometry" />
        </mxCell>
        <mxCell id="PZgfyG_mXTi6joqUZfRK-179" value="Is pre_order with SED?" style="rhombus;whiteSpace=wrap;html=1;fillColor=#FFFFFF;" vertex="1" parent="1">
          <mxGeometry x="795" y="3110" width="80" height="80" as="geometry" />
        </mxCell>
        <mxCell id="PZgfyG_mXTi6joqUZfRK-180" value="Set preorder_exist flag. This will be used in later processing" style="rounded=0;whiteSpace=wrap;html=1;fillColor=#FFFFFF;" vertex="1" parent="1">
          <mxGeometry x="955" y="3122.5" width="180" height="55" as="geometry" />
        </mxCell>
        <mxCell id="PZgfyG_mXTi6joqUZfRK-181" style="edgeStyle=none;rounded=0;orthogonalLoop=1;jettySize=auto;html=1;entryX=0;entryY=0.5;entryDx=0;entryDy=0;" edge="1" parent="1">
          <mxGeometry relative="1" as="geometry">
            <mxPoint x="835" y="3230" as="sourcePoint" />
            <mxPoint x="835" y="3230" as="targetPoint" />
          </mxGeometry>
        </mxCell>
        <mxCell id="PZgfyG_mXTi6joqUZfRK-182" value="Is step 13 executed only for SED promos? or if PO exists?" style="ellipse;whiteSpace=wrap;html=1;fillColor=#FFFFFF;" vertex="1" parent="1">
          <mxGeometry x="855" y="3000" width="120" height="80" as="geometry" />
        </mxCell>
        <mxCell id="PZgfyG_mXTi6joqUZfRK-183" style="edgeStyle=orthogonalEdgeStyle;rounded=0;orthogonalLoop=1;jettySize=auto;html=1;exitX=1;exitY=0.5;exitDx=0;exitDy=0;entryX=0;entryY=0.5;entryDx=0;entryDy=0;" edge="1" parent="1" source="PZgfyG_mXTi6joqUZfRK-185" target="PZgfyG_mXTi6joqUZfRK-187">
          <mxGeometry relative="1" as="geometry" />
        </mxCell>
        <mxCell id="PZgfyG_mXTi6joqUZfRK-184" style="edgeStyle=orthogonalEdgeStyle;rounded=0;orthogonalLoop=1;jettySize=auto;html=1;exitX=0.5;exitY=1;exitDx=0;exitDy=0;entryX=0.5;entryY=0;entryDx=0;entryDy=0;" edge="1" parent="1" source="PZgfyG_mXTi6joqUZfRK-185" target="PZgfyG_mXTi6joqUZfRK-219">
          <mxGeometry relative="1" as="geometry" />
        </mxCell>
        <mxCell id="PZgfyG_mXTi6joqUZfRK-185" value="Handle Refund orders with IC and Retail TAH &lt;b&gt;(14)&lt;br&gt;&lt;br&gt;This step uses flag set in step11&lt;br&gt;&lt;/b&gt;" style="rounded=0;whiteSpace=wrap;html=1;fillColor=#FFFFFF;" vertex="1" parent="1">
          <mxGeometry x="410" y="3550" width="125" height="110" as="geometry" />
        </mxCell>
        <mxCell id="PZgfyG_mXTi6joqUZfRK-186" style="edgeStyle=orthogonalEdgeStyle;rounded=0;orthogonalLoop=1;jettySize=auto;html=1;exitX=1;exitY=0.5;exitDx=0;exitDy=0;entryX=0;entryY=0.5;entryDx=0;entryDy=0;" edge="1" parent="1" source="PZgfyG_mXTi6joqUZfRK-187" target="PZgfyG_mXTi6joqUZfRK-191">
          <mxGeometry relative="1" as="geometry" />
        </mxCell>
        <mxCell id="PZgfyG_mXTi6joqUZfRK-187" value="Find matching DR record using device-id from ora_check_open_Trade" style="rounded=0;whiteSpace=wrap;html=1;fillColor=#FFFFFF;" vertex="1" parent="1">
          <mxGeometry x="580" y="3575" width="180" height="60" as="geometry" />
        </mxCell>
        <mxCell id="PZgfyG_mXTi6joqUZfRK-188" style="edgeStyle=orthogonalEdgeStyle;rounded=0;orthogonalLoop=1;jettySize=auto;html=1;exitX=1;exitY=0.5;exitDx=0;exitDy=0;entryX=0;entryY=0.5;entryDx=0;entryDy=0;" edge="1" parent="1" source="PZgfyG_mXTi6joqUZfRK-191" target="PZgfyG_mXTi6joqUZfRK-193">
          <mxGeometry relative="1" as="geometry" />
        </mxCell>
        <mxCell id="PZgfyG_mXTi6joqUZfRK-189" value="YES" style="edgeLabel;html=1;align=center;verticalAlign=middle;resizable=0;points=[];" vertex="1" connectable="0" parent="PZgfyG_mXTi6joqUZfRK-188">
          <mxGeometry x="-0.3143" y="-1" relative="1" as="geometry">
            <mxPoint as="offset" />
          </mxGeometry>
        </mxCell>
        <mxCell id="PZgfyG_mXTi6joqUZfRK-190" style="edgeStyle=orthogonalEdgeStyle;rounded=0;orthogonalLoop=1;jettySize=auto;html=1;exitX=0.5;exitY=1;exitDx=0;exitDy=0;entryX=0.5;entryY=0;entryDx=0;entryDy=0;" edge="1" parent="1" source="PZgfyG_mXTi6joqUZfRK-191" target="PZgfyG_mXTi6joqUZfRK-344">
          <mxGeometry relative="1" as="geometry">
            <Array as="points">
              <mxPoint x="885" y="3840" />
              <mxPoint x="1068" y="3840" />
            </Array>
          </mxGeometry>
        </mxCell>
        <mxCell id="PZgfyG_mXTi6joqUZfRK-191" value="Record found" style="rhombus;whiteSpace=wrap;html=1;fillColor=#FFFFFF;" vertex="1" parent="1">
          <mxGeometry x="845" y="3565" width="80" height="80" as="geometry" />
        </mxCell>
        <mxCell id="PZgfyG_mXTi6joqUZfRK-192" style="edgeStyle=none;rounded=0;orthogonalLoop=1;jettySize=auto;html=1;exitX=1;exitY=0.5;exitDx=0;exitDy=0;entryX=0;entryY=0.5;entryDx=0;entryDy=0;" edge="1" parent="1" source="PZgfyG_mXTi6joqUZfRK-193" target="PZgfyG_mXTi6joqUZfRK-197">
          <mxGeometry relative="1" as="geometry">
            <mxPoint x="1185.5" y="3630" as="targetPoint" />
          </mxGeometry>
        </mxCell>
        <mxCell id="PZgfyG_mXTi6joqUZfRK-193" value="Get ace_ord_details" style="rounded=0;whiteSpace=wrap;html=1;fillColor=#FFFFFF;" vertex="1" parent="1">
          <mxGeometry x="1000" y="3575" width="120" height="60" as="geometry" />
        </mxCell>
        <mxCell id="PZgfyG_mXTi6joqUZfRK-194" style="edgeStyle=none;rounded=0;orthogonalLoop=1;jettySize=auto;html=1;exitX=0.5;exitY=1;exitDx=0;exitDy=0;" edge="1" parent="1" source="PZgfyG_mXTi6joqUZfRK-197" target="PZgfyG_mXTi6joqUZfRK-201">
          <mxGeometry relative="1" as="geometry" />
        </mxCell>
        <mxCell id="PZgfyG_mXTi6joqUZfRK-195" value="NO" style="edgeLabel;html=1;align=center;verticalAlign=middle;resizable=0;points=[];" vertex="1" connectable="0" parent="PZgfyG_mXTi6joqUZfRK-194">
          <mxGeometry x="-0.28" y="-2" relative="1" as="geometry">
            <mxPoint as="offset" />
          </mxGeometry>
        </mxCell>
        <mxCell id="PZgfyG_mXTi6joqUZfRK-196" style="edgeStyle=none;rounded=0;orthogonalLoop=1;jettySize=auto;html=1;exitX=1;exitY=0.5;exitDx=0;exitDy=0;entryX=0;entryY=0.5;entryDx=0;entryDy=0;" edge="1" parent="1" source="PZgfyG_mXTi6joqUZfRK-197" target="PZgfyG_mXTi6joqUZfRK-203">
          <mxGeometry relative="1" as="geometry" />
        </mxCell>
        <mxCell id="PZgfyG_mXTi6joqUZfRK-197" value="Customer_id populated and &amp;gt;0" style="rhombus;whiteSpace=wrap;html=1;fillColor=#FFFFFF;" vertex="1" parent="1">
          <mxGeometry x="1200" y="3564" width="120" height="80" as="geometry" />
        </mxCell>
        <mxCell id="PZgfyG_mXTi6joqUZfRK-198" style="edgeStyle=none;rounded=0;orthogonalLoop=1;jettySize=auto;html=1;exitX=0;exitY=0.5;exitDx=0;exitDy=0;" edge="1" parent="1" source="PZgfyG_mXTi6joqUZfRK-197" target="PZgfyG_mXTi6joqUZfRK-197">
          <mxGeometry relative="1" as="geometry" />
        </mxCell>
        <mxCell id="PZgfyG_mXTi6joqUZfRK-199" style="edgeStyle=orthogonalEdgeStyle;rounded=0;orthogonalLoop=1;jettySize=auto;html=1;exitX=0.5;exitY=0;exitDx=0;exitDy=0;entryX=0.558;entryY=0.983;entryDx=0;entryDy=0;entryPerimeter=0;startArrow=none;" edge="1" parent="1" source="PZgfyG_mXTi6joqUZfRK-213" target="PZgfyG_mXTi6joqUZfRK-203">
          <mxGeometry relative="1" as="geometry" />
        </mxCell>
        <mxCell id="PZgfyG_mXTi6joqUZfRK-200" value="YES" style="edgeLabel;html=1;align=center;verticalAlign=middle;resizable=0;points=[];" vertex="1" connectable="0" parent="PZgfyG_mXTi6joqUZfRK-199">
          <mxGeometry x="-0.0591" y="2" relative="1" as="geometry">
            <mxPoint as="offset" />
          </mxGeometry>
        </mxCell>
        <mxCell id="PZgfyG_mXTi6joqUZfRK-201" value="get customer_id from device_recyle" style="rounded=0;whiteSpace=wrap;html=1;fillColor=#FFFFFF;" vertex="1" parent="1">
          <mxGeometry x="1200" y="3694" width="120" height="60" as="geometry" />
        </mxCell>
        <mxCell id="PZgfyG_mXTi6joqUZfRK-202" style="edgeStyle=none;rounded=0;orthogonalLoop=1;jettySize=auto;html=1;exitX=1;exitY=0.5;exitDx=0;exitDy=0;entryX=0;entryY=0.5;entryDx=0;entryDy=0;" edge="1" parent="1" source="PZgfyG_mXTi6joqUZfRK-203" target="PZgfyG_mXTi6joqUZfRK-206">
          <mxGeometry relative="1" as="geometry" />
        </mxCell>
        <mxCell id="PZgfyG_mXTi6joqUZfRK-203" value="Among IC orders, find newest trade-in less than 180 days old" style="rounded=0;whiteSpace=wrap;html=1;fillColor=#FFFFFF;" vertex="1" parent="1">
          <mxGeometry x="1370" y="3574" width="120" height="60" as="geometry" />
        </mxCell>
        <mxCell id="PZgfyG_mXTi6joqUZfRK-204" value="NO" style="edgeStyle=none;rounded=0;orthogonalLoop=1;jettySize=auto;html=1;exitX=1;exitY=0.5;exitDx=0;exitDy=0;entryX=0;entryY=0.5;entryDx=0;entryDy=0;" edge="1" parent="1" source="PZgfyG_mXTi6joqUZfRK-206" target="PZgfyG_mXTi6joqUZfRK-208">
          <mxGeometry relative="1" as="geometry" />
        </mxCell>
        <mxCell id="PZgfyG_mXTi6joqUZfRK-205" value="YES" style="edgeStyle=orthogonalEdgeStyle;rounded=0;orthogonalLoop=1;jettySize=auto;html=1;exitX=0.5;exitY=0;exitDx=0;exitDy=0;entryX=0.5;entryY=1;entryDx=0;entryDy=0;" edge="1" parent="1" source="PZgfyG_mXTi6joqUZfRK-206" target="PZgfyG_mXTi6joqUZfRK-217">
          <mxGeometry relative="1" as="geometry" />
        </mxCell>
        <mxCell id="PZgfyG_mXTi6joqUZfRK-206" value="Record found" style="rhombus;whiteSpace=wrap;html=1;fillColor=#FFFFFF;" vertex="1" parent="1">
          <mxGeometry x="1570" y="3564" width="80" height="80" as="geometry" />
        </mxCell>
        <mxCell id="PZgfyG_mXTi6joqUZfRK-207" style="edgeStyle=none;rounded=0;orthogonalLoop=1;jettySize=auto;html=1;exitX=1;exitY=0.5;exitDx=0;exitDy=0;entryX=0;entryY=0.5;entryDx=0;entryDy=0;" edge="1" parent="1" source="PZgfyG_mXTi6joqUZfRK-208" target="PZgfyG_mXTi6joqUZfRK-211">
          <mxGeometry relative="1" as="geometry" />
        </mxCell>
        <mxCell id="PZgfyG_mXTi6joqUZfRK-208" value="&lt;span&gt;Among&amp;nbsp; Non IC orders, find newest trade-in less than 180 days old&lt;/span&gt;" style="rounded=0;whiteSpace=wrap;html=1;fillColor=#FFFFFF;" vertex="1" parent="1">
          <mxGeometry x="1700" y="3574" width="120" height="60" as="geometry" />
        </mxCell>
        <mxCell id="PZgfyG_mXTi6joqUZfRK-209" value="YES" style="edgeStyle=orthogonalEdgeStyle;rounded=0;orthogonalLoop=1;jettySize=auto;html=1;exitX=0.5;exitY=0;exitDx=0;exitDy=0;entryX=0.5;entryY=1;entryDx=0;entryDy=0;" edge="1" parent="1" source="PZgfyG_mXTi6joqUZfRK-211" target="PZgfyG_mXTi6joqUZfRK-217">
          <mxGeometry relative="1" as="geometry" />
        </mxCell>
        <mxCell id="PZgfyG_mXTi6joqUZfRK-210" style="edgeStyle=orthogonalEdgeStyle;rounded=0;orthogonalLoop=1;jettySize=auto;html=1;exitX=0.5;exitY=1;exitDx=0;exitDy=0;entryX=0.5;entryY=0;entryDx=0;entryDy=0;" edge="1" parent="1" source="PZgfyG_mXTi6joqUZfRK-211" target="PZgfyG_mXTi6joqUZfRK-344">
          <mxGeometry relative="1" as="geometry">
            <Array as="points">
              <mxPoint x="1920" y="3840" />
              <mxPoint x="1068" y="3840" />
            </Array>
          </mxGeometry>
        </mxCell>
        <mxCell id="PZgfyG_mXTi6joqUZfRK-211" value="Record found" style="rhombus;whiteSpace=wrap;html=1;fillColor=#FFFFFF;" vertex="1" parent="1">
          <mxGeometry x="1880" y="3564" width="80" height="80" as="geometry" />
        </mxCell>
        <mxCell id="PZgfyG_mXTi6joqUZfRK-212" style="edgeStyle=orthogonalEdgeStyle;rounded=0;orthogonalLoop=1;jettySize=auto;html=1;exitX=0.5;exitY=1;exitDx=0;exitDy=0;entryX=0.5;entryY=0;entryDx=0;entryDy=0;" edge="1" parent="1" source="PZgfyG_mXTi6joqUZfRK-213" target="PZgfyG_mXTi6joqUZfRK-344">
          <mxGeometry relative="1" as="geometry" />
        </mxCell>
        <mxCell id="PZgfyG_mXTi6joqUZfRK-213" value="Customer_id populated and &amp;gt;0" style="rhombus;whiteSpace=wrap;html=1;fillColor=#FFFFFF;" vertex="1" parent="1">
          <mxGeometry x="1380" y="3684" width="120" height="80" as="geometry" />
        </mxCell>
        <mxCell id="PZgfyG_mXTi6joqUZfRK-214" value="" style="edgeStyle=orthogonalEdgeStyle;rounded=0;orthogonalLoop=1;jettySize=auto;html=1;exitX=1;exitY=0.5;exitDx=0;exitDy=0;entryX=0;entryY=0.5;entryDx=0;entryDy=0;endArrow=none;" edge="1" parent="1" source="PZgfyG_mXTi6joqUZfRK-201" target="PZgfyG_mXTi6joqUZfRK-213">
          <mxGeometry relative="1" as="geometry">
            <mxPoint x="1320" y="3724" as="sourcePoint" />
            <mxPoint x="1436.96" y="3632.98" as="targetPoint" />
          </mxGeometry>
        </mxCell>
        <mxCell id="PZgfyG_mXTi6joqUZfRK-215" style="edgeStyle=orthogonalEdgeStyle;rounded=0;orthogonalLoop=1;jettySize=auto;html=1;exitX=0.5;exitY=0;exitDx=0;exitDy=0;entryX=0.5;entryY=1;entryDx=0;entryDy=0;" edge="1" parent="1" source="PZgfyG_mXTi6joqUZfRK-217" target="PZgfyG_mXTi6joqUZfRK-312">
          <mxGeometry relative="1" as="geometry" />
        </mxCell>
        <mxCell id="PZgfyG_mXTi6joqUZfRK-216" style="edgeStyle=orthogonalEdgeStyle;rounded=0;orthogonalLoop=1;jettySize=auto;html=1;exitX=1;exitY=0.5;exitDx=0;exitDy=0;entryX=0.5;entryY=0;entryDx=0;entryDy=0;" edge="1" parent="1" source="PZgfyG_mXTi6joqUZfRK-217" target="PZgfyG_mXTi6joqUZfRK-314">
          <mxGeometry relative="1" as="geometry" />
        </mxCell>
        <mxCell id="PZgfyG_mXTi6joqUZfRK-217" value="&lt;span&gt;Override location/order/item seq from PIF to the ones we found which will be used in subsequent steps&lt;/span&gt;" style="rounded=0;whiteSpace=wrap;html=1;" vertex="1" parent="1">
          <mxGeometry x="1630" y="3390" width="220" height="90" as="geometry" />
        </mxCell>
        <mxCell id="PZgfyG_mXTi6joqUZfRK-218" style="edgeStyle=orthogonalEdgeStyle;rounded=0;orthogonalLoop=1;jettySize=auto;html=1;exitX=1;exitY=0.5;exitDx=0;exitDy=0;entryX=0;entryY=0.5;entryDx=0;entryDy=0;" edge="1" parent="1" source="PZgfyG_mXTi6joqUZfRK-219" target="PZgfyG_mXTi6joqUZfRK-221">
          <mxGeometry relative="1" as="geometry" />
        </mxCell>
        <mxCell id="PZgfyG_mXTi6joqUZfRK-219" value="Handle cancelled &lt;b&gt;pre-orders(15) &lt;/b&gt;with IC and&amp;nbsp; TAH" style="rounded=0;whiteSpace=wrap;html=1;fillColor=#FFFFFF;" vertex="1" parent="1">
          <mxGeometry x="410" y="4380" width="120" height="60" as="geometry" />
        </mxCell>
        <mxCell id="PZgfyG_mXTi6joqUZfRK-220" style="edgeStyle=orthogonalEdgeStyle;rounded=0;orthogonalLoop=1;jettySize=auto;html=1;exitX=1;exitY=0.5;exitDx=0;exitDy=0;entryX=0;entryY=0.5;entryDx=0;entryDy=0;" edge="1" parent="1" source="PZgfyG_mXTi6joqUZfRK-221" target="PZgfyG_mXTi6joqUZfRK-226">
          <mxGeometry relative="1" as="geometry" />
        </mxCell>
        <mxCell id="PZgfyG_mXTi6joqUZfRK-221" value="Find matching DR record using device-id from ora_check_open_Trade and look for non PKGR records" style="rounded=0;whiteSpace=wrap;html=1;fillColor=#FFFFFF;" vertex="1" parent="1">
          <mxGeometry x="590" y="4380" width="180" height="60" as="geometry" />
        </mxCell>
        <mxCell id="PZgfyG_mXTi6joqUZfRK-222" style="edgeStyle=orthogonalEdgeStyle;rounded=0;orthogonalLoop=1;jettySize=auto;html=1;exitX=0.5;exitY=1;exitDx=0;exitDy=0;entryX=0.5;entryY=0;entryDx=0;entryDy=0;" edge="1" parent="1" source="PZgfyG_mXTi6joqUZfRK-226" target="PZgfyG_mXTi6joqUZfRK-347">
          <mxGeometry relative="1" as="geometry">
            <mxPoint x="920" y="4530" as="targetPoint" />
          </mxGeometry>
        </mxCell>
        <mxCell id="PZgfyG_mXTi6joqUZfRK-223" value="NO" style="edgeLabel;html=1;align=center;verticalAlign=middle;resizable=0;points=[];" vertex="1" connectable="0" parent="PZgfyG_mXTi6joqUZfRK-222">
          <mxGeometry x="-0.15" y="2" relative="1" as="geometry">
            <mxPoint as="offset" />
          </mxGeometry>
        </mxCell>
        <mxCell id="PZgfyG_mXTi6joqUZfRK-224" style="edgeStyle=orthogonalEdgeStyle;rounded=0;orthogonalLoop=1;jettySize=auto;html=1;exitX=1;exitY=0.5;exitDx=0;exitDy=0;entryX=0;entryY=0.5;entryDx=0;entryDy=0;" edge="1" parent="1" source="PZgfyG_mXTi6joqUZfRK-226" target="PZgfyG_mXTi6joqUZfRK-228">
          <mxGeometry relative="1" as="geometry" />
        </mxCell>
        <mxCell id="PZgfyG_mXTi6joqUZfRK-225" value="YES" style="edgeLabel;html=1;align=center;verticalAlign=middle;resizable=0;points=[];" vertex="1" connectable="0" parent="PZgfyG_mXTi6joqUZfRK-224">
          <mxGeometry x="-0.3143" y="-1" relative="1" as="geometry">
            <mxPoint as="offset" />
          </mxGeometry>
        </mxCell>
        <mxCell id="PZgfyG_mXTi6joqUZfRK-226" value="Record found" style="rhombus;whiteSpace=wrap;html=1;fillColor=#FFFFFF;" vertex="1" parent="1">
          <mxGeometry x="875" y="4370" width="80" height="80" as="geometry" />
        </mxCell>
        <mxCell id="PZgfyG_mXTi6joqUZfRK-227" style="edgeStyle=none;rounded=0;orthogonalLoop=1;jettySize=auto;html=1;exitX=1;exitY=0.5;exitDx=0;exitDy=0;" edge="1" parent="1" source="PZgfyG_mXTi6joqUZfRK-228">
          <mxGeometry relative="1" as="geometry">
            <mxPoint x="1210" y="4410" as="targetPoint" />
          </mxGeometry>
        </mxCell>
        <mxCell id="PZgfyG_mXTi6joqUZfRK-228" value="Get ace_ord_details" style="rounded=0;whiteSpace=wrap;html=1;fillColor=#FFFFFF;" vertex="1" parent="1">
          <mxGeometry x="1030" y="4380" width="120" height="60" as="geometry" />
        </mxCell>
        <mxCell id="PZgfyG_mXTi6joqUZfRK-229" style="edgeStyle=none;rounded=0;orthogonalLoop=1;jettySize=auto;html=1;exitX=0.5;exitY=1;exitDx=0;exitDy=0;" edge="1" parent="1" source="PZgfyG_mXTi6joqUZfRK-232" target="PZgfyG_mXTi6joqUZfRK-236">
          <mxGeometry relative="1" as="geometry" />
        </mxCell>
        <mxCell id="PZgfyG_mXTi6joqUZfRK-230" value="NO" style="edgeLabel;html=1;align=center;verticalAlign=middle;resizable=0;points=[];" vertex="1" connectable="0" parent="PZgfyG_mXTi6joqUZfRK-229">
          <mxGeometry x="-0.28" y="-2" relative="1" as="geometry">
            <mxPoint as="offset" />
          </mxGeometry>
        </mxCell>
        <mxCell id="PZgfyG_mXTi6joqUZfRK-231" style="edgeStyle=none;rounded=0;orthogonalLoop=1;jettySize=auto;html=1;exitX=1;exitY=0.5;exitDx=0;exitDy=0;entryX=0;entryY=0.5;entryDx=0;entryDy=0;" edge="1" parent="1" source="PZgfyG_mXTi6joqUZfRK-232" target="PZgfyG_mXTi6joqUZfRK-238">
          <mxGeometry relative="1" as="geometry" />
        </mxCell>
        <mxCell id="PZgfyG_mXTi6joqUZfRK-232" value="Customer_id populated and &amp;gt;0" style="rhombus;whiteSpace=wrap;html=1;fillColor=#FFFFFF;" vertex="1" parent="1">
          <mxGeometry x="1210" y="4370" width="120" height="80" as="geometry" />
        </mxCell>
        <mxCell id="PZgfyG_mXTi6joqUZfRK-233" style="edgeStyle=none;rounded=0;orthogonalLoop=1;jettySize=auto;html=1;exitX=0;exitY=0.5;exitDx=0;exitDy=0;" edge="1" parent="1" source="PZgfyG_mXTi6joqUZfRK-232" target="PZgfyG_mXTi6joqUZfRK-232">
          <mxGeometry relative="1" as="geometry" />
        </mxCell>
        <mxCell id="PZgfyG_mXTi6joqUZfRK-234" style="edgeStyle=orthogonalEdgeStyle;rounded=0;orthogonalLoop=1;jettySize=auto;html=1;exitX=0.5;exitY=0;exitDx=0;exitDy=0;entryX=0.558;entryY=0.983;entryDx=0;entryDy=0;entryPerimeter=0;startArrow=none;" edge="1" parent="1" source="PZgfyG_mXTi6joqUZfRK-250" target="PZgfyG_mXTi6joqUZfRK-238">
          <mxGeometry relative="1" as="geometry" />
        </mxCell>
        <mxCell id="PZgfyG_mXTi6joqUZfRK-235" value="YES" style="edgeLabel;html=1;align=center;verticalAlign=middle;resizable=0;points=[];" vertex="1" connectable="0" parent="PZgfyG_mXTi6joqUZfRK-234">
          <mxGeometry x="-0.0591" y="2" relative="1" as="geometry">
            <mxPoint as="offset" />
          </mxGeometry>
        </mxCell>
        <mxCell id="PZgfyG_mXTi6joqUZfRK-236" value="get customer_id from device_recyle" style="rounded=0;whiteSpace=wrap;html=1;fillColor=#FFFFFF;" vertex="1" parent="1">
          <mxGeometry x="1210" y="4500" width="120" height="60" as="geometry" />
        </mxCell>
        <mxCell id="PZgfyG_mXTi6joqUZfRK-237" style="edgeStyle=none;rounded=0;orthogonalLoop=1;jettySize=auto;html=1;exitX=1;exitY=0.5;exitDx=0;exitDy=0;entryX=0;entryY=0.5;entryDx=0;entryDy=0;" edge="1" parent="1" source="PZgfyG_mXTi6joqUZfRK-238" target="PZgfyG_mXTi6joqUZfRK-241">
          <mxGeometry relative="1" as="geometry" />
        </mxCell>
        <mxCell id="PZgfyG_mXTi6joqUZfRK-238" value="Among IC orders, find newest trade-in less than 180 days old" style="rounded=0;whiteSpace=wrap;html=1;fillColor=#FFFFFF;" vertex="1" parent="1">
          <mxGeometry x="1380" y="4380" width="120" height="60" as="geometry" />
        </mxCell>
        <mxCell id="PZgfyG_mXTi6joqUZfRK-239" value="NO" style="edgeStyle=none;rounded=0;orthogonalLoop=1;jettySize=auto;html=1;exitX=1;exitY=0.5;exitDx=0;exitDy=0;entryX=0;entryY=0.5;entryDx=0;entryDy=0;" edge="1" parent="1" source="PZgfyG_mXTi6joqUZfRK-241" target="PZgfyG_mXTi6joqUZfRK-243">
          <mxGeometry relative="1" as="geometry" />
        </mxCell>
        <mxCell id="PZgfyG_mXTi6joqUZfRK-240" style="edgeStyle=orthogonalEdgeStyle;rounded=0;orthogonalLoop=1;jettySize=auto;html=1;exitX=0.5;exitY=1;exitDx=0;exitDy=0;entryX=0.5;entryY=0;entryDx=0;entryDy=0;" edge="1" parent="1" source="PZgfyG_mXTi6joqUZfRK-241" target="PZgfyG_mXTi6joqUZfRK-253">
          <mxGeometry relative="1" as="geometry">
            <mxPoint x="1770" y="4540" as="targetPoint" />
          </mxGeometry>
        </mxCell>
        <mxCell id="PZgfyG_mXTi6joqUZfRK-241" value="Record found" style="rhombus;whiteSpace=wrap;html=1;fillColor=#FFFFFF;" vertex="1" parent="1">
          <mxGeometry x="1580" y="4370" width="80" height="80" as="geometry" />
        </mxCell>
        <mxCell id="PZgfyG_mXTi6joqUZfRK-242" style="edgeStyle=none;rounded=0;orthogonalLoop=1;jettySize=auto;html=1;exitX=1;exitY=0.5;exitDx=0;exitDy=0;entryX=0;entryY=0.5;entryDx=0;entryDy=0;" edge="1" parent="1" source="PZgfyG_mXTi6joqUZfRK-243" target="PZgfyG_mXTi6joqUZfRK-247">
          <mxGeometry relative="1" as="geometry" />
        </mxCell>
        <mxCell id="PZgfyG_mXTi6joqUZfRK-243" value="&lt;span&gt;Among&amp;nbsp; Non IC orders, find newest trade-in less than 180 days old&lt;/span&gt;" style="rounded=0;whiteSpace=wrap;html=1;fillColor=#FFFFFF;" vertex="1" parent="1">
          <mxGeometry x="1710" y="4380" width="120" height="60" as="geometry" />
        </mxCell>
        <mxCell id="PZgfyG_mXTi6joqUZfRK-244" style="edgeStyle=orthogonalEdgeStyle;rounded=0;orthogonalLoop=1;jettySize=auto;html=1;exitX=0.5;exitY=1;exitDx=0;exitDy=0;entryX=0.5;entryY=0;entryDx=0;entryDy=0;" edge="1" parent="1" source="PZgfyG_mXTi6joqUZfRK-247" target="PZgfyG_mXTi6joqUZfRK-253">
          <mxGeometry relative="1" as="geometry">
            <mxPoint x="1771.9699999999998" y="4541.04" as="targetPoint" />
          </mxGeometry>
        </mxCell>
        <mxCell id="PZgfyG_mXTi6joqUZfRK-245" value="YES" style="edgeLabel;html=1;align=center;verticalAlign=middle;resizable=0;points=[];" vertex="1" connectable="0" parent="PZgfyG_mXTi6joqUZfRK-244">
          <mxGeometry x="0.7909" y="-1" relative="1" as="geometry">
            <mxPoint as="offset" />
          </mxGeometry>
        </mxCell>
        <mxCell id="PZgfyG_mXTi6joqUZfRK-246" value="NO" style="edgeStyle=orthogonalEdgeStyle;rounded=0;orthogonalLoop=1;jettySize=auto;html=1;exitX=1;exitY=0.5;exitDx=0;exitDy=0;entryX=0.5;entryY=1;entryDx=0;entryDy=0;" edge="1" parent="1" source="PZgfyG_mXTi6joqUZfRK-247" target="PZgfyG_mXTi6joqUZfRK-450">
          <mxGeometry relative="1" as="geometry">
            <Array as="points">
              <mxPoint x="2170" y="4410" />
              <mxPoint x="2170" y="5010" />
              <mxPoint x="1188" y="5010" />
            </Array>
          </mxGeometry>
        </mxCell>
        <mxCell id="PZgfyG_mXTi6joqUZfRK-247" value="Record found" style="rhombus;whiteSpace=wrap;html=1;fillColor=#FFFFFF;" vertex="1" parent="1">
          <mxGeometry x="1890" y="4370" width="80" height="80" as="geometry" />
        </mxCell>
        <mxCell id="PZgfyG_mXTi6joqUZfRK-248" style="edgeStyle=orthogonalEdgeStyle;rounded=0;orthogonalLoop=1;jettySize=auto;html=1;exitX=1;exitY=0.5;exitDx=0;exitDy=0;entryX=1;entryY=0.25;entryDx=0;entryDy=0;" edge="1" parent="1" source="PZgfyG_mXTi6joqUZfRK-250" target="PZgfyG_mXTi6joqUZfRK-450">
          <mxGeometry relative="1" as="geometry">
            <mxPoint x="1550" y="4532" as="targetPoint" />
            <Array as="points">
              <mxPoint x="1510" y="4530" />
              <mxPoint x="1510" y="4700" />
              <mxPoint x="1248" y="4700" />
            </Array>
          </mxGeometry>
        </mxCell>
        <mxCell id="PZgfyG_mXTi6joqUZfRK-249" value="NO" style="edgeLabel;html=1;align=center;verticalAlign=middle;resizable=0;points=[];" vertex="1" connectable="0" parent="PZgfyG_mXTi6joqUZfRK-248">
          <mxGeometry x="-0.2581" y="1" relative="1" as="geometry">
            <mxPoint as="offset" />
          </mxGeometry>
        </mxCell>
        <mxCell id="PZgfyG_mXTi6joqUZfRK-250" value="Customer_id populated and &amp;gt;0" style="rhombus;whiteSpace=wrap;html=1;fillColor=#FFFFFF;" vertex="1" parent="1">
          <mxGeometry x="1370" y="4490" width="120" height="80" as="geometry" />
        </mxCell>
        <mxCell id="PZgfyG_mXTi6joqUZfRK-251" value="" style="edgeStyle=orthogonalEdgeStyle;rounded=0;orthogonalLoop=1;jettySize=auto;html=1;exitX=1;exitY=0.5;exitDx=0;exitDy=0;entryX=0;entryY=0.5;entryDx=0;entryDy=0;endArrow=none;" edge="1" parent="1" source="PZgfyG_mXTi6joqUZfRK-236" target="PZgfyG_mXTi6joqUZfRK-250">
          <mxGeometry relative="1" as="geometry">
            <mxPoint x="1330" y="4530" as="sourcePoint" />
            <mxPoint x="1446.96" y="4438.98" as="targetPoint" />
          </mxGeometry>
        </mxCell>
        <mxCell id="PZgfyG_mXTi6joqUZfRK-252" style="edgeStyle=orthogonalEdgeStyle;rounded=0;orthogonalLoop=1;jettySize=auto;html=1;exitX=0.5;exitY=1;exitDx=0;exitDy=0;entryX=0.5;entryY=0;entryDx=0;entryDy=0;" edge="1" parent="1" source="PZgfyG_mXTi6joqUZfRK-253" target="PZgfyG_mXTi6joqUZfRK-257">
          <mxGeometry relative="1" as="geometry" />
        </mxCell>
        <mxCell id="PZgfyG_mXTi6joqUZfRK-253" value="Look for Preorders with new order number found&lt;br&gt;Execute po_status nad ora_pobo_icon and get status &lt;b&gt;(15.e)&lt;/b&gt;" style="rounded=0;whiteSpace=wrap;html=1;" vertex="1" parent="1">
          <mxGeometry x="1670" y="4540" width="220" height="60" as="geometry" />
        </mxCell>
        <mxCell id="PZgfyG_mXTi6joqUZfRK-254" value="NO" style="edgeStyle=orthogonalEdgeStyle;rounded=0;orthogonalLoop=1;jettySize=auto;html=1;exitX=0.5;exitY=1;exitDx=0;exitDy=0;entryX=0.5;entryY=0;entryDx=0;entryDy=0;" edge="1" parent="1" source="PZgfyG_mXTi6joqUZfRK-257" target="PZgfyG_mXTi6joqUZfRK-259">
          <mxGeometry relative="1" as="geometry">
            <mxPoint x="1780" y="4780" as="targetPoint" />
          </mxGeometry>
        </mxCell>
        <mxCell id="PZgfyG_mXTi6joqUZfRK-255" style="edgeStyle=orthogonalEdgeStyle;rounded=0;orthogonalLoop=1;jettySize=auto;html=1;exitX=0;exitY=0.5;exitDx=0;exitDy=0;entryX=1;entryY=0.75;entryDx=0;entryDy=0;" edge="1" parent="1" source="PZgfyG_mXTi6joqUZfRK-257" target="PZgfyG_mXTi6joqUZfRK-450">
          <mxGeometry relative="1" as="geometry" />
        </mxCell>
        <mxCell id="PZgfyG_mXTi6joqUZfRK-256" value="YES" style="edgeLabel;html=1;align=center;verticalAlign=middle;resizable=0;points=[];" vertex="1" connectable="0" parent="PZgfyG_mXTi6joqUZfRK-255">
          <mxGeometry x="-0.6311" y="1" relative="1" as="geometry">
            <mxPoint as="offset" />
          </mxGeometry>
        </mxCell>
        <mxCell id="PZgfyG_mXTi6joqUZfRK-257" value="DR STATUS&lt;br&gt;X(CANCELLED)" style="rhombus;whiteSpace=wrap;html=1;" vertex="1" parent="1">
          <mxGeometry x="1700" y="4640" width="160" height="100" as="geometry" />
        </mxCell>
        <mxCell id="PZgfyG_mXTi6joqUZfRK-258" style="edgeStyle=orthogonalEdgeStyle;rounded=0;orthogonalLoop=1;jettySize=auto;html=1;exitX=0.5;exitY=1;exitDx=0;exitDy=0;entryX=0.5;entryY=0;entryDx=0;entryDy=0;" edge="1" parent="1" source="PZgfyG_mXTi6joqUZfRK-259" target="PZgfyG_mXTi6joqUZfRK-346">
          <mxGeometry relative="1" as="geometry" />
        </mxCell>
        <mxCell id="PZgfyG_mXTi6joqUZfRK-259" value="&lt;span&gt;Override location/order/item seq from PIF to the ones we found which will be used in subsequent steps&lt;/span&gt;" style="rounded=0;whiteSpace=wrap;html=1;" vertex="1" parent="1">
          <mxGeometry x="1670" y="4780" width="220" height="90" as="geometry" />
        </mxCell>
        <mxCell id="PZgfyG_mXTi6joqUZfRK-260" value="Secondary Goal for most steps: Identify order number, loc, seq_num for provided order. For happy path we will just have 1-&amp;gt;1 mapping but there can several scenarios that need special handling.&amp;nbsp;" style="shape=document;whiteSpace=wrap;html=1;boundedLbl=1;" vertex="1" parent="1">
          <mxGeometry x="50" y="300" width="200" height="200" as="geometry" />
        </mxCell>
        <mxCell id="PZgfyG_mXTi6joqUZfRK-261" value="Is the primary goal of DEVR to write error record to ICO_TXN so that a new IS order is created for error scenarios?" style="shape=document;whiteSpace=wrap;html=1;boundedLbl=1;" vertex="1" parent="1">
          <mxGeometry x="30" y="20" width="260" height="210" as="geometry" />
        </mxCell>
        <mxCell id="PZgfyG_mXTi6joqUZfRK-262" value="Exit processing" style="triangle;whiteSpace=wrap;html=1;fillColor=#990000;" vertex="1" parent="1">
          <mxGeometry x="300" y="-190" width="60" height="80" as="geometry" />
        </mxCell>
        <mxCell id="PZgfyG_mXTi6joqUZfRK-263" value="Step/process" style="rounded=0;whiteSpace=wrap;html=1;" vertex="1" parent="1">
          <mxGeometry x="20" y="-250" width="180" height="40" as="geometry" />
        </mxCell>
        <mxCell id="PZgfyG_mXTi6joqUZfRK-264" value="Condition evaluation" style="rhombus;whiteSpace=wrap;html=1;" vertex="1" parent="1">
          <mxGeometry x="250" y="-290" width="80" height="80" as="geometry" />
        </mxCell>
        <mxCell id="PZgfyG_mXTi6joqUZfRK-265" style="edgeStyle=none;rounded=0;orthogonalLoop=1;jettySize=auto;html=1;exitX=0.5;exitY=1;exitDx=0;exitDy=0;" edge="1" parent="1" source="PZgfyG_mXTi6joqUZfRK-266" target="PZgfyG_mXTi6joqUZfRK-24">
          <mxGeometry relative="1" as="geometry" />
        </mxCell>
        <mxCell id="PZgfyG_mXTi6joqUZfRK-266" value="BEGIN_PROCESS&amp;nbsp;&lt;br&gt;PIF_SINGLE_RECORD" style="shape=step;perimeter=stepPerimeter;whiteSpace=wrap;html=1;fixedSize=1;" vertex="1" parent="1">
          <mxGeometry x="372.5" y="-40" width="210" height="70" as="geometry" />
        </mxCell>
        <mxCell id="PZgfyG_mXTi6joqUZfRK-267" value="Joe to check in what scenarios and what system sets ABN status.&amp;nbsp;" style="shape=note;whiteSpace=wrap;html=1;backgroundOutline=1;darkOpacity=0.05;fillColor=#dae8fc;strokeColor=#6c8ebf;" vertex="1" parent="1">
          <mxGeometry x="1140" y="1670" width="80" height="100" as="geometry" />
        </mxCell>
        <mxCell id="PZgfyG_mXTi6joqUZfRK-268" value="TIN-&amp;gt; TradeIn&lt;br&gt;ISP-&amp;gt; Instore Pickup&lt;br&gt;ISP combo T-&amp;gt; Instore pickup with Tradein" style="shape=note;whiteSpace=wrap;html=1;backgroundOutline=1;darkOpacity=0.05;" vertex="1" parent="1">
          <mxGeometry x="960" y="2507" width="110" height="120" as="geometry" />
        </mxCell>
        <mxCell id="PZgfyG_mXTi6joqUZfRK-269" style="edgeStyle=orthogonalEdgeStyle;rounded=0;orthogonalLoop=1;jettySize=auto;html=1;exitX=0;exitY=0;exitDx=162;exitDy=100;exitPerimeter=0;entryX=0;entryY=0.5;entryDx=0;entryDy=0;" edge="1" parent="1" source="PZgfyG_mXTi6joqUZfRK-270" target="PZgfyG_mXTi6joqUZfRK-185">
          <mxGeometry relative="1" as="geometry" />
        </mxCell>
        <mxCell id="PZgfyG_mXTi6joqUZfRK-270" value="My understanding is step 14 gets executed only when the flag is set by step 11.&lt;br&gt;&lt;br&gt;&lt;br&gt;This step is when we know the DEVR record is a refund order&lt;b&gt;(From step 11) &lt;/b&gt;&amp;nbsp;that doesn&#39;t have R with E so we are doing further processing to see if we can find a order which has R with E." style="shape=note;whiteSpace=wrap;html=1;backgroundOutline=1;darkOpacity=0.05;" vertex="1" parent="1">
          <mxGeometry x="154" y="3504" width="211" height="260" as="geometry" />
        </mxCell>
        <mxCell id="PZgfyG_mXTi6joqUZfRK-271" value="SED: StreamLine Equipment Discount" style="shape=note;whiteSpace=wrap;html=1;backgroundOutline=1;darkOpacity=0.05;" vertex="1" parent="1">
          <mxGeometry x="620" y="3010" width="140" height="100" as="geometry" />
        </mxCell>
        <mxCell id="PZgfyG_mXTi6joqUZfRK-272" value="&lt;span&gt;Looks for non shipped pre-orders&lt;/span&gt;&lt;br&gt;&lt;br&gt;&lt;span&gt;I am not clear on this step&lt;/span&gt;" style="shape=note;whiteSpace=wrap;html=1;backgroundOutline=1;darkOpacity=0.05;" vertex="1" parent="1">
          <mxGeometry x="1175" y="3070" width="170" height="110" as="geometry" />
        </mxCell>
        <mxCell id="PZgfyG_mXTi6joqUZfRK-273" value="&lt;span&gt;Why are we doing this?&lt;/span&gt;&lt;br&gt;&lt;span&gt;What is not overridden?&lt;/span&gt;&lt;br&gt;&lt;span&gt;Isn&#39;t it same flag?&lt;/span&gt;&lt;br&gt;&lt;span&gt;What is difference b/w 12 and 13?&lt;/span&gt;" style="shape=note;whiteSpace=wrap;html=1;backgroundOutline=1;darkOpacity=0.05;" vertex="1" parent="1">
          <mxGeometry x="1045" y="2960" width="160" height="140" as="geometry" />
        </mxCell>
        <mxCell id="PZgfyG_mXTi6joqUZfRK-274" value="Joe is going to take another stab at steps 12 and 13" style="shape=note;whiteSpace=wrap;html=1;backgroundOutline=1;darkOpacity=0.05;" vertex="1" parent="1">
          <mxGeometry x="1085" y="3210" width="210" height="100" as="geometry" />
        </mxCell>
        <mxCell id="PZgfyG_mXTi6joqUZfRK-275" value="Comments" style="shape=note;whiteSpace=wrap;html=1;backgroundOutline=1;darkOpacity=0.05;" vertex="1" parent="1">
          <mxGeometry x="60" y="-370" width="80" height="100" as="geometry" />
        </mxCell>
        <mxCell id="PZgfyG_mXTi6joqUZfRK-276" value="SND_RMK-&amp;gt; Send Remarks" style="shape=note;whiteSpace=wrap;html=1;backgroundOutline=1;darkOpacity=0.05;" vertex="1" parent="1">
          <mxGeometry x="597.5" y="290" width="135" height="60" as="geometry" />
        </mxCell>
        <mxCell id="PZgfyG_mXTi6joqUZfRK-277" style="edgeStyle=orthogonalEdgeStyle;rounded=0;orthogonalLoop=1;jettySize=auto;html=1;exitX=0;exitY=0.5;exitDx=0;exitDy=0;exitPerimeter=0;entryX=1;entryY=0;entryDx=0;entryDy=0;" edge="1" parent="1" source="PZgfyG_mXTi6joqUZfRK-278" target="PZgfyG_mXTi6joqUZfRK-45">
          <mxGeometry relative="1" as="geometry" />
        </mxCell>
        <mxCell id="PZgfyG_mXTi6joqUZfRK-278" value="This property is not present in production" style="shape=note;whiteSpace=wrap;html=1;backgroundOutline=1;darkOpacity=0.05;" vertex="1" parent="1">
          <mxGeometry x="825" y="460" width="80" height="100" as="geometry" />
        </mxCell>
        <mxCell id="PZgfyG_mXTi6joqUZfRK-279" value="Gets order details, TAH-IC, IC flag" style="shape=note;whiteSpace=wrap;html=1;backgroundOutline=1;darkOpacity=0.05;" vertex="1" parent="1">
          <mxGeometry x="580" y="470" width="80" height="100" as="geometry" />
        </mxCell>
        <mxCell id="PZgfyG_mXTi6joqUZfRK-280" style="edgeStyle=orthogonalEdgeStyle;rounded=0;orthogonalLoop=1;jettySize=auto;html=1;exitX=1;exitY=0.5;exitDx=0;exitDy=0;entryX=0;entryY=0.5;entryDx=0;entryDy=0;" edge="1" parent="1" target="PZgfyG_mXTi6joqUZfRK-53">
          <mxGeometry relative="1" as="geometry">
            <mxPoint x="1120" y="779" as="sourcePoint" />
            <mxPoint x="1160" y="779" as="targetPoint" />
          </mxGeometry>
        </mxCell>
        <mxCell id="PZgfyG_mXTi6joqUZfRK-281" value="Update location code, order number from RBOX order" style="rounded=0;whiteSpace=wrap;html=1;" vertex="1" parent="1">
          <mxGeometry x="1030" y="749" width="120" height="60" as="geometry" />
        </mxCell>
        <mxCell id="PZgfyG_mXTi6joqUZfRK-282" style="edgeStyle=orthogonalEdgeStyle;rounded=0;orthogonalLoop=1;jettySize=auto;html=1;exitX=1;exitY=0.5;exitDx=0;exitDy=0;entryX=0;entryY=0.5;entryDx=0;entryDy=0;" edge="1" parent="1" source="PZgfyG_mXTi6joqUZfRK-286" target="PZgfyG_mXTi6joqUZfRK-51">
          <mxGeometry relative="1" as="geometry" />
        </mxCell>
        <mxCell id="PZgfyG_mXTi6joqUZfRK-283" value="RBOX" style="edgeLabel;html=1;align=center;verticalAlign=middle;resizable=0;points=[];" vertex="1" connectable="0" parent="PZgfyG_mXTi6joqUZfRK-282">
          <mxGeometry x="-0.2444" y="2" relative="1" as="geometry">
            <mxPoint as="offset" />
          </mxGeometry>
        </mxCell>
        <mxCell id="PZgfyG_mXTi6joqUZfRK-284" style="edgeStyle=orthogonalEdgeStyle;rounded=0;orthogonalLoop=1;jettySize=auto;html=1;exitX=0.5;exitY=1;exitDx=0;exitDy=0;entryX=0.75;entryY=0;entryDx=0;entryDy=0;" edge="1" parent="1" source="PZgfyG_mXTi6joqUZfRK-286" target="PZgfyG_mXTi6joqUZfRK-56">
          <mxGeometry relative="1" as="geometry">
            <Array as="points">
              <mxPoint x="750" y="830" />
              <mxPoint x="500" y="830" />
            </Array>
          </mxGeometry>
        </mxCell>
        <mxCell id="PZgfyG_mXTi6joqUZfRK-285" value="ISTH" style="edgeLabel;html=1;align=center;verticalAlign=middle;resizable=0;points=[];" vertex="1" connectable="0" parent="PZgfyG_mXTi6joqUZfRK-284">
          <mxGeometry x="-0.3477" y="4" relative="1" as="geometry">
            <mxPoint x="1" as="offset" />
          </mxGeometry>
        </mxCell>
        <mxCell id="PZgfyG_mXTi6joqUZfRK-286" value="Box Type" style="rhombus;whiteSpace=wrap;html=1;" vertex="1" parent="1">
          <mxGeometry x="710" y="740" width="80" height="80" as="geometry" />
        </mxCell>
        <mxCell id="PZgfyG_mXTi6joqUZfRK-287" style="edgeStyle=orthogonalEdgeStyle;rounded=0;orthogonalLoop=1;jettySize=auto;html=1;exitX=1;exitY=0.5;exitDx=0;exitDy=0;entryX=0;entryY=0.5;entryDx=0;entryDy=0;" edge="1" parent="1" source="PZgfyG_mXTi6joqUZfRK-288" target="PZgfyG_mXTi6joqUZfRK-286">
          <mxGeometry relative="1" as="geometry" />
        </mxCell>
        <mxCell id="PZgfyG_mXTi6joqUZfRK-288" value="Query drc_box_link to get box type" style="rounded=0;whiteSpace=wrap;html=1;" vertex="1" parent="1">
          <mxGeometry x="560" y="750" width="120" height="60" as="geometry" />
        </mxCell>
        <mxCell id="PZgfyG_mXTi6joqUZfRK-289" value="&lt;span style=&quot;color: rgb(0 , 0 , 0) ; font-family: &amp;#34;helvetica&amp;#34; ; font-size: 12px ; font-style: normal ; font-weight: 400 ; letter-spacing: normal ; text-align: center ; text-indent: 0px ; text-transform: none ; word-spacing: 0px ; background-color: rgb(248 , 249 , 250) ; display: inline ; float: none&quot;&gt;Why are we checking for no $ value promo?&lt;br&gt;&lt;br&gt;Joe to check why promo is checked only on case 2&lt;br&gt;&lt;/span&gt;" style="shape=note;whiteSpace=wrap;html=1;backgroundOutline=1;darkOpacity=0.05;fillColor=#dae8fc;strokeColor=#6c8ebf;" vertex="1" parent="1">
          <mxGeometry x="1970" y="700" width="140" height="120" as="geometry" />
        </mxCell>
        <mxCell id="PZgfyG_mXTi6joqUZfRK-290" style="edgeStyle=orthogonalEdgeStyle;rounded=0;orthogonalLoop=1;jettySize=auto;html=1;exitX=1;exitY=0.5;exitDx=0;exitDy=0;entryX=0;entryY=0.5;entryDx=0;entryDy=0;" edge="1" parent="1" source="PZgfyG_mXTi6joqUZfRK-294" target="PZgfyG_mXTi6joqUZfRK-60">
          <mxGeometry relative="1" as="geometry" />
        </mxCell>
        <mxCell id="PZgfyG_mXTi6joqUZfRK-291" value="YES" style="edgeLabel;html=1;align=center;verticalAlign=middle;resizable=0;points=[];" vertex="1" connectable="0" parent="PZgfyG_mXTi6joqUZfRK-290">
          <mxGeometry x="-0.0385" relative="1" as="geometry">
            <mxPoint as="offset" />
          </mxGeometry>
        </mxCell>
        <mxCell id="PZgfyG_mXTi6joqUZfRK-292" style="edgeStyle=orthogonalEdgeStyle;rounded=0;orthogonalLoop=1;jettySize=auto;html=1;exitX=0.5;exitY=1;exitDx=0;exitDy=0;entryX=0.75;entryY=0;entryDx=0;entryDy=0;" edge="1" parent="1" source="PZgfyG_mXTi6joqUZfRK-294" target="PZgfyG_mXTi6joqUZfRK-91">
          <mxGeometry relative="1" as="geometry">
            <mxPoint x="500" y="1800" as="targetPoint" />
            <Array as="points">
              <mxPoint x="805" y="1000" />
              <mxPoint x="500" y="1000" />
              <mxPoint x="500" y="1805" />
            </Array>
          </mxGeometry>
        </mxCell>
        <mxCell id="PZgfyG_mXTi6joqUZfRK-293" value="NO" style="edgeLabel;html=1;align=center;verticalAlign=middle;resizable=0;points=[];" vertex="1" connectable="0" parent="PZgfyG_mXTi6joqUZfRK-292">
          <mxGeometry x="-0.8624" y="1" relative="1" as="geometry">
            <mxPoint as="offset" />
          </mxGeometry>
        </mxCell>
        <mxCell id="PZgfyG_mXTi6joqUZfRK-294" value="Refund &lt;br&gt;found" style="rhombus;whiteSpace=wrap;html=1;" vertex="1" parent="1">
          <mxGeometry x="765" y="900" width="80" height="80" as="geometry" />
        </mxCell>
        <mxCell id="PZgfyG_mXTi6joqUZfRK-295" style="edgeStyle=orthogonalEdgeStyle;rounded=0;orthogonalLoop=1;jettySize=auto;html=1;exitX=0.5;exitY=0;exitDx=0;exitDy=0;exitPerimeter=0;entryX=0.336;entryY=0.903;entryDx=0;entryDy=0;entryPerimeter=0;" edge="1" parent="1" source="PZgfyG_mXTi6joqUZfRK-296" target="PZgfyG_mXTi6joqUZfRK-64">
          <mxGeometry relative="1" as="geometry" />
        </mxCell>
        <mxCell id="PZgfyG_mXTi6joqUZfRK-296" value="&lt;span&gt;Why does it exit without updating order number from refund order anywhere?&lt;br&gt;&lt;br&gt;Joe is looking at this&lt;br&gt;&lt;/span&gt;" style="shape=note;whiteSpace=wrap;html=1;backgroundOutline=1;darkOpacity=0.05;fillColor=#dae8fc;strokeColor=#6c8ebf;" vertex="1" parent="1">
          <mxGeometry x="1170" y="1050" width="170" height="90" as="geometry" />
        </mxCell>
        <mxCell id="PZgfyG_mXTi6joqUZfRK-297" style="edgeStyle=orthogonalEdgeStyle;rounded=0;orthogonalLoop=1;jettySize=auto;html=1;exitX=0.5;exitY=1;exitDx=0;exitDy=0;exitPerimeter=0;" edge="1" parent="1" source="PZgfyG_mXTi6joqUZfRK-298" target="PZgfyG_mXTi6joqUZfRK-68">
          <mxGeometry relative="1" as="geometry" />
        </mxCell>
        <mxCell id="PZgfyG_mXTi6joqUZfRK-298" value="&lt;span&gt;4 get data of device from PIF file&lt;/span&gt;&lt;br&gt;&lt;span&gt;5 gets data of device from Refund order&lt;/span&gt;" style="shape=note;whiteSpace=wrap;html=1;backgroundOutline=1;darkOpacity=0.05;" vertex="1" parent="1">
          <mxGeometry x="1410" y="810" width="190" height="70" as="geometry" />
        </mxCell>
        <mxCell id="PZgfyG_mXTi6joqUZfRK-299" value="YES" style="edgeStyle=orthogonalEdgeStyle;rounded=0;orthogonalLoop=1;jettySize=auto;html=1;exitX=0;exitY=0.5;exitDx=0;exitDy=0;entryX=1;entryY=0.25;entryDx=0;entryDy=0;" edge="1" parent="1" source="PZgfyG_mXTi6joqUZfRK-301" target="PZgfyG_mXTi6joqUZfRK-303">
          <mxGeometry relative="1" as="geometry" />
        </mxCell>
        <mxCell id="PZgfyG_mXTi6joqUZfRK-300" value="NO" style="edgeStyle=orthogonalEdgeStyle;rounded=0;orthogonalLoop=1;jettySize=auto;html=1;exitX=1;exitY=0.5;exitDx=0;exitDy=0;entryX=0;entryY=0.5;entryDx=0;entryDy=0;" edge="1" parent="1" source="PZgfyG_mXTi6joqUZfRK-301" target="PZgfyG_mXTi6joqUZfRK-307">
          <mxGeometry relative="1" as="geometry" />
        </mxCell>
        <mxCell id="PZgfyG_mXTi6joqUZfRK-301" value="Evaluate&amp;nbsp;&lt;br&gt;tah_match_found" style="rhombus;whiteSpace=wrap;html=1;" vertex="1" parent="1">
          <mxGeometry x="1740" y="1430" width="80" height="80" as="geometry" />
        </mxCell>
        <mxCell id="PZgfyG_mXTi6joqUZfRK-302" style="edgeStyle=orthogonalEdgeStyle;rounded=0;orthogonalLoop=1;jettySize=auto;html=1;exitX=0;exitY=0.5;exitDx=0;exitDy=0;entryX=0.75;entryY=0;entryDx=0;entryDy=0;" edge="1" parent="1" source="PZgfyG_mXTi6joqUZfRK-303" target="PZgfyG_mXTi6joqUZfRK-91">
          <mxGeometry relative="1" as="geometry">
            <Array as="points">
              <mxPoint x="1485" y="1470" />
              <mxPoint x="545" y="1470" />
              <mxPoint x="545" y="1805" />
            </Array>
          </mxGeometry>
        </mxCell>
        <mxCell id="PZgfyG_mXTi6joqUZfRK-303" value="Update location_code, order_num of refund order" style="rounded=0;whiteSpace=wrap;html=1;fillColor=#FFFFFF;" vertex="1" parent="1">
          <mxGeometry x="1485" y="1450" width="120" height="60" as="geometry" />
        </mxCell>
        <mxCell id="PZgfyG_mXTi6joqUZfRK-304" value="NO" style="edgeStyle=orthogonalEdgeStyle;rounded=0;orthogonalLoop=1;jettySize=auto;html=1;exitX=1;exitY=0.5;exitDx=0;exitDy=0;" edge="1" parent="1" source="PZgfyG_mXTi6joqUZfRK-307" target="PZgfyG_mXTi6joqUZfRK-88">
          <mxGeometry relative="1" as="geometry" />
        </mxCell>
        <mxCell id="PZgfyG_mXTi6joqUZfRK-305" style="edgeStyle=orthogonalEdgeStyle;rounded=0;orthogonalLoop=1;jettySize=auto;html=1;exitX=0.5;exitY=1;exitDx=0;exitDy=0;entryX=1;entryY=0;entryDx=0;entryDy=0;" edge="1" parent="1" source="PZgfyG_mXTi6joqUZfRK-307" target="PZgfyG_mXTi6joqUZfRK-91">
          <mxGeometry relative="1" as="geometry">
            <Array as="points">
              <mxPoint x="1950" y="1590" />
              <mxPoint x="545" y="1590" />
            </Array>
          </mxGeometry>
        </mxCell>
        <mxCell id="PZgfyG_mXTi6joqUZfRK-306" value="YES" style="edgeLabel;html=1;align=center;verticalAlign=middle;resizable=0;points=[];" vertex="1" connectable="0" parent="PZgfyG_mXTi6joqUZfRK-305">
          <mxGeometry x="-0.2467" y="-2" relative="1" as="geometry">
            <mxPoint as="offset" />
          </mxGeometry>
        </mxCell>
        <mxCell id="PZgfyG_mXTi6joqUZfRK-307" value="promo_offer&lt;br&gt;exists" style="rhombus;whiteSpace=wrap;html=1;" vertex="1" parent="1">
          <mxGeometry x="1910" y="1430" width="80" height="80" as="geometry" />
        </mxCell>
        <mxCell id="PZgfyG_mXTi6joqUZfRK-308" style="edgeStyle=orthogonalEdgeStyle;rounded=0;orthogonalLoop=1;jettySize=auto;html=1;exitX=0;exitY=0;exitDx=80;exitDy=65;exitPerimeter=0;entryX=0;entryY=0.5;entryDx=0;entryDy=0;" edge="1" parent="1" source="PZgfyG_mXTi6joqUZfRK-309" target="PZgfyG_mXTi6joqUZfRK-91">
          <mxGeometry relative="1" as="geometry" />
        </mxCell>
        <mxCell id="PZgfyG_mXTi6joqUZfRK-309" value="We are not sure why this step is executed only for NEW customers" style="shape=note;whiteSpace=wrap;html=1;backgroundOutline=1;darkOpacity=0.05;" vertex="1" parent="1">
          <mxGeometry x="270" y="1780" width="80" height="100" as="geometry" />
        </mxCell>
        <mxCell id="PZgfyG_mXTi6joqUZfRK-310" style="edgeStyle=orthogonalEdgeStyle;rounded=0;orthogonalLoop=1;jettySize=auto;html=1;exitX=0;exitY=0;exitDx=80;exitDy=65;exitPerimeter=0;entryX=0;entryY=0.5;entryDx=0;entryDy=0;" edge="1" parent="1" source="PZgfyG_mXTi6joqUZfRK-311" target="PZgfyG_mXTi6joqUZfRK-219">
          <mxGeometry relative="1" as="geometry" />
        </mxCell>
        <mxCell id="PZgfyG_mXTi6joqUZfRK-311" value="&#xa;&#xa;&lt;span style=&quot;color: rgb(0, 0, 0); font-family: helvetica; font-size: 12px; font-style: normal; font-weight: 400; letter-spacing: normal; text-align: center; text-indent: 0px; text-transform: none; word-spacing: 0px; background-color: rgb(248, 249, 250); display: inline; float: none;&quot;&gt;Does this use flag set in steps 12-13&lt;/span&gt;&#xa;&#xa;" style="shape=note;whiteSpace=wrap;html=1;backgroundOutline=1;darkOpacity=0.05;fillColor=#dae8fc;strokeColor=#6c8ebf;" vertex="1" parent="1">
          <mxGeometry x="50" y="4320" width="280" height="120" as="geometry" />
        </mxCell>
        <mxCell id="PZgfyG_mXTi6joqUZfRK-312" value="Update c struct. What does this struct hold and where is it used in later steps" style="rounded=0;whiteSpace=wrap;html=1;fillColor=#e1d5e7;strokeColor=#9673a6;" vertex="1" parent="1">
          <mxGeometry x="1680" y="3280" width="120" height="60" as="geometry" />
        </mxCell>
        <mxCell id="PZgfyG_mXTi6joqUZfRK-313" style="edgeStyle=orthogonalEdgeStyle;rounded=0;orthogonalLoop=1;jettySize=auto;html=1;exitX=1;exitY=0.5;exitDx=0;exitDy=0;entryX=0;entryY=0.5;entryDx=0;entryDy=0;" edge="1" parent="1" source="PZgfyG_mXTi6joqUZfRK-314" target="PZgfyG_mXTi6joqUZfRK-317">
          <mxGeometry relative="1" as="geometry" />
        </mxCell>
        <mxCell id="PZgfyG_mXTi6joqUZfRK-314" value="Check if RF order exists for the new found order&amp;nbsp;" style="rounded=0;whiteSpace=wrap;html=1;" vertex="1" parent="1">
          <mxGeometry x="2015" y="3575" width="120" height="60" as="geometry" />
        </mxCell>
        <mxCell id="PZgfyG_mXTi6joqUZfRK-315" style="edgeStyle=orthogonalEdgeStyle;rounded=0;orthogonalLoop=1;jettySize=auto;html=1;exitX=1;exitY=0.5;exitDx=0;exitDy=0;entryX=0;entryY=0.5;entryDx=0;entryDy=0;" edge="1" parent="1" source="PZgfyG_mXTi6joqUZfRK-317" target="PZgfyG_mXTi6joqUZfRK-321">
          <mxGeometry relative="1" as="geometry" />
        </mxCell>
        <mxCell id="PZgfyG_mXTi6joqUZfRK-316" style="edgeStyle=orthogonalEdgeStyle;rounded=0;orthogonalLoop=1;jettySize=auto;html=1;exitX=0.5;exitY=1;exitDx=0;exitDy=0;entryX=0.5;entryY=0;entryDx=0;entryDy=0;" edge="1" parent="1" source="PZgfyG_mXTi6joqUZfRK-317" target="PZgfyG_mXTi6joqUZfRK-344">
          <mxGeometry relative="1" as="geometry">
            <Array as="points">
              <mxPoint x="2230" y="3840" />
              <mxPoint x="1068" y="3840" />
            </Array>
          </mxGeometry>
        </mxCell>
        <mxCell id="PZgfyG_mXTi6joqUZfRK-317" value="RF Exists" style="rhombus;whiteSpace=wrap;html=1;" vertex="1" parent="1">
          <mxGeometry x="2190" y="3565" width="80" height="80" as="geometry" />
        </mxCell>
        <mxCell id="PZgfyG_mXTi6joqUZfRK-318" value="" style="rounded=0;whiteSpace=wrap;html=1;fillColor=#FFFFFF;" vertex="1" parent="1">
          <mxGeometry x="2901" y="3442" width="310" height="240" as="geometry" />
        </mxCell>
        <mxCell id="PZgfyG_mXTi6joqUZfRK-319" style="edgeStyle=orthogonalEdgeStyle;rounded=0;orthogonalLoop=1;jettySize=auto;html=1;exitX=1;exitY=0.5;exitDx=0;exitDy=0;entryX=0;entryY=0.5;entryDx=0;entryDy=0;" edge="1" parent="1" source="PZgfyG_mXTi6joqUZfRK-321" target="PZgfyG_mXTi6joqUZfRK-325">
          <mxGeometry relative="1" as="geometry" />
        </mxCell>
        <mxCell id="PZgfyG_mXTi6joqUZfRK-320" style="edgeStyle=orthogonalEdgeStyle;rounded=0;orthogonalLoop=1;jettySize=auto;html=1;exitX=0.5;exitY=1;exitDx=0;exitDy=0;entryX=0.5;entryY=0;entryDx=0;entryDy=0;entryPerimeter=0;" edge="1" parent="1" source="PZgfyG_mXTi6joqUZfRK-321" target="PZgfyG_mXTi6joqUZfRK-338">
          <mxGeometry relative="1" as="geometry" />
        </mxCell>
        <mxCell id="PZgfyG_mXTi6joqUZfRK-321" value="Check if TIN, ISP with combo_ind &quot;T&quot;" style="rounded=0;whiteSpace=wrap;html=1;fillColor=#FFFFFF;" vertex="1" parent="1">
          <mxGeometry x="2376" y="3574" width="120" height="60" as="geometry" />
        </mxCell>
        <mxCell id="PZgfyG_mXTi6joqUZfRK-322" style="edgeStyle=orthogonalEdgeStyle;rounded=0;orthogonalLoop=1;jettySize=auto;html=1;exitX=0.5;exitY=1;exitDx=0;exitDy=0;entryX=0.25;entryY=0;entryDx=0;entryDy=0;" edge="1" parent="1" source="PZgfyG_mXTi6joqUZfRK-325" target="PZgfyG_mXTi6joqUZfRK-327">
          <mxGeometry relative="1" as="geometry">
            <mxPoint x="2606" y="3684" as="targetPoint" />
          </mxGeometry>
        </mxCell>
        <mxCell id="PZgfyG_mXTi6joqUZfRK-323" value="NO" style="edgeLabel;html=1;align=center;verticalAlign=middle;resizable=0;points=[];" vertex="1" connectable="0" parent="PZgfyG_mXTi6joqUZfRK-322">
          <mxGeometry x="-0.08" relative="1" as="geometry">
            <mxPoint as="offset" />
          </mxGeometry>
        </mxCell>
        <mxCell id="PZgfyG_mXTi6joqUZfRK-324" value="YES" style="edgeStyle=orthogonalEdgeStyle;rounded=0;orthogonalLoop=1;jettySize=auto;html=1;exitX=1;exitY=0.5;exitDx=0;exitDy=0;" edge="1" parent="1" source="PZgfyG_mXTi6joqUZfRK-325" target="PZgfyG_mXTi6joqUZfRK-329">
          <mxGeometry relative="1" as="geometry" />
        </mxCell>
        <mxCell id="PZgfyG_mXTi6joqUZfRK-325" value="Records found" style="rhombus;whiteSpace=wrap;html=1;fillColor=#FFFFFF;" vertex="1" parent="1">
          <mxGeometry x="2566" y="3564" width="80" height="80" as="geometry" />
        </mxCell>
        <mxCell id="PZgfyG_mXTi6joqUZfRK-326" style="edgeStyle=orthogonalEdgeStyle;rounded=0;orthogonalLoop=1;jettySize=auto;html=1;exitX=0.5;exitY=1;exitDx=0;exitDy=0;" edge="1" parent="1" source="PZgfyG_mXTi6joqUZfRK-327" target="PZgfyG_mXTi6joqUZfRK-342">
          <mxGeometry relative="1" as="geometry" />
        </mxCell>
        <mxCell id="PZgfyG_mXTi6joqUZfRK-327" value="NO RF order and R with E are happy path. For everything else&amp;nbsp;" style="rounded=0;whiteSpace=wrap;html=1;fillColor=#FFFFFF;" vertex="1" parent="1">
          <mxGeometry x="2696" y="3754" width="164" height="96" as="geometry" />
        </mxCell>
        <mxCell id="PZgfyG_mXTi6joqUZfRK-328" style="edgeStyle=orthogonalEdgeStyle;rounded=0;orthogonalLoop=1;jettySize=auto;html=1;exitX=1;exitY=0.5;exitDx=0;exitDy=0;entryX=0;entryY=0.5;entryDx=0;entryDy=0;" edge="1" parent="1" source="PZgfyG_mXTi6joqUZfRK-329">
          <mxGeometry relative="1" as="geometry">
            <mxPoint x="2901" y="3584" as="targetPoint" />
          </mxGeometry>
        </mxCell>
        <mxCell id="PZgfyG_mXTi6joqUZfRK-329" value="Check R/E activity on trade-in. Compare R and E status" style="rounded=0;whiteSpace=wrap;html=1;fillColor=#FFFFFF;" vertex="1" parent="1">
          <mxGeometry x="2706" y="3574" width="120" height="60" as="geometry" />
        </mxCell>
        <mxCell id="PZgfyG_mXTi6joqUZfRK-330" style="edgeStyle=orthogonalEdgeStyle;rounded=0;orthogonalLoop=1;jettySize=auto;html=1;exitX=1;exitY=0.5;exitDx=0;exitDy=0;entryX=1;entryY=0;entryDx=0;entryDy=0;" edge="1" parent="1" source="PZgfyG_mXTi6joqUZfRK-332" target="PZgfyG_mXTi6joqUZfRK-219">
          <mxGeometry relative="1" as="geometry">
            <mxPoint x="2971" y="3604" as="sourcePoint" />
            <mxPoint x="3086" y="3524" as="targetPoint" />
            <Array as="points">
              <mxPoint x="3300" y="3524" />
              <mxPoint x="3300" y="4270" />
              <mxPoint x="530" y="4270" />
            </Array>
          </mxGeometry>
        </mxCell>
        <mxCell id="PZgfyG_mXTi6joqUZfRK-331" value="YES" style="edgeLabel;html=1;align=center;verticalAlign=middle;resizable=0;points=[];" vertex="1" connectable="0" parent="PZgfyG_mXTi6joqUZfRK-330">
          <mxGeometry x="-0.2" y="2" relative="1" as="geometry">
            <mxPoint as="offset" />
          </mxGeometry>
        </mxCell>
        <mxCell id="PZgfyG_mXTi6joqUZfRK-332" value="Is R with E" style="rhombus;whiteSpace=wrap;html=1;fillColor=#FFFFFF;" vertex="1" parent="1">
          <mxGeometry x="2931" y="3484" width="80" height="80" as="geometry" />
        </mxCell>
        <mxCell id="PZgfyG_mXTi6joqUZfRK-333" style="edgeStyle=orthogonalEdgeStyle;rounded=0;orthogonalLoop=1;jettySize=auto;html=1;entryX=0.5;entryY=0;entryDx=0;entryDy=0;exitX=0.5;exitY=1;exitDx=0;exitDy=0;" edge="1" parent="1" source="PZgfyG_mXTi6joqUZfRK-337" target="PZgfyG_mXTi6joqUZfRK-327">
          <mxGeometry relative="1" as="geometry" />
        </mxCell>
        <mxCell id="PZgfyG_mXTi6joqUZfRK-334" style="edgeStyle=orthogonalEdgeStyle;rounded=0;orthogonalLoop=1;jettySize=auto;html=1;exitX=1;exitY=0.5;exitDx=0;exitDy=0;entryX=0;entryY=0.5;entryDx=0;entryDy=0;" edge="1" parent="1" source="PZgfyG_mXTi6joqUZfRK-336" target="PZgfyG_mXTi6joqUZfRK-337">
          <mxGeometry relative="1" as="geometry" />
        </mxCell>
        <mxCell id="PZgfyG_mXTi6joqUZfRK-335" value="Yes" style="edgeLabel;html=1;align=center;verticalAlign=middle;resizable=0;points=[];" vertex="1" connectable="0" parent="PZgfyG_mXTi6joqUZfRK-334">
          <mxGeometry x="-0.6" y="4" relative="1" as="geometry">
            <mxPoint as="offset" />
          </mxGeometry>
        </mxCell>
        <mxCell id="PZgfyG_mXTi6joqUZfRK-336" value="Is R only" style="rhombus;whiteSpace=wrap;html=1;fillColor=#FFFFFF;" vertex="1" parent="1">
          <mxGeometry x="2931" y="3574" width="80" height="80" as="geometry" />
        </mxCell>
        <mxCell id="PZgfyG_mXTi6joqUZfRK-337" value="Update dr_stat = CAN" style="rounded=0;whiteSpace=wrap;html=1;fillColor=#97D077;" vertex="1" parent="1">
          <mxGeometry x="3056" y="3599" width="120" height="30" as="geometry" />
        </mxCell>
        <mxCell id="PZgfyG_mXTi6joqUZfRK-338" value="TIN-&amp;gt; TradeIn&lt;br&gt;ISP-&amp;gt; Instore Pickup&lt;br&gt;ISP combo T-&amp;gt; Instore pickup with Tradein" style="shape=note;whiteSpace=wrap;html=1;backgroundOutline=1;darkOpacity=0.05;" vertex="1" parent="1">
          <mxGeometry x="2386" y="3664" width="110" height="120" as="geometry" />
        </mxCell>
        <mxCell id="PZgfyG_mXTi6joqUZfRK-339" value="Update c struct. What does this struct hold and where is it used in later steps" style="rounded=0;whiteSpace=wrap;html=1;fillColor=#e1d5e7;strokeColor=#9673a6;" vertex="1" parent="1">
          <mxGeometry x="2420" y="1610" width="120" height="60" as="geometry" />
        </mxCell>
        <mxCell id="PZgfyG_mXTi6joqUZfRK-340" style="edgeStyle=orthogonalEdgeStyle;rounded=0;orthogonalLoop=1;jettySize=auto;html=1;exitX=0.5;exitY=1;exitDx=0;exitDy=0;entryX=0.5;entryY=0;entryDx=0;entryDy=0;" edge="1" parent="1" source="PZgfyG_mXTi6joqUZfRK-342" target="PZgfyG_mXTi6joqUZfRK-344">
          <mxGeometry relative="1" as="geometry">
            <Array as="points">
              <mxPoint x="2778" y="3970" />
              <mxPoint x="1934" y="3970" />
              <mxPoint x="1934" y="3840" />
              <mxPoint x="1068" y="3840" />
            </Array>
          </mxGeometry>
        </mxCell>
        <mxCell id="PZgfyG_mXTi6joqUZfRK-341" value="NO" style="edgeLabel;html=1;align=center;verticalAlign=middle;resizable=0;points=[];" vertex="1" connectable="0" parent="PZgfyG_mXTi6joqUZfRK-340">
          <mxGeometry x="0.968" y="1" relative="1" as="geometry">
            <mxPoint y="1" as="offset" />
          </mxGeometry>
        </mxCell>
        <mxCell id="PZgfyG_mXTi6joqUZfRK-342" value="Update c struct. What does this struct hold and where is it used in later steps" style="rounded=0;whiteSpace=wrap;html=1;fillColor=#e1d5e7;strokeColor=#9673a6;" vertex="1" parent="1">
          <mxGeometry x="2718" y="3890" width="120" height="60" as="geometry" />
        </mxCell>
        <mxCell id="PZgfyG_mXTi6joqUZfRK-343" style="edgeStyle=orthogonalEdgeStyle;rounded=0;orthogonalLoop=1;jettySize=auto;html=1;exitX=0.5;exitY=1;exitDx=0;exitDy=0;entryX=0.75;entryY=0;entryDx=0;entryDy=0;" edge="1" parent="1" source="PZgfyG_mXTi6joqUZfRK-344" target="PZgfyG_mXTi6joqUZfRK-219">
          <mxGeometry relative="1" as="geometry" />
        </mxCell>
        <mxCell id="PZgfyG_mXTi6joqUZfRK-344" value="If no replacement trade-in order found mark tah_match_found = &#39;N&#39;" style="rounded=0;whiteSpace=wrap;html=1;" vertex="1" parent="1">
          <mxGeometry x="985" y="3920" width="165" height="90" as="geometry" />
        </mxCell>
        <mxCell id="PZgfyG_mXTi6joqUZfRK-345" style="edgeStyle=orthogonalEdgeStyle;rounded=0;orthogonalLoop=1;jettySize=auto;html=1;exitX=0;exitY=0.5;exitDx=0;exitDy=0;entryX=1;entryY=0.5;entryDx=0;entryDy=0;" edge="1" parent="1" source="PZgfyG_mXTi6joqUZfRK-346" target="PZgfyG_mXTi6joqUZfRK-452">
          <mxGeometry relative="1" as="geometry" />
        </mxCell>
        <mxCell id="PZgfyG_mXTi6joqUZfRK-346" value="Update c struct. What does this struct hold and where is it used in later steps" style="rounded=0;whiteSpace=wrap;html=1;fillColor=#e1d5e7;strokeColor=#9673a6;" vertex="1" parent="1">
          <mxGeometry x="1720" y="4920" width="120" height="60" as="geometry" />
        </mxCell>
        <mxCell id="PZgfyG_mXTi6joqUZfRK-347" value="Do we have a valid TradeIn(Step 16)" style="rounded=0;whiteSpace=wrap;html=1;fillColor=#FFFFFF;" vertex="1" parent="1">
          <mxGeometry x="430" y="4870" width="120" height="60" as="geometry" />
        </mxCell>
        <mxCell id="PZgfyG_mXTi6joqUZfRK-348" value="Step 15, b asks to move to step 16 if no records found but step 16 says if not 14 and 15 what does it mean?&lt;br&gt;&lt;br&gt;Possible outcomes&lt;br&gt;1. Does 16 check if not 14 and 15. Not a RF order with... and not a Cancelled order with ....&lt;br&gt;&lt;br&gt;2. Is 16 executed even in 15-b scenario?&lt;br&gt;If so why are we saying we already have a valid trade-in-record.&amp;nbsp;" style="shape=note;whiteSpace=wrap;html=1;backgroundOutline=1;darkOpacity=0.05;" vertex="1" parent="1">
          <mxGeometry x="25" y="4590" width="390" height="230" as="geometry" />
        </mxCell>
        <mxCell id="PZgfyG_mXTi6joqUZfRK-349" style="edgeStyle=orthogonalEdgeStyle;rounded=0;orthogonalLoop=1;jettySize=auto;html=1;exitX=1;exitY=0.5;exitDx=0;exitDy=0;entryX=0;entryY=0.5;entryDx=0;entryDy=0;" edge="1" parent="1" source="PZgfyG_mXTi6joqUZfRK-350" target="PZgfyG_mXTi6joqUZfRK-354">
          <mxGeometry relative="1" as="geometry" />
        </mxCell>
        <mxCell id="PZgfyG_mXTi6joqUZfRK-350" value="Process Refund orders(Basic validation: DR should have the RF order) &lt;b&gt;(17)&lt;/b&gt;" style="rounded=0;whiteSpace=wrap;html=1;" vertex="1" parent="1">
          <mxGeometry x="370" y="5010" width="140" height="80" as="geometry" />
        </mxCell>
        <mxCell id="PZgfyG_mXTi6joqUZfRK-351" style="edgeStyle=orthogonalEdgeStyle;rounded=0;orthogonalLoop=1;jettySize=auto;html=1;exitX=0;exitY=0;exitDx=180;exitDy=70;exitPerimeter=0;entryX=0;entryY=0.75;entryDx=0;entryDy=0;" edge="1" parent="1" source="PZgfyG_mXTi6joqUZfRK-352" target="PZgfyG_mXTi6joqUZfRK-350">
          <mxGeometry relative="1" as="geometry" />
        </mxCell>
        <mxCell id="PZgfyG_mXTi6joqUZfRK-352" value="&lt;br&gt;Step 17 is executed when not 14, 15, 16 but what is logic in step 16?&lt;br&gt;&lt;br&gt;Step 17 is again only for refund orders" style="shape=note;whiteSpace=wrap;html=1;backgroundOutline=1;darkOpacity=0.05;" vertex="1" parent="1">
          <mxGeometry x="160" y="4990" width="180" height="110" as="geometry" />
        </mxCell>
        <mxCell id="PZgfyG_mXTi6joqUZfRK-353" style="edgeStyle=orthogonalEdgeStyle;rounded=0;orthogonalLoop=1;jettySize=auto;html=1;exitX=1;exitY=0.5;exitDx=0;exitDy=0;entryX=0;entryY=0.5;entryDx=0;entryDy=0;" edge="1" parent="1" source="PZgfyG_mXTi6joqUZfRK-354" target="PZgfyG_mXTi6joqUZfRK-358">
          <mxGeometry relative="1" as="geometry" />
        </mxCell>
        <mxCell id="PZgfyG_mXTi6joqUZfRK-354" value="Lookup DR tah ref order where DR_RF_ORDER_NUM=ORDER_NUM&amp;nbsp;&lt;br&gt;AND&lt;br&gt;DR_RF_LOC = LOC" style="rounded=0;whiteSpace=wrap;html=1;" vertex="1" parent="1">
          <mxGeometry x="560" y="5000" width="220" height="100" as="geometry" />
        </mxCell>
        <mxCell id="PZgfyG_mXTi6joqUZfRK-355" style="edgeStyle=orthogonalEdgeStyle;rounded=0;orthogonalLoop=1;jettySize=auto;html=1;exitX=1;exitY=0.5;exitDx=0;exitDy=0;entryX=0;entryY=0.5;entryDx=0;entryDy=0;" edge="1" parent="1" source="PZgfyG_mXTi6joqUZfRK-358" target="PZgfyG_mXTi6joqUZfRK-360">
          <mxGeometry relative="1" as="geometry" />
        </mxCell>
        <mxCell id="PZgfyG_mXTi6joqUZfRK-356" value="NO" style="edgeLabel;html=1;align=center;verticalAlign=middle;resizable=0;points=[];" vertex="1" connectable="0" parent="PZgfyG_mXTi6joqUZfRK-355">
          <mxGeometry x="-0.12" y="3" relative="1" as="geometry">
            <mxPoint as="offset" />
          </mxGeometry>
        </mxCell>
        <mxCell id="PZgfyG_mXTi6joqUZfRK-357" value="YES" style="edgeStyle=orthogonalEdgeStyle;rounded=0;orthogonalLoop=1;jettySize=auto;html=1;exitX=0.5;exitY=1;exitDx=0;exitDy=0;entryX=0.5;entryY=0;entryDx=0;entryDy=0;" edge="1" parent="1" source="PZgfyG_mXTi6joqUZfRK-358" target="PZgfyG_mXTi6joqUZfRK-463">
          <mxGeometry relative="1" as="geometry" />
        </mxCell>
        <mxCell id="PZgfyG_mXTi6joqUZfRK-358" value="Record found" style="rhombus;whiteSpace=wrap;html=1;" vertex="1" parent="1">
          <mxGeometry x="820" y="5020" width="80" height="80" as="geometry" />
        </mxCell>
        <mxCell id="PZgfyG_mXTi6joqUZfRK-359" style="edgeStyle=orthogonalEdgeStyle;rounded=0;orthogonalLoop=1;jettySize=auto;html=1;exitX=1;exitY=0.5;exitDx=0;exitDy=0;entryX=0;entryY=0.5;entryDx=0;entryDy=0;" edge="1" parent="1" source="PZgfyG_mXTi6joqUZfRK-360" target="PZgfyG_mXTi6joqUZfRK-460">
          <mxGeometry relative="1" as="geometry">
            <mxPoint x="1160" y="5060" as="targetPoint" />
          </mxGeometry>
        </mxCell>
        <mxCell id="PZgfyG_mXTi6joqUZfRK-360" value="Update pif_db_rec_status" style="rounded=0;whiteSpace=wrap;html=1;" vertex="1" parent="1">
          <mxGeometry x="975" y="5030" width="120" height="60" as="geometry" />
        </mxCell>
        <mxCell id="PZgfyG_mXTi6joqUZfRK-361" style="edgeStyle=orthogonalEdgeStyle;rounded=0;orthogonalLoop=1;jettySize=auto;html=1;exitX=1;exitY=0.5;exitDx=0;exitDy=0;entryX=0;entryY=0.5;entryDx=0;entryDy=0;" edge="1" parent="1" source="PZgfyG_mXTi6joqUZfRK-363" target="PZgfyG_mXTi6joqUZfRK-365">
          <mxGeometry relative="1" as="geometry" />
        </mxCell>
        <mxCell id="PZgfyG_mXTi6joqUZfRK-362" style="edgeStyle=orthogonalEdgeStyle;rounded=0;orthogonalLoop=1;jettySize=auto;html=1;exitX=0.5;exitY=1;exitDx=0;exitDy=0;" edge="1" parent="1" source="PZgfyG_mXTi6joqUZfRK-363" target="PZgfyG_mXTi6joqUZfRK-396">
          <mxGeometry relative="1" as="geometry" />
        </mxCell>
        <mxCell id="PZgfyG_mXTi6joqUZfRK-363" value="Looks for Nearly matches(18)" style="rounded=0;whiteSpace=wrap;html=1;" vertex="1" parent="1">
          <mxGeometry x="390" y="5470" width="120" height="60" as="geometry" />
        </mxCell>
        <mxCell id="PZgfyG_mXTi6joqUZfRK-364" style="edgeStyle=none;rounded=0;orthogonalLoop=1;jettySize=auto;html=1;exitX=1;exitY=0.5;exitDx=0;exitDy=0;entryX=0;entryY=0.5;entryDx=0;entryDy=0;" edge="1" parent="1" source="PZgfyG_mXTi6joqUZfRK-365" target="PZgfyG_mXTi6joqUZfRK-369">
          <mxGeometry relative="1" as="geometry" />
        </mxCell>
        <mxCell id="PZgfyG_mXTi6joqUZfRK-365" value="Get Q/A, drc details(make, model), sku(make/model/pricing), memory" style="rounded=0;whiteSpace=wrap;html=1;fillColor=#FFFFFF;" vertex="1" parent="1">
          <mxGeometry x="780" y="5470" width="150" height="60" as="geometry" />
        </mxCell>
        <mxCell id="PZgfyG_mXTi6joqUZfRK-366" style="edgeStyle=none;rounded=0;orthogonalLoop=1;jettySize=auto;html=1;exitX=1;exitY=0.5;exitDx=0;exitDy=0;entryX=0;entryY=0.5;entryDx=0;entryDy=0;" edge="1" parent="1" source="PZgfyG_mXTi6joqUZfRK-369" target="PZgfyG_mXTi6joqUZfRK-383">
          <mxGeometry relative="1" as="geometry" />
        </mxCell>
        <mxCell id="PZgfyG_mXTi6joqUZfRK-367" value="Yes" style="edgeLabel;html=1;align=center;verticalAlign=middle;resizable=0;points=[];" vertex="1" connectable="0" parent="PZgfyG_mXTi6joqUZfRK-366">
          <mxGeometry x="-0.0879" y="2" relative="1" as="geometry">
            <mxPoint as="offset" />
          </mxGeometry>
        </mxCell>
        <mxCell id="PZgfyG_mXTi6joqUZfRK-368" value="NO" style="edgeStyle=orthogonalEdgeStyle;rounded=0;orthogonalLoop=1;jettySize=auto;html=1;exitX=0.5;exitY=1;exitDx=0;exitDy=0;entryX=0.5;entryY=0;entryDx=0;entryDy=0;" edge="1" parent="1" source="PZgfyG_mXTi6joqUZfRK-369" target="PZgfyG_mXTi6joqUZfRK-374">
          <mxGeometry relative="1" as="geometry" />
        </mxCell>
        <mxCell id="PZgfyG_mXTi6joqUZfRK-369" value="Q&amp;amp;A match, item matches" style="rhombus;whiteSpace=wrap;html=1;fillColor=#f8cecc;strokeColor=#b85450;" vertex="1" parent="1">
          <mxGeometry x="1090" y="5359" width="80" height="80" as="geometry" />
        </mxCell>
        <mxCell id="PZgfyG_mXTi6joqUZfRK-370" style="edgeStyle=none;rounded=0;orthogonalLoop=1;jettySize=auto;html=1;exitX=1;exitY=0.5;exitDx=0;exitDy=0;entryX=0;entryY=0.5;entryDx=0;entryDy=0;" edge="1" parent="1" source="PZgfyG_mXTi6joqUZfRK-374" target="PZgfyG_mXTi6joqUZfRK-383">
          <mxGeometry relative="1" as="geometry" />
        </mxCell>
        <mxCell id="PZgfyG_mXTi6joqUZfRK-371" value="Yes" style="edgeLabel;html=1;align=center;verticalAlign=middle;resizable=0;points=[];" vertex="1" connectable="0" parent="PZgfyG_mXTi6joqUZfRK-370">
          <mxGeometry x="-0.4633" relative="1" as="geometry">
            <mxPoint as="offset" />
          </mxGeometry>
        </mxCell>
        <mxCell id="PZgfyG_mXTi6joqUZfRK-372" style="edgeStyle=none;rounded=0;orthogonalLoop=1;jettySize=auto;html=1;exitX=1;exitY=0;exitDx=0;exitDy=0;entryX=0;entryY=0.5;entryDx=0;entryDy=0;entryPerimeter=0;" edge="1" parent="1" source="PZgfyG_mXTi6joqUZfRK-374" target="PZgfyG_mXTi6joqUZfRK-386">
          <mxGeometry relative="1" as="geometry">
            <mxPoint x="820" y="5686.229508196721" as="targetPoint" />
          </mxGeometry>
        </mxCell>
        <mxCell id="PZgfyG_mXTi6joqUZfRK-373" value="NO" style="edgeStyle=orthogonalEdgeStyle;rounded=0;orthogonalLoop=1;jettySize=auto;html=1;exitX=0.5;exitY=1;exitDx=0;exitDy=0;entryX=0.5;entryY=0;entryDx=0;entryDy=0;" edge="1" parent="1" source="PZgfyG_mXTi6joqUZfRK-374" target="PZgfyG_mXTi6joqUZfRK-378">
          <mxGeometry relative="1" as="geometry" />
        </mxCell>
        <mxCell id="PZgfyG_mXTi6joqUZfRK-374" value="Q&amp;amp;A don&#39;t match, item matches, no $ value promo" style="rhombus;whiteSpace=wrap;html=1;fillColor=#FFFFFF;" vertex="1" parent="1">
          <mxGeometry x="1065" y="5500" width="130" height="90" as="geometry" />
        </mxCell>
        <mxCell id="PZgfyG_mXTi6joqUZfRK-375" style="edgeStyle=none;rounded=0;orthogonalLoop=1;jettySize=auto;html=1;exitX=1;exitY=0.5;exitDx=0;exitDy=0;entryX=0;entryY=0.5;entryDx=0;entryDy=0;" edge="1" parent="1" source="PZgfyG_mXTi6joqUZfRK-378" target="PZgfyG_mXTi6joqUZfRK-383">
          <mxGeometry relative="1" as="geometry" />
        </mxCell>
        <mxCell id="PZgfyG_mXTi6joqUZfRK-376" value="Yes" style="edgeLabel;html=1;align=center;verticalAlign=middle;resizable=0;points=[];" vertex="1" connectable="0" parent="PZgfyG_mXTi6joqUZfRK-375">
          <mxGeometry x="-0.2906" y="2" relative="1" as="geometry">
            <mxPoint x="1" as="offset" />
          </mxGeometry>
        </mxCell>
        <mxCell id="PZgfyG_mXTi6joqUZfRK-377" value="NO" style="edgeStyle=orthogonalEdgeStyle;rounded=0;orthogonalLoop=1;jettySize=auto;html=1;exitX=0.5;exitY=1;exitDx=0;exitDy=0;entryX=0.5;entryY=0;entryDx=0;entryDy=0;" edge="1" parent="1" source="PZgfyG_mXTi6joqUZfRK-378" target="PZgfyG_mXTi6joqUZfRK-381">
          <mxGeometry relative="1" as="geometry" />
        </mxCell>
        <mxCell id="PZgfyG_mXTi6joqUZfRK-378" value="Q&amp;amp;A match, item don&#39;t match make, model match" style="rhombus;whiteSpace=wrap;html=1;fillColor=#f8cecc;strokeColor=#b85450;" vertex="1" parent="1">
          <mxGeometry x="1090" y="5630" width="80" height="80" as="geometry" />
        </mxCell>
        <mxCell id="PZgfyG_mXTi6joqUZfRK-379" value="Yes" style="edgeStyle=none;rounded=0;orthogonalLoop=1;jettySize=auto;html=1;exitX=1;exitY=0.5;exitDx=0;exitDy=0;entryX=0;entryY=0.5;entryDx=0;entryDy=0;" edge="1" parent="1" source="PZgfyG_mXTi6joqUZfRK-381" target="PZgfyG_mXTi6joqUZfRK-383">
          <mxGeometry relative="1" as="geometry">
            <mxPoint x="960" y="5820" as="targetPoint" />
          </mxGeometry>
        </mxCell>
        <mxCell id="PZgfyG_mXTi6joqUZfRK-380" value="NO" style="edgeStyle=orthogonalEdgeStyle;rounded=0;orthogonalLoop=1;jettySize=auto;html=1;exitX=0.5;exitY=1;exitDx=0;exitDy=0;entryX=0.5;entryY=0;entryDx=0;entryDy=0;" edge="1" parent="1" source="PZgfyG_mXTi6joqUZfRK-381" target="PZgfyG_mXTi6joqUZfRK-391">
          <mxGeometry relative="1" as="geometry" />
        </mxCell>
        <mxCell id="PZgfyG_mXTi6joqUZfRK-381" value="Q&amp;amp;A don&#39;t match, item don&#39;t match match make, model match" style="rhombus;whiteSpace=wrap;html=1;fillColor=#FFFFFF;" vertex="1" parent="1">
          <mxGeometry x="1090" y="5780" width="80" height="80" as="geometry" />
        </mxCell>
        <mxCell id="PZgfyG_mXTi6joqUZfRK-382" style="edgeStyle=orthogonalEdgeStyle;rounded=0;orthogonalLoop=1;jettySize=auto;html=1;exitX=0.5;exitY=1;exitDx=0;exitDy=0;entryX=1;entryY=0;entryDx=0;entryDy=0;" edge="1" parent="1" source="PZgfyG_mXTi6joqUZfRK-383" target="PZgfyG_mXTi6joqUZfRK-391">
          <mxGeometry relative="1" as="geometry">
            <Array as="points">
              <mxPoint x="1460" y="5900" />
              <mxPoint x="1150" y="5900" />
            </Array>
          </mxGeometry>
        </mxCell>
        <mxCell id="PZgfyG_mXTi6joqUZfRK-383" value="tah_match_found = &#39;Y&#39;" style="rounded=0;whiteSpace=wrap;html=1;fillColor=#FFFFFF;" vertex="1" parent="1">
          <mxGeometry x="1400" y="5470" width="120" height="60" as="geometry" />
        </mxCell>
        <mxCell id="PZgfyG_mXTi6joqUZfRK-384" style="edgeStyle=orthogonalEdgeStyle;rounded=0;orthogonalLoop=1;jettySize=auto;html=1;exitX=1;exitY=0.5;exitDx=0;exitDy=0;entryX=0;entryY=0.5;entryDx=0;entryDy=0;" edge="1" parent="1" source="PZgfyG_mXTi6joqUZfRK-385" target="PZgfyG_mXTi6joqUZfRK-456">
          <mxGeometry relative="1" as="geometry" />
        </mxCell>
        <mxCell id="PZgfyG_mXTi6joqUZfRK-385" value="send message to ICO_TXN which results in writing to order_exceptions table with a request to create new IS order" style="rounded=0;whiteSpace=wrap;html=1;fillColor=#FFFFFF;" vertex="1" parent="1">
          <mxGeometry x="1415" y="5970" width="120" height="120" as="geometry" />
        </mxCell>
        <mxCell id="PZgfyG_mXTi6joqUZfRK-386" value="&lt;span style=&quot;color: rgb(0 , 0 , 0) ; font-family: &amp;#34;helvetica&amp;#34; ; font-size: 12px ; font-style: normal ; font-weight: 400 ; letter-spacing: normal ; text-align: center ; text-indent: 0px ; text-transform: none ; word-spacing: 0px ; background-color: rgb(248 , 249 , 250) ; display: inline ; float: none&quot;&gt;Why are we checking for no $ value promo?&lt;br&gt;&lt;br&gt;Joe to check why promo is checked only on case 2&lt;br&gt;&lt;/span&gt;" style="shape=note;whiteSpace=wrap;html=1;backgroundOutline=1;darkOpacity=0.05;fillColor=#dae8fc;strokeColor=#6c8ebf;" vertex="1" parent="1">
          <mxGeometry x="1320" y="5260" width="140" height="120" as="geometry" />
        </mxCell>
        <mxCell id="PZgfyG_mXTi6joqUZfRK-387" style="edgeStyle=orthogonalEdgeStyle;rounded=0;orthogonalLoop=1;jettySize=auto;html=1;exitX=0.5;exitY=1;exitDx=0;exitDy=0;exitPerimeter=0;" edge="1" parent="1" source="PZgfyG_mXTi6joqUZfRK-388" target="PZgfyG_mXTi6joqUZfRK-365">
          <mxGeometry relative="1" as="geometry" />
        </mxCell>
        <mxCell id="PZgfyG_mXTi6joqUZfRK-388" value="&lt;span&gt;4 get data of device from PIF file&lt;/span&gt;&lt;br&gt;&lt;span&gt;5 gets data of device from Refund order&lt;/span&gt;" style="shape=note;whiteSpace=wrap;html=1;backgroundOutline=1;darkOpacity=0.05;" vertex="1" parent="1">
          <mxGeometry x="760" y="5370" width="190" height="70" as="geometry" />
        </mxCell>
        <mxCell id="PZgfyG_mXTi6joqUZfRK-389" value="YES" style="edgeStyle=orthogonalEdgeStyle;rounded=0;orthogonalLoop=1;jettySize=auto;html=1;exitX=0;exitY=0.5;exitDx=0;exitDy=0;entryX=1;entryY=0.25;entryDx=0;entryDy=0;" edge="1" parent="1" source="PZgfyG_mXTi6joqUZfRK-391" target="PZgfyG_mXTi6joqUZfRK-392">
          <mxGeometry relative="1" as="geometry" />
        </mxCell>
        <mxCell id="PZgfyG_mXTi6joqUZfRK-390" value="NO" style="edgeStyle=orthogonalEdgeStyle;rounded=0;orthogonalLoop=1;jettySize=auto;html=1;exitX=1;exitY=0.5;exitDx=0;exitDy=0;entryX=0;entryY=0.5;entryDx=0;entryDy=0;" edge="1" parent="1" source="PZgfyG_mXTi6joqUZfRK-391" target="PZgfyG_mXTi6joqUZfRK-394">
          <mxGeometry relative="1" as="geometry" />
        </mxCell>
        <mxCell id="PZgfyG_mXTi6joqUZfRK-391" value="Evaluate&amp;nbsp;&lt;br&gt;tah_match_found" style="rhombus;whiteSpace=wrap;html=1;" vertex="1" parent="1">
          <mxGeometry x="1090" y="5990" width="80" height="80" as="geometry" />
        </mxCell>
        <mxCell id="PZgfyG_mXTi6joqUZfRK-392" value="Update location_code, order_num of refund order" style="rounded=0;whiteSpace=wrap;html=1;fillColor=#FFFFFF;" vertex="1" parent="1">
          <mxGeometry x="835" y="6010" width="120" height="60" as="geometry" />
        </mxCell>
        <mxCell id="PZgfyG_mXTi6joqUZfRK-393" value="NO" style="edgeStyle=orthogonalEdgeStyle;rounded=0;orthogonalLoop=1;jettySize=auto;html=1;exitX=1;exitY=0.5;exitDx=0;exitDy=0;" edge="1" parent="1" source="PZgfyG_mXTi6joqUZfRK-394" target="PZgfyG_mXTi6joqUZfRK-385">
          <mxGeometry relative="1" as="geometry" />
        </mxCell>
        <mxCell id="PZgfyG_mXTi6joqUZfRK-394" value="promo_offer&lt;br&gt;exists" style="rhombus;whiteSpace=wrap;html=1;" vertex="1" parent="1">
          <mxGeometry x="1260" y="5990" width="80" height="80" as="geometry" />
        </mxCell>
        <mxCell id="PZgfyG_mXTi6joqUZfRK-395" style="edgeStyle=orthogonalEdgeStyle;rounded=0;orthogonalLoop=1;jettySize=auto;html=1;exitX=0.5;exitY=1;exitDx=0;exitDy=0;" edge="1" parent="1" source="PZgfyG_mXTi6joqUZfRK-396" target="PZgfyG_mXTi6joqUZfRK-399">
          <mxGeometry relative="1" as="geometry" />
        </mxCell>
        <mxCell id="PZgfyG_mXTi6joqUZfRK-396" value="Step19: Something to do with some updates to some records. Not really sure.&amp;nbsp;" style="rounded=0;whiteSpace=wrap;html=1;" vertex="1" parent="1">
          <mxGeometry x="400" y="6370" width="120" height="60" as="geometry" />
        </mxCell>
        <mxCell id="PZgfyG_mXTi6joqUZfRK-397" style="edgeStyle=orthogonalEdgeStyle;rounded=0;orthogonalLoop=1;jettySize=auto;html=1;exitX=1;exitY=0.5;exitDx=0;exitDy=0;" edge="1" parent="1" source="PZgfyG_mXTi6joqUZfRK-399" target="PZgfyG_mXTi6joqUZfRK-403">
          <mxGeometry relative="1" as="geometry" />
        </mxCell>
        <mxCell id="PZgfyG_mXTi6joqUZfRK-398" style="edgeStyle=orthogonalEdgeStyle;rounded=0;orthogonalLoop=1;jettySize=auto;html=1;exitX=0.5;exitY=1;exitDx=0;exitDy=0;" edge="1" parent="1" source="PZgfyG_mXTi6joqUZfRK-399" target="PZgfyG_mXTi6joqUZfRK-414">
          <mxGeometry relative="1" as="geometry" />
        </mxCell>
        <mxCell id="PZgfyG_mXTi6joqUZfRK-399" value="Process online ISPU with IC&lt;b&gt;(20)&lt;/b&gt;" style="rounded=0;whiteSpace=wrap;html=1;" vertex="1" parent="1">
          <mxGeometry x="400" y="6670" width="120" height="60" as="geometry" />
        </mxCell>
        <mxCell id="PZgfyG_mXTi6joqUZfRK-400" style="edgeStyle=orthogonalEdgeStyle;rounded=0;orthogonalLoop=1;jettySize=auto;html=1;exitX=0;exitY=0;exitDx=80;exitDy=65;exitPerimeter=0;entryX=0;entryY=0.5;entryDx=0;entryDy=0;" edge="1" parent="1" source="PZgfyG_mXTi6joqUZfRK-401" target="PZgfyG_mXTi6joqUZfRK-399">
          <mxGeometry relative="1" as="geometry" />
        </mxCell>
        <mxCell id="PZgfyG_mXTi6joqUZfRK-401" value="ISPU: Instore pickup&lt;br&gt;non-SPO: ?" style="shape=note;whiteSpace=wrap;html=1;backgroundOutline=1;darkOpacity=0.05;" vertex="1" parent="1">
          <mxGeometry x="230" y="6630" width="80" height="100" as="geometry" />
        </mxCell>
        <mxCell id="PZgfyG_mXTi6joqUZfRK-402" style="edgeStyle=orthogonalEdgeStyle;rounded=0;orthogonalLoop=1;jettySize=auto;html=1;exitX=1;exitY=0.5;exitDx=0;exitDy=0;entryX=0;entryY=0.5;entryDx=0;entryDy=0;" edge="1" parent="1" source="PZgfyG_mXTi6joqUZfRK-403" target="PZgfyG_mXTi6joqUZfRK-407">
          <mxGeometry relative="1" as="geometry" />
        </mxCell>
        <mxCell id="PZgfyG_mXTi6joqUZfRK-403" value="Get dr_status from DR table non-SPO only" style="rounded=0;whiteSpace=wrap;html=1;" vertex="1" parent="1">
          <mxGeometry x="635" y="6670" width="120" height="60" as="geometry" />
        </mxCell>
        <mxCell id="PZgfyG_mXTi6joqUZfRK-404" style="edgeStyle=orthogonalEdgeStyle;rounded=0;orthogonalLoop=1;jettySize=auto;html=1;exitX=0.5;exitY=1;exitDx=0;exitDy=0;exitPerimeter=0;entryX=0.5;entryY=0;entryDx=0;entryDy=0;" edge="1" parent="1" source="PZgfyG_mXTi6joqUZfRK-405" target="PZgfyG_mXTi6joqUZfRK-403">
          <mxGeometry relative="1" as="geometry" />
        </mxCell>
        <mxCell id="PZgfyG_mXTi6joqUZfRK-405" value="1. What is SPO?&lt;br&gt;2. Don&#39;t we already have DR status from step 1-4 from same table?" style="shape=note;whiteSpace=wrap;html=1;backgroundOutline=1;darkOpacity=0.05;" vertex="1" parent="1">
          <mxGeometry x="600" y="6480" width="190" height="130" as="geometry" />
        </mxCell>
        <mxCell id="PZgfyG_mXTi6joqUZfRK-406" style="edgeStyle=orthogonalEdgeStyle;rounded=0;orthogonalLoop=1;jettySize=auto;html=1;exitX=1;exitY=0.5;exitDx=0;exitDy=0;entryX=0;entryY=0.5;entryDx=0;entryDy=0;" edge="1" parent="1" source="PZgfyG_mXTi6joqUZfRK-407" target="PZgfyG_mXTi6joqUZfRK-411">
          <mxGeometry relative="1" as="geometry" />
        </mxCell>
        <mxCell id="PZgfyG_mXTi6joqUZfRK-407" value="CANREADY and VOI" style="rhombus;whiteSpace=wrap;html=1;" vertex="1" parent="1">
          <mxGeometry x="895" y="6660" width="80" height="80" as="geometry" />
        </mxCell>
        <mxCell id="PZgfyG_mXTi6joqUZfRK-408" style="edgeStyle=orthogonalEdgeStyle;rounded=0;orthogonalLoop=1;jettySize=auto;html=1;exitX=0.5;exitY=1;exitDx=0;exitDy=0;exitPerimeter=0;entryX=0.5;entryY=0;entryDx=0;entryDy=0;" edge="1" parent="1" source="PZgfyG_mXTi6joqUZfRK-409" target="PZgfyG_mXTi6joqUZfRK-407">
          <mxGeometry relative="1" as="geometry" />
        </mxCell>
        <mxCell id="PZgfyG_mXTi6joqUZfRK-409" value="CANREADY?&lt;br&gt;VOI?&lt;br&gt;crt_status?&lt;br&gt;&lt;br&gt;CANREADY is from crt_status&lt;br&gt;VOI is for dr_status" style="shape=note;whiteSpace=wrap;html=1;backgroundOutline=1;darkOpacity=0.05;" vertex="1" parent="1">
          <mxGeometry x="845" y="6470" width="180" height="140" as="geometry" />
        </mxCell>
        <mxCell id="PZgfyG_mXTi6joqUZfRK-410" style="edgeStyle=orthogonalEdgeStyle;rounded=0;orthogonalLoop=1;jettySize=auto;html=1;exitX=1;exitY=0.5;exitDx=0;exitDy=0;entryX=0;entryY=0.5;entryDx=0;entryDy=0;" edge="1" parent="1" source="PZgfyG_mXTi6joqUZfRK-411" target="PZgfyG_mXTi6joqUZfRK-455">
          <mxGeometry relative="1" as="geometry" />
        </mxCell>
        <mxCell id="PZgfyG_mXTi6joqUZfRK-411" value="send message to ICO_TXN which results in IS order creation" style="rounded=0;whiteSpace=wrap;html=1;" vertex="1" parent="1">
          <mxGeometry x="1085" y="6670" width="120" height="60" as="geometry" />
        </mxCell>
        <mxCell id="PZgfyG_mXTi6joqUZfRK-412" style="edgeStyle=orthogonalEdgeStyle;rounded=0;orthogonalLoop=1;jettySize=auto;html=1;exitX=1;exitY=0.5;exitDx=0;exitDy=0;entryX=0;entryY=0.5;entryDx=0;entryDy=0;" edge="1" parent="1" source="PZgfyG_mXTi6joqUZfRK-414" target="PZgfyG_mXTi6joqUZfRK-415">
          <mxGeometry relative="1" as="geometry" />
        </mxCell>
        <mxCell id="PZgfyG_mXTi6joqUZfRK-413" style="edgeStyle=orthogonalEdgeStyle;rounded=0;orthogonalLoop=1;jettySize=auto;html=1;exitX=0.5;exitY=1;exitDx=0;exitDy=0;" edge="1" parent="1" source="PZgfyG_mXTi6joqUZfRK-414" target="PZgfyG_mXTi6joqUZfRK-421">
          <mxGeometry relative="1" as="geometry" />
        </mxCell>
        <mxCell id="PZgfyG_mXTi6joqUZfRK-414" value="Force cp6 logic&lt;b&gt;(21)&lt;br&gt;&lt;/b&gt;NO OP for DEVR" style="rounded=0;whiteSpace=wrap;html=1;fillColor=#f8cecc;strokeColor=#b85450;" vertex="1" parent="1">
          <mxGeometry x="410" y="6880" width="120" height="60" as="geometry" />
        </mxCell>
        <mxCell id="PZgfyG_mXTi6joqUZfRK-415" value="Very complex and is turned off for long time" style="rounded=0;whiteSpace=wrap;html=1;" vertex="1" parent="1">
          <mxGeometry x="645" y="6880" width="120" height="60" as="geometry" />
        </mxCell>
        <mxCell id="PZgfyG_mXTi6joqUZfRK-416" style="edgeStyle=orthogonalEdgeStyle;rounded=0;orthogonalLoop=1;jettySize=auto;html=1;exitX=0;exitY=0;exitDx=80;exitDy=65;exitPerimeter=0;entryX=0;entryY=0.5;entryDx=0;entryDy=0;" edge="1" parent="1" source="PZgfyG_mXTi6joqUZfRK-417" target="PZgfyG_mXTi6joqUZfRK-414">
          <mxGeometry relative="1" as="geometry" />
        </mxCell>
        <mxCell id="PZgfyG_mXTi6joqUZfRK-417" value="What is cp6?" style="shape=note;whiteSpace=wrap;html=1;backgroundOutline=1;darkOpacity=0.05;" vertex="1" parent="1">
          <mxGeometry x="210" y="6860" width="80" height="100" as="geometry" />
        </mxCell>
        <mxCell id="PZgfyG_mXTi6joqUZfRK-418" style="edgeStyle=orthogonalEdgeStyle;rounded=0;orthogonalLoop=1;jettySize=auto;html=1;exitX=1;exitY=0.5;exitDx=0;exitDy=0;" edge="1" parent="1" source="PZgfyG_mXTi6joqUZfRK-421" target="PZgfyG_mXTi6joqUZfRK-422">
          <mxGeometry relative="1" as="geometry" />
        </mxCell>
        <mxCell id="PZgfyG_mXTi6joqUZfRK-419" value="N" style="edgeLabel;html=1;align=center;verticalAlign=middle;resizable=0;points=[];" vertex="1" connectable="0" parent="PZgfyG_mXTi6joqUZfRK-418">
          <mxGeometry x="-0.2131" y="1" relative="1" as="geometry">
            <mxPoint as="offset" />
          </mxGeometry>
        </mxCell>
        <mxCell id="PZgfyG_mXTi6joqUZfRK-420" value="Y" style="edgeStyle=orthogonalEdgeStyle;rounded=0;orthogonalLoop=1;jettySize=auto;html=1;exitX=0.5;exitY=1;exitDx=0;exitDy=0;" edge="1" parent="1" source="PZgfyG_mXTi6joqUZfRK-421" target="PZgfyG_mXTi6joqUZfRK-424">
          <mxGeometry relative="1" as="geometry" />
        </mxCell>
        <mxCell id="PZgfyG_mXTi6joqUZfRK-421" value="Still no match&lt;br&gt;(tah found flag)" style="rhombus;whiteSpace=wrap;html=1;" vertex="1" parent="1">
          <mxGeometry x="433" y="7040" width="80" height="80" as="geometry" />
        </mxCell>
        <mxCell id="PZgfyG_mXTi6joqUZfRK-422" value="Exit for GOOD" style="triangle;whiteSpace=wrap;html=1;fillColor=#CC0000;" vertex="1" parent="1">
          <mxGeometry x="635" y="7040" width="60" height="80" as="geometry" />
        </mxCell>
        <mxCell id="PZgfyG_mXTi6joqUZfRK-423" style="edgeStyle=orthogonalEdgeStyle;rounded=0;orthogonalLoop=1;jettySize=auto;html=1;exitX=0.5;exitY=1;exitDx=0;exitDy=0;" edge="1" parent="1" source="PZgfyG_mXTi6joqUZfRK-424" target="PZgfyG_mXTi6joqUZfRK-429">
          <mxGeometry relative="1" as="geometry" />
        </mxCell>
        <mxCell id="PZgfyG_mXTi6joqUZfRK-424" value="Process Duplicates" style="rounded=0;whiteSpace=wrap;html=1;fillColor=#f8cecc;strokeColor=#b85450;" vertex="1" parent="1">
          <mxGeometry x="415" y="7240" width="120" height="60" as="geometry" />
        </mxCell>
        <mxCell id="PZgfyG_mXTi6joqUZfRK-425" style="edgeStyle=orthogonalEdgeStyle;rounded=0;orthogonalLoop=1;jettySize=auto;html=1;exitX=0;exitY=0;exitDx=130;exitDy=80;exitPerimeter=0;entryX=0;entryY=0.5;entryDx=0;entryDy=0;" edge="1" parent="1" source="PZgfyG_mXTi6joqUZfRK-426" target="PZgfyG_mXTi6joqUZfRK-424">
          <mxGeometry relative="1" as="geometry" />
        </mxCell>
        <mxCell id="PZgfyG_mXTi6joqUZfRK-426" value="Since we are going to process 1 entry/record at a time, we cannot do this.&amp;nbsp;" style="shape=note;whiteSpace=wrap;html=1;backgroundOutline=1;darkOpacity=0.05;fillColor=#FFFFFF;" vertex="1" parent="1">
          <mxGeometry x="191" y="7180" width="130" height="130" as="geometry" />
        </mxCell>
        <mxCell id="PZgfyG_mXTi6joqUZfRK-427" style="edgeStyle=orthogonalEdgeStyle;rounded=0;orthogonalLoop=1;jettySize=auto;html=1;exitX=1;exitY=0.5;exitDx=0;exitDy=0;" edge="1" parent="1" source="PZgfyG_mXTi6joqUZfRK-429">
          <mxGeometry relative="1" as="geometry">
            <mxPoint x="645" y="7440" as="targetPoint" />
          </mxGeometry>
        </mxCell>
        <mxCell id="PZgfyG_mXTi6joqUZfRK-428" style="edgeStyle=orthogonalEdgeStyle;rounded=0;orthogonalLoop=1;jettySize=auto;html=1;exitX=0.5;exitY=1;exitDx=0;exitDy=0;" edge="1" parent="1" source="PZgfyG_mXTi6joqUZfRK-429" target="PZgfyG_mXTi6joqUZfRK-432">
          <mxGeometry relative="1" as="geometry" />
        </mxCell>
        <mxCell id="PZgfyG_mXTi6joqUZfRK-429" value="Fix Account NUM" style="rounded=0;whiteSpace=wrap;html=1;fillColor=#FFFFFF;" vertex="1" parent="1">
          <mxGeometry x="415" y="7410" width="120" height="60" as="geometry" />
        </mxCell>
        <mxCell id="PZgfyG_mXTi6joqUZfRK-430" value="What is this?" style="shape=note;whiteSpace=wrap;html=1;backgroundOutline=1;darkOpacity=0.05;fillColor=#FFFFFF;" vertex="1" parent="1">
          <mxGeometry x="650" y="7400" width="80" height="100" as="geometry" />
        </mxCell>
        <mxCell id="PZgfyG_mXTi6joqUZfRK-431" style="edgeStyle=orthogonalEdgeStyle;rounded=0;orthogonalLoop=1;jettySize=auto;html=1;exitX=1;exitY=0.5;exitDx=0;exitDy=0;entryX=0;entryY=0.5;entryDx=0;entryDy=0;" edge="1" parent="1" source="PZgfyG_mXTi6joqUZfRK-432" target="PZgfyG_mXTi6joqUZfRK-434">
          <mxGeometry relative="1" as="geometry" />
        </mxCell>
        <mxCell id="PZgfyG_mXTi6joqUZfRK-432" value="Final closing processing(Closing Remarks)" style="rounded=0;whiteSpace=wrap;html=1;fillColor=#FFFFFF;" vertex="1" parent="1">
          <mxGeometry x="415" y="7580" width="120" height="60" as="geometry" />
        </mxCell>
        <mxCell id="PZgfyG_mXTi6joqUZfRK-433" style="edgeStyle=orthogonalEdgeStyle;rounded=0;orthogonalLoop=1;jettySize=auto;html=1;exitX=1;exitY=0.5;exitDx=0;exitDy=0;entryX=0;entryY=0.5;entryDx=0;entryDy=0;" edge="1" parent="1" source="PZgfyG_mXTi6joqUZfRK-434" target="PZgfyG_mXTi6joqUZfRK-436">
          <mxGeometry relative="1" as="geometry" />
        </mxCell>
        <mxCell id="PZgfyG_mXTi6joqUZfRK-434" value="Lookup ace_orders, ace_item_tran_dr, cust_ord_vision" style="rounded=0;whiteSpace=wrap;html=1;fillColor=#FFFFFF;" vertex="1" parent="1">
          <mxGeometry x="620" y="7580" width="120" height="60" as="geometry" />
        </mxCell>
        <mxCell id="PZgfyG_mXTi6joqUZfRK-435" style="edgeStyle=orthogonalEdgeStyle;rounded=0;orthogonalLoop=1;jettySize=auto;html=1;exitX=1;exitY=0.5;exitDx=0;exitDy=0;entryX=0;entryY=0.5;entryDx=0;entryDy=0;" edge="1" parent="1" source="PZgfyG_mXTi6joqUZfRK-436" target="PZgfyG_mXTi6joqUZfRK-438">
          <mxGeometry relative="1" as="geometry" />
        </mxCell>
        <mxCell id="PZgfyG_mXTi6joqUZfRK-436" value="&lt;span&gt;Update devrcyc_devr to&amp;nbsp;&lt;/span&gt;&lt;b&gt;&quot;DEVR&quot;&lt;/b&gt;" style="rounded=0;whiteSpace=wrap;html=1;fillColor=#FFFFFF;" vertex="1" parent="1">
          <mxGeometry x="830" y="7580" width="120" height="60" as="geometry" />
        </mxCell>
        <mxCell id="PZgfyG_mXTi6joqUZfRK-437" style="edgeStyle=orthogonalEdgeStyle;rounded=0;orthogonalLoop=1;jettySize=auto;html=1;exitX=1;exitY=0.5;exitDx=0;exitDy=0;entryX=0;entryY=0.5;entryDx=0;entryDy=0;" edge="1" parent="1" source="PZgfyG_mXTi6joqUZfRK-438" target="PZgfyG_mXTi6joqUZfRK-442">
          <mxGeometry relative="1" as="geometry" />
        </mxCell>
        <mxCell id="PZgfyG_mXTi6joqUZfRK-438" value="Call case management" style="rounded=0;whiteSpace=wrap;html=1;fillColor=#FFFFFF;" vertex="1" parent="1">
          <mxGeometry x="1008" y="7580" width="120" height="60" as="geometry" />
        </mxCell>
        <mxCell id="PZgfyG_mXTi6joqUZfRK-439" style="edgeStyle=orthogonalEdgeStyle;rounded=0;orthogonalLoop=1;jettySize=auto;html=1;exitX=0.5;exitY=1;exitDx=0;exitDy=0;exitPerimeter=0;entryX=0.5;entryY=0;entryDx=0;entryDy=0;" edge="1" parent="1" source="PZgfyG_mXTi6joqUZfRK-440" target="PZgfyG_mXTi6joqUZfRK-438">
          <mxGeometry relative="1" as="geometry" />
        </mxCell>
        <mxCell id="PZgfyG_mXTi6joqUZfRK-440" value="CM is another system&amp;nbsp;&lt;br&gt;&lt;br&gt;What are we sending to CM" style="shape=note;whiteSpace=wrap;html=1;backgroundOutline=1;darkOpacity=0.05;fillColor=#FFFFFF;" vertex="1" parent="1">
          <mxGeometry x="1020" y="7420" width="80" height="100" as="geometry" />
        </mxCell>
        <mxCell id="PZgfyG_mXTi6joqUZfRK-441" style="edgeStyle=orthogonalEdgeStyle;rounded=0;orthogonalLoop=1;jettySize=auto;html=1;exitX=1;exitY=0.5;exitDx=0;exitDy=0;entryX=0;entryY=0.5;entryDx=0;entryDy=0;" edge="1" parent="1" source="PZgfyG_mXTi6joqUZfRK-442" target="PZgfyG_mXTi6joqUZfRK-444">
          <mxGeometry relative="1" as="geometry" />
        </mxCell>
        <mxCell id="PZgfyG_mXTi6joqUZfRK-442" value="Call event ledger" style="rounded=0;whiteSpace=wrap;html=1;fillColor=#FFFFFF;" vertex="1" parent="1">
          <mxGeometry x="1190" y="7580" width="120" height="60" as="geometry" />
        </mxCell>
        <mxCell id="PZgfyG_mXTi6joqUZfRK-443" style="edgeStyle=orthogonalEdgeStyle;rounded=0;orthogonalLoop=1;jettySize=auto;html=1;exitX=1;exitY=0.5;exitDx=0;exitDy=0;entryX=0;entryY=0.5;entryDx=0;entryDy=0;" edge="1" parent="1" source="PZgfyG_mXTi6joqUZfRK-444" target="PZgfyG_mXTi6joqUZfRK-447">
          <mxGeometry relative="1" as="geometry" />
        </mxCell>
        <mxCell id="PZgfyG_mXTi6joqUZfRK-444" value="Updtate order_exception to &quot;not retry&quot; if it exists" style="rounded=0;whiteSpace=wrap;html=1;fillColor=#FFFFFF;" vertex="1" parent="1">
          <mxGeometry x="1355" y="7580" width="120" height="60" as="geometry" />
        </mxCell>
        <mxCell id="PZgfyG_mXTi6joqUZfRK-445" style="edgeStyle=orthogonalEdgeStyle;rounded=0;orthogonalLoop=1;jettySize=auto;html=1;exitX=0.5;exitY=1;exitDx=0;exitDy=0;exitPerimeter=0;entryX=0.5;entryY=0;entryDx=0;entryDy=0;" edge="1" parent="1" source="PZgfyG_mXTi6joqUZfRK-446" target="PZgfyG_mXTi6joqUZfRK-442">
          <mxGeometry relative="1" as="geometry" />
        </mxCell>
        <mxCell id="PZgfyG_mXTi6joqUZfRK-446" value="What is it, do we need it." style="shape=note;whiteSpace=wrap;html=1;backgroundOutline=1;darkOpacity=0.05;fillColor=#FFFFFF;" vertex="1" parent="1">
          <mxGeometry x="1215" y="7420" width="80" height="100" as="geometry" />
        </mxCell>
        <mxCell id="PZgfyG_mXTi6joqUZfRK-447" value="Add remark to VISION&amp;nbsp;&lt;br&gt;&quot; TRADE DEVICE RECEIVED. WAITING INSPECTION" style="rounded=0;whiteSpace=wrap;html=1;fillColor=#FFFFFF;" vertex="1" parent="1">
          <mxGeometry x="1555" y="7565" width="160" height="90" as="geometry" />
        </mxCell>
        <mxCell id="PZgfyG_mXTi6joqUZfRK-448" value="What are the main tables?&lt;br&gt;&lt;br&gt;DR-&amp;gt; Device Recycle table&amp;nbsp;&lt;br&gt;Example of rows inserted for high level scenarios. For example when customer orders a record a order num, location code is inserted into order table, device details like memory.. are inserted into device table etc...." style="shape=note;whiteSpace=wrap;html=1;backgroundOutline=1;darkOpacity=0.05;fillColor=#FFFFFF;" vertex="1" parent="1">
          <mxGeometry x="435" y="-360" width="525" height="240" as="geometry" />
        </mxCell>
        <mxCell id="PZgfyG_mXTi6joqUZfRK-449" style="edgeStyle=orthogonalEdgeStyle;rounded=0;orthogonalLoop=1;jettySize=auto;html=1;exitX=0;exitY=0.5;exitDx=0;exitDy=0;entryX=1;entryY=0;entryDx=0;entryDy=0;" edge="1" parent="1" source="PZgfyG_mXTi6joqUZfRK-450" target="PZgfyG_mXTi6joqUZfRK-347">
          <mxGeometry relative="1" as="geometry" />
        </mxCell>
        <mxCell id="PZgfyG_mXTi6joqUZfRK-450" value="tah_match_found = &#39;N&#39;" style="rounded=0;whiteSpace=wrap;html=1;" vertex="1" parent="1">
          <mxGeometry x="1128" y="4670" width="120" height="60" as="geometry" />
        </mxCell>
        <mxCell id="PZgfyG_mXTi6joqUZfRK-451" style="edgeStyle=orthogonalEdgeStyle;rounded=0;orthogonalLoop=1;jettySize=auto;html=1;exitX=0.5;exitY=0;exitDx=0;exitDy=0;entryX=0.75;entryY=0;entryDx=0;entryDy=0;" edge="1" parent="1" source="PZgfyG_mXTi6joqUZfRK-452" target="PZgfyG_mXTi6joqUZfRK-347">
          <mxGeometry relative="1" as="geometry">
            <Array as="points">
              <mxPoint x="1560" y="4840" />
              <mxPoint x="1025" y="4840" />
              <mxPoint x="1025" y="4850" />
              <mxPoint x="520" y="4850" />
            </Array>
          </mxGeometry>
        </mxCell>
        <mxCell id="PZgfyG_mXTi6joqUZfRK-452" value="tah_match_found = &#39;Y&#39;" style="rounded=0;whiteSpace=wrap;html=1;" vertex="1" parent="1">
          <mxGeometry x="1500" y="4920" width="120" height="60" as="geometry" />
        </mxCell>
        <mxCell id="PZgfyG_mXTi6joqUZfRK-453" style="edgeStyle=orthogonalEdgeStyle;rounded=0;orthogonalLoop=1;jettySize=auto;html=1;exitX=0;exitY=0;exitDx=141;exitDy=85;exitPerimeter=0;entryX=0;entryY=0.5;entryDx=0;entryDy=0;" edge="1" parent="1" source="PZgfyG_mXTi6joqUZfRK-454" target="PZgfyG_mXTi6joqUZfRK-363">
          <mxGeometry relative="1" as="geometry" />
        </mxCell>
        <mxCell id="PZgfyG_mXTi6joqUZfRK-454" value="This step is only for&amp;nbsp; refund orders is our understanding" style="shape=note;whiteSpace=wrap;html=1;backgroundOutline=1;darkOpacity=0.05;" vertex="1" parent="1">
          <mxGeometry x="169" y="5430" width="141" height="140" as="geometry" />
        </mxCell>
        <mxCell id="PZgfyG_mXTi6joqUZfRK-455" value="Exit for GOOD" style="triangle;whiteSpace=wrap;html=1;fillColor=#CC0000;" vertex="1" parent="1">
          <mxGeometry x="1275" y="6660" width="60" height="80" as="geometry" />
        </mxCell>
        <mxCell id="PZgfyG_mXTi6joqUZfRK-456" value="Exit for GOOD" style="triangle;whiteSpace=wrap;html=1;fillColor=#CC0000;" vertex="1" parent="1">
          <mxGeometry x="1600" y="5990" width="60" height="80" as="geometry" />
        </mxCell>
        <mxCell id="PZgfyG_mXTi6joqUZfRK-457" value="EXIT" style="triangle;whiteSpace=wrap;html=1;fillColor=#990000;" vertex="1" parent="1">
          <mxGeometry x="2230" y="1430" width="60" height="80" as="geometry" />
        </mxCell>
        <mxCell id="PZgfyG_mXTi6joqUZfRK-458" style="edgeStyle=orthogonalEdgeStyle;rounded=0;orthogonalLoop=1;jettySize=auto;html=1;exitX=0;exitY=0;exitDx=290;exitDy=80;exitPerimeter=0;entryX=0;entryY=0.5;entryDx=0;entryDy=0;" edge="1" parent="1" source="PZgfyG_mXTi6joqUZfRK-459" target="PZgfyG_mXTi6joqUZfRK-421">
          <mxGeometry relative="1" as="geometry" />
        </mxCell>
        <mxCell id="PZgfyG_mXTi6joqUZfRK-459" value="What does still no match mean in this context? Are we checking the order number from PIF file against tradein/DR tables to determine a match or are we looking at tah_macth_found = &#39;Y&#39;" style="shape=note;whiteSpace=wrap;html=1;backgroundOutline=1;darkOpacity=0.05;" vertex="1" parent="1">
          <mxGeometry x="75" y="7000" width="290" height="130" as="geometry" />
        </mxCell>
        <mxCell id="PZgfyG_mXTi6joqUZfRK-460" value="EXIT FOR GOOD" style="triangle;whiteSpace=wrap;html=1;fillColor=#CC0000;" vertex="1" parent="1">
          <mxGeometry x="1160" y="5020" width="60" height="80" as="geometry" />
        </mxCell>
        <mxCell id="PZgfyG_mXTi6joqUZfRK-461" value="NO" style="edgeStyle=orthogonalEdgeStyle;rounded=0;orthogonalLoop=1;jettySize=auto;html=1;exitX=0.5;exitY=1;exitDx=0;exitDy=0;entryX=0.5;entryY=0;entryDx=0;entryDy=0;" edge="1" parent="1" source="PZgfyG_mXTi6joqUZfRK-463" target="PZgfyG_mXTi6joqUZfRK-363">
          <mxGeometry relative="1" as="geometry">
            <Array as="points">
              <mxPoint x="860" y="5290" />
              <mxPoint x="450" y="5290" />
            </Array>
          </mxGeometry>
        </mxCell>
        <mxCell id="PZgfyG_mXTi6joqUZfRK-462" style="edgeStyle=orthogonalEdgeStyle;rounded=0;orthogonalLoop=1;jettySize=auto;html=1;exitX=0;exitY=0.5;exitDx=0;exitDy=0;" edge="1" parent="1" source="PZgfyG_mXTi6joqUZfRK-463" target="PZgfyG_mXTi6joqUZfRK-465">
          <mxGeometry relative="1" as="geometry" />
        </mxCell>
        <mxCell id="PZgfyG_mXTi6joqUZfRK-463" value="Device id matches" style="rhombus;whiteSpace=wrap;html=1;" vertex="1" parent="1">
          <mxGeometry x="820" y="5160" width="80" height="80" as="geometry" />
        </mxCell>
        <mxCell id="PZgfyG_mXTi6joqUZfRK-464" style="edgeStyle=orthogonalEdgeStyle;rounded=0;orthogonalLoop=1;jettySize=auto;html=1;exitX=0;exitY=0.5;exitDx=0;exitDy=0;entryX=0.25;entryY=0;entryDx=0;entryDy=0;" edge="1" parent="1" source="PZgfyG_mXTi6joqUZfRK-465" target="PZgfyG_mXTi6joqUZfRK-363">
          <mxGeometry relative="1" as="geometry" />
        </mxCell>
        <mxCell id="PZgfyG_mXTi6joqUZfRK-465" value="tah_match_found = &#39;Y&#39;" style="rounded=0;whiteSpace=wrap;html=1;fillColor=#FFFFFF;" vertex="1" parent="1">
          <mxGeometry x="610" y="5180" width="130" height="40" as="geometry" />
        </mxCell>
      </root>
    </mxGraphModel>
  </diagram>
</mxfile>
